<svg id="Layer_1" data-name="Layer 1" xmlns="http://www.w3.org/2000/svg" viewBox="0 0 488.02 144.9"><defs><style>.cls-1{fill:#d2e5b3;}.cls-2{fill:none;stroke:#3d4752;stroke-miterlimit:10;stroke-width:0.9px;}.cls-3{fill:#3d4752;}.cls-4{fill:#fff;}</style></defs><title>data-flow-diagram-1</title><rect class="cls-1" x="1.21" y="0.45" width="68.4" height="34.2" rx="2.25" ry="2.25"/><rect class="cls-2" x="1.21" y="0.45" width="68.4" height="34.2" rx="2.25" ry="2.25"/><rect class="cls-1" x="4.81" y="2.25" width="68.4" height="34.2" rx="2.25" ry="2.25"/><rect class="cls-2" x="4.81" y="2.25" width="68.4" height="34.2" rx="2.25" ry="2.25"/><path class="cls-3" d="M19,21.38a2.08,2.08,0,0,1-2.23,2.27,2.06,2.06,0,0,1-2.23-2.27V17.76h0.8v3.56a1.43,1.43,0,1,0,2.85,0V17.76H19v3.61" transform="translate(-2.77 -2.48)"/><path class="cls-3" d="M20.17,21.18c-0.5-1.26.95-2,2.14-1.47a1.3,1.3,0,0,1,.6.47l-0.53.45a1,1,0,0,0-.89-0.48,0.58,0.58,0,0,0-.71.5c0,0.59.92,0.51,1.39,0.73a1.08,1.08,0,0,1,.78,1c0.06,1.56-2.45,1.51-3.08.55l0.54-.46a1.24,1.24,0,0,0,1,.53,0.62,0.62,0,0,0,.76-0.56c0-.73-1.27-0.51-1.76-0.95a0.84,0.84,0,0,1-.26-0.3" transform="translate(-2.77 -2.48)"/><path class="cls-3" d="M25.63,19.55c1.3,0,1.9.87,1.84,2.25h-3A1.2,1.2,0,0,0,25.67,23a1.28,1.28,0,0,0,1.12-.58l0.53,0.43a1.92,1.92,0,0,1-1.65.79,1.86,1.86,0,0,1-2-2,1.86,1.86,0,0,1,2-2m1.08,1.68a1.07,1.07,0,0,0-1.54-1,1.12,1.12,0,0,0-.75,1h2.28Z" transform="translate(-2.77 -2.48)"/><path class="cls-3" d="M28.54,23.5c0-1.28,0-2.61,0-3.84h0.72c0,0.16,0,.48,0,0.65h0a1.3,1.3,0,0,1,1.47-.72l0,0.7a1.1,1.1,0,0,0-1.43,1.19v2H28.54" transform="translate(-2.77 -2.48)"/><line class="cls-2" x1="37.21" y1="36.45" x2="37.21" y2="81.45"/><path class="cls-3" d="M40.43,38.93h0Z" transform="translate(-2.77 -2.48)"/><polygon class="cls-3" points="37.22 81.45 35.15 75.02 39.28 75.02 37.22 81.45"/><path class="cls-3" d="M38.5,77.95L40,82.49l1.49-4.54h-3Zm2,6h-1L37.28,77h5.4Z" transform="translate(-2.77 -2.48)"/><rect class="cls-4" y="50.67" width="74.38" height="11.07"/><path class="cls-3" d="M6.45,57.11c0-1-1.15-.92-2.19-0.92v1.85c1,0,2.19.09,2.19-.94m0.81,0c0,1.51-1.39,1.69-3,1.62v2.52H3.46V55.52H5.21C6.4,55.53,7.26,55.93,7.26,57.11Z" transform="translate(-2.77 -2.48)"/><path class="cls-3" d="M7.87,61.25c0-1.28,0-2.61,0-3.84H8.56c0,0.16,0,.48,0,0.65h0a1.3,1.3,0,0,1,1.47-.72l0,0.7a1.1,1.1,0,0,0-1.43,1.19v2H7.87" transform="translate(-2.77 -2.48)"/><path class="cls-3" d="M12.47,60.72a1.39,1.39,0,1,0-1.28-1.39,1.24,1.24,0,0,0,1.28,1.39m0-3.41a2,2,0,1,1,0,4A2,2,0,1,1,12.47,57.31Z" transform="translate(-2.77 -2.48)"/><path class="cls-3" d="M17.4,57.94a1.39,1.39,0,0,0,0,2.78,1.39,1.39,0,0,0,0-2.78m-0.14-.63a1.7,1.7,0,0,1,1.39.68V55.13h0.76v6.12H18.67a3.73,3.73,0,0,0,0-.61,1.6,1.6,0,0,1-1.39.71,1.84,1.84,0,0,1-1.94-2A1.86,1.86,0,0,1,17.26,57.31Z" transform="translate(-2.77 -2.48)"/><path class="cls-3" d="M24.13,57.41c0,1.28,0,2.61,0,3.84H23.44c0-.16,0-0.49,0-0.63a1.41,1.41,0,0,1-1.26.74,1.36,1.36,0,0,1-1.43-1.56V57.41h0.76v2.12c0,0.68.19,1.18,0.87,1.18a1.11,1.11,0,0,0,1-1.26v-2h0.76" transform="translate(-2.77 -2.48)"/><path class="cls-3" d="M25.2,59.33a1.88,1.88,0,0,1,2-2,1.82,1.82,0,0,1,1.44.63l-0.55.45a1.05,1.05,0,0,0-.88-0.44,1.39,1.39,0,0,0,0,2.77,1.1,1.1,0,0,0,.92-0.42l0.51,0.46a1.77,1.77,0,0,1-1.43.6,1.9,1.9,0,0,1-2.07-2" transform="translate(-2.77 -2.48)"/><path class="cls-3" d="M30.68,61.32a1,1,0,0,1-1.12-1.2V58H28.82V57.41h0.74v-1.1h0.75v1.1h1V58h-1v2c0,0.44.13,0.64,0.54,0.65a1.09,1.09,0,0,0,.45-0.1l0,0.62a1.94,1.94,0,0,1-.65.11" transform="translate(-2.77 -2.48)"/><path class="cls-3" d="M35.33,61.32a1,1,0,0,1-1.12-1.2V58H33.48V57.41h0.74v-1.1H35v1.1h1V58H35v2c0,0.44.13,0.64,0.54,0.65a1.09,1.09,0,0,0,.45-0.1l0,0.62a1.94,1.94,0,0,1-.65.11" transform="translate(-2.77 -2.48)"/><path class="cls-3" d="M38.59,60.72a1.39,1.39,0,1,0-1.28-1.39,1.24,1.24,0,0,0,1.28,1.39m0-3.41a2,2,0,1,1-2.07,2A1.9,1.9,0,0,1,38.59,57.31Z" transform="translate(-2.77 -2.48)"/><path class="cls-3" d="M45.75,60.72a1.39,1.39,0,0,0,0-2.78,1.39,1.39,0,0,0,0,2.78m0.13,0.64a1.59,1.59,0,0,1-1.35-.68h0V63.2H43.74V57.41h0.75V58h0a1.54,1.54,0,0,1,1.39-.7A2,2,0,0,1,45.88,61.36Z" transform="translate(-2.77 -2.48)"/><path class="cls-3" d="M52.27,57.41c0,1.28,0,2.61,0,3.84H51.58c0-.16,0-0.49,0-0.63a1.41,1.41,0,0,1-1.26.74,1.36,1.36,0,0,1-1.43-1.56V57.41h0.76v2.12c0,0.68.19,1.18,0.87,1.18a1.11,1.11,0,0,0,1-1.26v-2h0.76" transform="translate(-2.77 -2.48)"/><path class="cls-3" d="M53.59,61.25c0-1.28,0-2.61,0-3.84h0.72c0,0.16,0,.48,0,0.65h0a1.3,1.3,0,0,1,1.47-.72l0,0.7a1.1,1.1,0,0,0-1.43,1.19v2H53.59" transform="translate(-2.77 -2.48)"/><path class="cls-3" d="M56.13,59.33a1.88,1.88,0,0,1,2-2,1.82,1.82,0,0,1,1.44.63l-0.55.45a1.05,1.05,0,0,0-.88-0.44,1.39,1.39,0,0,0,0,2.77,1.1,1.1,0,0,0,.92-0.42l0.51,0.46a1.77,1.77,0,0,1-1.43.6,1.9,1.9,0,0,1-2.07-2" transform="translate(-2.77 -2.48)"/><path class="cls-3" d="M62.19,58a1.12,1.12,0,0,0-1,1.26v2H60.4V55.13h0.76c0,0.95,0,1.94,0,2.87a1.35,1.35,0,0,1,1.21-.69,1.37,1.37,0,0,1,1.43,1.56v2.38H63.06V59.13c0-.67-0.19-1.17-0.87-1.17" transform="translate(-2.77 -2.48)"/><path class="cls-3" d="M66.39,60.75a1.09,1.09,0,0,0,1.11-1.33c-0.83,0-1.9,0-1.9.73a0.65,0.65,0,0,0,.79.6m-1.56-.58c0-1.24,1.4-1.26,2.67-1.3a0.83,0.83,0,0,0-.95-0.95,1.6,1.6,0,0,0-1.09.45l-0.4-.49a2.26,2.26,0,0,1,1.57-.58,1.42,1.42,0,0,1,1.6,1.51,23.93,23.93,0,0,0,.06,2.44H67.6a2.56,2.56,0,0,1-.06-0.55h0a1.47,1.47,0,0,1-1.29.65A1.19,1.19,0,0,1,64.83,60.17Z" transform="translate(-2.77 -2.48)"/><path class="cls-3" d="M69.36,58.94c-0.5-1.26.95-2,2.14-1.47a1.3,1.3,0,0,1,.6.47l-0.53.45a1,1,0,0,0-.89-0.48,0.58,0.58,0,0,0-.71.5c0,0.59.92,0.51,1.39,0.73a1.08,1.08,0,0,1,.78,1c0.06,1.56-2.45,1.51-3.08.55l0.54-.46a1.24,1.24,0,0,0,1,.53,0.62,0.62,0,0,0,.76-0.56c0-.73-1.27-0.51-1.76-0.95a0.84,0.84,0,0,1-.26-0.3" transform="translate(-2.77 -2.48)"/><path class="cls-3" d="M74.83,57.31c1.3,0,1.9.87,1.84,2.25h-3a1.2,1.2,0,0,0,1.25,1.17A1.28,1.28,0,0,0,76,60.14l0.53,0.43a1.92,1.92,0,0,1-1.65.79,2,2,0,0,1,0-4M75.91,59a1.07,1.07,0,0,0-1.54-1,1.12,1.12,0,0,0-.75,1h2.28Z" transform="translate(-2.77 -2.48)"/><rect class="cls-1" x="1.21" y="81.45" width="72" height="63" rx="6.3" ry="6.3"/><rect class="cls-2" x="1.21" y="81.45" width="72" height="63" rx="6.3" ry="6.3"/><line class="cls-2" x1="1.21" y1="103.95" x2="73.21" y2="103.95"/><polyline class="cls-3" points="11.48 95.27 10.7 95.27 10.7 92.88 10.7 90.49 9.61 91.39 9.15 90.85 10.78 89.53 11.48 89.53 11.48 92.4 11.48 95.27"/><polyline class="cls-3" points="9.91 126.77 9.11 126.77 9.11 123.9 9.11 121.03 9.91 121.03 9.91 123.9 9.91 126.77"/><path class="cls-3" d="M15.84,125.93a1.39,1.39,0,0,0,0,2.78,1.39,1.39,0,0,0,0-2.78m-0.14-.63a1.7,1.7,0,0,1,1.39.68v-2.86h0.76v6.12H17.11a3.73,3.73,0,0,0,0-.61,1.6,1.6,0,0,1-1.39.71,1.84,1.84,0,0,1-1.94-2A1.86,1.86,0,0,1,15.7,125.3Z" transform="translate(-2.77 -2.48)"/><path class="cls-3" d="M20.91,125.3c1.3,0,1.9.87,1.84,2.25h-3a1.2,1.2,0,0,0,1.25,1.17,1.28,1.28,0,0,0,1.12-.58l0.53,0.43a1.92,1.92,0,0,1-1.65.79,2,2,0,0,1,0-4M22,127a1.07,1.07,0,0,0-1.54-1,1.12,1.12,0,0,0-.75,1H22Z" transform="translate(-2.77 -2.48)"/><path class="cls-3" d="M23.82,129.25c0-1.28,0-2.61,0-3.84H24.5c0,0.16,0,.45,0,0.63h0a1.34,1.34,0,0,1,1.25-.74,1.36,1.36,0,0,1,1.43,1.56v2.38H26.48v-2.13c0-.68-0.19-1.17-0.87-1.17a1.11,1.11,0,0,0-1,1.26v2H23.82" transform="translate(-2.77 -2.48)"/><path class="cls-3" d="M29.75,129.31a1,1,0,0,1-1.12-1.2V126H27.9v-0.62h0.74v-1.1h0.75v1.1h1V126h-1v2c0,0.44.13,0.64,0.54,0.65a1.09,1.09,0,0,0,.45-0.1l0,0.62a1.94,1.94,0,0,1-.65.11" transform="translate(-2.77 -2.48)"/><path class="cls-3" d="M31.58,123.53a0.5,0.5,0,0,1,.51.49,0.51,0.51,0,1,1-.51-0.49M32,129.25H31.2v-3.84H32v3.84Z" transform="translate(-2.77 -2.48)"/><path class="cls-3" d="M34.52,129.31a1,1,0,0,1-1.12-1.2V126H32.66v-0.62H33.4v-1.1h0.75v1.1h1V126h-1v2c0,0.44.13,0.64,0.54,0.65a1.09,1.09,0,0,0,.45-0.1l0,0.62a1.94,1.94,0,0,1-.65.11" transform="translate(-2.77 -2.48)"/><path class="cls-3" d="M36.23,125.41c0.41,1,.78,2,1.21,3l1.06-3H39.3l-1.86,4.75a1.4,1.4,0,0,1-1.83,1l0.07-.67a0.79,0.79,0,0,0,.83-0.1,4.73,4.73,0,0,0,.51-1.12l-1.64-3.84h0.85" transform="translate(-2.77 -2.48)"/><path class="cls-3" d="M42.42,123.53a0.5,0.5,0,0,1,.51.49,0.51,0.51,0,1,1-.51-0.49m0.38,5.72H42v-3.84H42.8v3.84Z" transform="translate(-2.77 -2.48)"/><path class="cls-3" d="M45.35,129.31a1,1,0,0,1-1.12-1.2V126H43.5v-0.62h0.74v-1.1H45v1.1h1V126H45v2c0,0.44.13,0.64,0.54,0.65a1.09,1.09,0,0,0,.45-0.1l0,0.62a1.94,1.94,0,0,1-.65.11" transform="translate(-2.77 -2.48)"/><path class="cls-3" d="M48.53,125.3c1.3,0,1.9.87,1.84,2.25h-3a1.2,1.2,0,0,0,1.25,1.17,1.28,1.28,0,0,0,1.12-.58l0.53,0.43a1.92,1.92,0,0,1-1.65.79,2,2,0,0,1,0-4M49.61,127a1.07,1.07,0,0,0-1.54-1,1.12,1.12,0,0,0-.75,1h2.28Z" transform="translate(-2.77 -2.48)"/><path class="cls-3" d="M52.18,126a1.34,1.34,0,0,1,1.22-.74,1.2,1.2,0,0,1,1.19.77,1.41,1.41,0,0,1,1.3-.77,1.36,1.36,0,0,1,1.43,1.56v2.38H56.57v-2.13c0-.66-0.19-1.17-0.85-1.17-1.39,0-.87,2-1,3.3H54V127a0.83,0.83,0,0,0-.81-1,1.11,1.11,0,0,0-1,1.26v2H51.44c0-1.28,0-2.61,0-3.84h0.72c0,0.16,0,.45,0,0.63h0" transform="translate(-2.77 -2.48)"/><line class="cls-2" x1="73.21" y1="112.95" x2="127.03" y2="112.95"/><polygon class="cls-3" points="73.22 113.4 73.22 113.4 73.22 112.5 73.22 113.4"/><polygon class="cls-3" points="127.03 112.95 120.6 115.02 120.6 110.88 127.03 112.95"/><path class="cls-3" d="M123.82,116.92l4.5-1.49-4.5-1.48v3Zm6-2v1l-6.89,2.2v-5.4Z" transform="translate(-2.77 -2.48)"/><rect class="cls-4" x="86.58" y="107.42" width="27.04" height="11.03"/><polyline class="cls-3" points="88.08 115.52 87.28 115.52 87.28 112.65 87.28 109.78 88.08 109.78 88.08 112.65 88.08 115.52"/><path class="cls-3" d="M93.42,118.06a1,1,0,0,1-1.12-1.2v-2.08H91.56v-0.62H92.3v-1.1h0.75v1.1h1v0.62h-1v2c0,0.44.13,0.64,0.54,0.65a1.09,1.09,0,0,0,.45-0.1l0,0.62a1.94,1.94,0,0,1-.65.11" transform="translate(-2.77 -2.48)"/><path class="cls-3" d="M96.6,114.05c1.3,0,1.9.87,1.84,2.25h-3a1.2,1.2,0,0,0,1.25,1.17,1.28,1.28,0,0,0,1.12-.58l0.53,0.43a1.92,1.92,0,0,1-1.65.79,2,2,0,0,1,0-4m1.08,1.68a1.07,1.07,0,0,0-1.54-1,1.12,1.12,0,0,0-.75,1h2.28Z" transform="translate(-2.77 -2.48)"/><path class="cls-3" d="M100.25,114.79a1.34,1.34,0,0,1,1.22-.74,1.2,1.2,0,0,1,1.19.77,1.41,1.41,0,0,1,1.3-.77,1.36,1.36,0,0,1,1.43,1.56V118h-0.76v-2.13c0-.66-0.19-1.17-0.85-1.17-1.39,0-.87,2-1,3.3h-0.76v-2.28a0.83,0.83,0,0,0-.81-1,1.11,1.11,0,0,0-1,1.26v2H99.5c0-1.28,0-2.61,0-3.84h0.72c0,0.16,0,.45,0,0.63h0" transform="translate(-2.77 -2.48)"/><polyline class="cls-3" points="106.75 115.52 105.95 115.52 105.95 112.65 105.95 109.78 106.75 109.78 106.75 112.65 106.75 115.52"/><path class="cls-3" d="M115.12,115.13c0-1.46-.95-2.13-2.4-2.17h-1v4.33h1c1.44,0,2.4-.72,2.4-2.16m-2.24-2.87c1.84,0.09,3.09,1,3.09,2.87a2.67,2.67,0,0,1-2,2.69,12,12,0,0,1-3.07.18v-5.73h2Z" transform="translate(-2.77 -2.48)"/><rect class="cls-1" x="127.03" y="81.45" width="72" height="63" rx="6.3" ry="6.3"/><rect class="cls-2" x="127.03" y="81.45" width="72" height="63" rx="6.3" ry="6.3"/><line class="cls-2" x1="127.03" y1="103.95" x2="199.03" y2="103.95"/><path class="cls-3" d="M139.34,91.87A1.63,1.63,0,0,1,141.09,94a2.64,2.64,0,0,1-.85,1.22L138.37,97h2.81v0.7h-3.74V97l2.28-2.27a1.75,1.75,0,0,0,.63-1.22,0.94,0.94,0,0,0-1-1,1.08,1.08,0,0,0-1.08,1l-0.77-.13a1.76,1.76,0,0,1,1.85-1.52" transform="translate(-2.77 -2.48)"/><polyline class="cls-3" points="135.69 126.05 138.25 126.05 138.25 126.41 138.25 126.77 134.89 126.77 134.89 123.9 134.89 121.03 135.69 121.03 135.69 123.54 135.69 126.05"/><path class="cls-3" d="M143.42,128.71a1.39,1.39,0,1,0-1.28-1.39,1.24,1.24,0,0,0,1.28,1.39m0-3.41a2,2,0,1,1-2.07,2A1.9,1.9,0,0,1,143.42,125.3Z" transform="translate(-2.77 -2.48)"/><path class="cls-3" d="M148.36,128.71a1.39,1.39,0,1,0-1.28-1.39,1.24,1.24,0,0,0,1.28,1.39m0-3.41a2,2,0,1,1-2.07,2A1.9,1.9,0,0,1,148.36,125.3Z" transform="translate(-2.77 -2.48)"/><polyline class="cls-3" points="149.5 124.59 149.52 124.59 151.13 122.93 152.16 122.93 150.36 124.67 152.31 126.77 151.26 126.77 149.52 124.77 149.5 124.77 149.5 125.77 149.5 126.77 148.74 126.77 148.74 123.7 148.74 120.64 149.5 120.64 149.5 122.62 149.5 124.59"/><path class="cls-3" d="M161.17,125.41c0,1.28,0,2.61,0,3.84h-0.72c0-.16,0-0.49,0-0.63a1.41,1.41,0,0,1-1.26.74,1.36,1.36,0,0,1-1.43-1.56v-2.38h0.76v2.12c0,0.68.19,1.18,0.87,1.18a1.11,1.11,0,0,0,1-1.26v-2h0.76" transform="translate(-2.77 -2.48)"/><path class="cls-3" d="M164.49,128.71a1.39,1.39,0,0,0,0-2.78,1.39,1.39,0,0,0,0,2.78m0.13,0.64a1.59,1.59,0,0,1-1.35-.68h0v2.52h-0.76v-5.78h0.75V126h0a1.54,1.54,0,0,1,1.39-.7A2,2,0,0,1,164.62,129.35Z" transform="translate(-2.77 -2.48)"/><path class="cls-3" d="M171.66,128.71a1.39,1.39,0,0,0,0-2.78,1.39,1.39,0,0,0,0,2.78m0.13,0.64a1.59,1.59,0,0,1-1.35-.68h0v2.52h-0.76v-5.78h0.75V126h0a1.54,1.54,0,0,1,1.39-.7A2,2,0,0,1,171.79,129.35Z" transform="translate(-2.77 -2.48)"/><path class="cls-3" d="M174.79,129.25c0-1.28,0-2.61,0-3.84h0.72c0,0.16,0,.48,0,0.65h0a1.3,1.3,0,0,1,1.47-.72l0,0.7a1.1,1.1,0,0,0-1.43,1.19v2h-0.76" transform="translate(-2.77 -2.48)"/><path class="cls-3" d="M178.11,123.53a0.5,0.5,0,0,1,.51.49,0.51,0.51,0,1,1-.51-0.49m0.38,5.72h-0.76v-3.84h0.76v3.84Z" transform="translate(-2.77 -2.48)"/><path class="cls-3" d="M179.57,127.33a1.88,1.88,0,0,1,2-2,1.82,1.82,0,0,1,1.44.63l-0.55.45a1.05,1.05,0,0,0-.88-0.44,1.39,1.39,0,0,0,0,2.77,1.1,1.1,0,0,0,.92-0.42l0.51,0.46a1.77,1.77,0,0,1-1.43.6,1.9,1.9,0,0,1-2.07-2" transform="translate(-2.77 -2.48)"/><path class="cls-3" d="M185.55,125.3c1.3,0,1.9.87,1.84,2.25h-3a1.2,1.2,0,0,0,1.25,1.17,1.28,1.28,0,0,0,1.12-.58l0.53,0.43a1.92,1.92,0,0,1-1.65.79,2,2,0,0,1,0-4m1.08,1.68a1.07,1.07,0,0,0-1.54-1,1.12,1.12,0,0,0-.75,1h2.28Z" transform="translate(-2.77 -2.48)"/><path class="cls-3" d="M188.32,126.93c-0.5-1.26.95-2,2.14-1.47a1.3,1.3,0,0,1,.6.47l-0.53.45a1,1,0,0,0-.89-0.48,0.58,0.58,0,0,0-.71.5c0,0.59.92,0.51,1.39,0.73a1.08,1.08,0,0,1,.78,1c0.06,1.56-2.45,1.51-3.08.55l0.54-.46a1.24,1.24,0,0,0,1,.53,0.62,0.62,0,0,0,.76-0.56c0-.73-1.27-0.51-1.76-0.95a0.84,0.84,0,0,1-.26-0.3" transform="translate(-2.77 -2.48)"/><line class="cls-2" x1="163.21" y1="27.45" x2="163.03" y2="81.45"/><path class="cls-3" d="M166.43,28.58v1.35h-0.9V28.58h0.9Zm0,1.35h0Z" transform="translate(-2.77 -2.48)"/><polygon class="cls-3" points="165.15 75.06 163.03 81.45 160.97 75.02 165.15 75.06"/><path class="cls-3" d="M165.8,82.49l1.48-4.54h-2.92Zm2.7-5.4-2.25,6.84h-0.95L163.1,77Z" transform="translate(-2.77 -2.48)"/><rect class="cls-4" x="152.23" y="48.92" width="21.74" height="11.03"/><path class="cls-3" d="M158.69,55.36c0-1-1.15-.92-2.19-0.92V56.3c1,0,2.19.09,2.19-.94m0.81,0c0,1.51-1.39,1.69-3,1.62V59.5h-0.8V53.76h1.75C158.64,53.78,159.5,54.18,159.5,55.36Z" transform="translate(-2.77 -2.48)"/><path class="cls-3" d="M160.1,59.5c0-1.28,0-2.61,0-3.84h0.72c0,0.16,0,.48,0,0.65h0a1.3,1.3,0,0,1,1.47-.72l0,0.7a1.1,1.1,0,0,0-1.43,1.19v2H160.1" transform="translate(-2.77 -2.48)"/><path class="cls-3" d="M163.42,53.78a0.5,0.5,0,0,1,.51.49,0.51,0.51,0,1,1-.51-0.49m0.38,5.72H163V55.66h0.76V59.5Z" transform="translate(-2.77 -2.48)"/><path class="cls-3" d="M164.88,57.58a1.88,1.88,0,0,1,2-2,1.82,1.82,0,0,1,1.44.63l-0.55.45a1.05,1.05,0,0,0-.88-0.44,1.39,1.39,0,0,0,0,2.77,1.1,1.1,0,0,0,.92-0.42L168.38,59a1.77,1.77,0,0,1-1.43.6,1.9,1.9,0,0,1-2.07-2" transform="translate(-2.77 -2.48)"/><path class="cls-3" d="M170.87,55.55c1.3,0,1.9.87,1.84,2.25h-3A1.2,1.2,0,0,0,170.91,59a1.28,1.28,0,0,0,1.12-.58l0.53,0.43a1.92,1.92,0,0,1-1.65.79,2,2,0,0,1,0-4m1.08,1.68a1.07,1.07,0,0,0-1.54-1,1.12,1.12,0,0,0-.75,1h2.28Z" transform="translate(-2.77 -2.48)"/><path class="cls-3" d="M173.64,57.18c-0.5-1.26.95-2,2.14-1.47a1.3,1.3,0,0,1,.6.47l-0.53.45a1,1,0,0,0-.89-0.48,0.58,0.58,0,0,0-.71.5c0,0.59.92,0.51,1.39,0.73a1.08,1.08,0,0,1,.78,1c0.06,1.56-2.45,1.51-3.08.55l0.54-.46a1.24,1.24,0,0,0,1,.53,0.62,0.62,0,0,0,.76-0.56c0-.73-1.27-0.51-1.76-0.95a0.84,0.84,0,0,1-.26-0.3" transform="translate(-2.77 -2.48)"/><path class="cls-1" d="M211,2.93H123.23A2.23,2.23,0,0,0,121,5.18v22.5a2.23,2.23,0,0,0,2.25,2.25H211" transform="translate(-2.77 -2.48)"/><path class="cls-2" d="M211,2.93H123.23A2.23,2.23,0,0,0,121,5.18v22.5a2.23,2.23,0,0,0,2.25,2.25H211" transform="translate(-2.77 -2.48)"/><line class="cls-2" x1="136.21" y1="0.45" x2="136.21" y2="27.45"/><path class="cls-3" d="M128.46,14a0.85,0.85,0,0,0-1.15,0c-0.68.71-.72,2.57-0.36,3.66a1,1,0,0,0,.94.81c1.22,0,1.21-1.83,1.1-3.13a2.3,2.3,0,0,0-.53-1.34M126,17.31c-0.32-1.88,0-4.2,1.85-4.2,1.53,0,2,1.43,2,3a3.17,3.17,0,0,1-1.08,2.78,1.79,1.79,0,0,1-1.76,0A2.3,2.3,0,0,1,126,17.31Z" transform="translate(-2.77 -2.48)"/><polyline class="cls-3" points="130.6 16.52 129.82 16.52 129.82 14.13 129.82 11.74 128.73 12.64 128.27 12.1 129.9 10.78 130.6 10.78 130.6 13.65 130.6 16.52"/><path class="cls-3" d="M147.17,14.86c0-1-1.15-.92-2.19-0.92V15.8c1,0,2.19.09,2.19-.94m0.81,0c0,1.51-1.39,1.69-3,1.62V19h-0.8V13.26h1.75C147.12,13.28,148,13.68,148,14.86Z" transform="translate(-2.77 -2.48)"/><path class="cls-3" d="M148.58,19c0-1.28,0-2.61,0-3.84h0.72c0,0.16,0,.48,0,0.65h0a1.3,1.3,0,0,1,1.47-.72l0,0.7A1.1,1.1,0,0,0,149.34,17v2h-0.76" transform="translate(-2.77 -2.48)"/><path class="cls-3" d="M151.9,13.28a0.5,0.5,0,0,1,.51.49,0.51,0.51,0,1,1-.51-0.49M152.29,19h-0.76V15.16h0.76V19Z" transform="translate(-2.77 -2.48)"/><path class="cls-3" d="M153.36,17.08a1.88,1.88,0,0,1,2-2,1.82,1.82,0,0,1,1.44.63l-0.55.45a1.05,1.05,0,0,0-.88-0.44,1.24,1.24,0,0,0-1.26,1.39,1.24,1.24,0,0,0,1.26,1.39,1.1,1.1,0,0,0,.92-0.42l0.51,0.46a1.77,1.77,0,0,1-1.43.6,1.9,1.9,0,0,1-2.07-2" transform="translate(-2.77 -2.48)"/><path class="cls-3" d="M159.35,15.05c1.3,0,1.9.87,1.84,2.25h-3a1.2,1.2,0,0,0,1.25,1.17,1.28,1.28,0,0,0,1.12-.58L161,18.32a1.92,1.92,0,0,1-1.65.79,1.86,1.86,0,0,1-2-2,1.86,1.86,0,0,1,2-2m1.08,1.68a1.07,1.07,0,0,0-1.54-1,1.12,1.12,0,0,0-.75,1h2.28Z" transform="translate(-2.77 -2.48)"/><path class="cls-3" d="M162.12,16.68c-0.5-1.26.95-2,2.14-1.47a1.3,1.3,0,0,1,.6.47l-0.53.45a1,1,0,0,0-.89-0.48,0.58,0.58,0,0,0-.71.5c0,0.59.92,0.51,1.39,0.73a1.08,1.08,0,0,1,.78,1c0.06,1.56-2.45,1.51-3.08.55l0.54-.46a1.24,1.24,0,0,0,1,.53,0.62,0.62,0,0,0,.76-0.56c0-.73-1.27-0.51-1.76-0.95a0.84,0.84,0,0,1-.26-0.3" transform="translate(-2.77 -2.48)"/><line class="cls-2" x1="199.03" y1="112.95" x2="262.21" y2="112.95"/><polygon class="cls-3" points="199.03 113.4 199.03 113.4 199.03 112.5 199.03 113.4"/><polygon class="cls-3" points="262.21 112.95 255.78 115.02 255.78 110.88 262.21 112.95"/><path class="cls-3" d="M259,116.92l4.54-1.49L259,113.95v3Zm6-2v1l-6.88,2.2v-5.4Z" transform="translate(-2.77 -2.48)"/><rect class="cls-4" x="212.31" y="101.88" width="36.59" height="22.1"/><polyline class="cls-3" points="213.81 109.98 213.01 109.98 213.01 107.11 213.01 104.25 213.81 104.25 213.81 107.11 213.81 109.98"/><path class="cls-3" d="M219.15,112.53a1,1,0,0,1-1.12-1.2v-2.08h-0.74v-0.62H218v-1.1h0.75v1.1h1v0.62h-1v2c0,0.44.13,0.64,0.54,0.65a1.09,1.09,0,0,0,.45-0.1l0,0.62a1.94,1.94,0,0,1-.65.11" transform="translate(-2.77 -2.48)"/><path class="cls-3" d="M222.32,108.52c1.3,0,1.9.87,1.84,2.25h-3a1.2,1.2,0,0,0,1.25,1.17,1.28,1.28,0,0,0,1.12-.58l0.53,0.43a1.92,1.92,0,0,1-1.65.79,2,2,0,0,1,0-4m1.08,1.68a1.07,1.07,0,0,0-1.54-1,1.12,1.12,0,0,0-.75,1h2.28Z" transform="translate(-2.77 -2.48)"/><path class="cls-3" d="M226,109.25a1.34,1.34,0,0,1,1.22-.74,1.2,1.2,0,0,1,1.19.77,1.41,1.41,0,0,1,1.3-.77,1.36,1.36,0,0,1,1.43,1.56v2.38h-0.76v-2.13c0-.66-0.19-1.17-0.85-1.17-1.39,0-.87,2-1,3.3h-0.76v-2.28a0.83,0.83,0,0,0-.81-1,1.11,1.11,0,0,0-1,1.26v2h-0.76c0-1.28,0-2.61,0-3.84h0.72c0,0.16,0,.45,0,0.63h0" transform="translate(-2.77 -2.48)"/><path class="cls-3" d="M232.28,110.15c-0.5-1.26.95-2,2.14-1.47a1.3,1.3,0,0,1,.6.47l-0.53.45a1,1,0,0,0-.89-0.48,0.58,0.58,0,0,0-.71.5c0,0.59.92,0.51,1.39,0.73a1.08,1.08,0,0,1,.78,1c0.06,1.56-2.45,1.51-3.08.55l0.54-.46a1.24,1.24,0,0,0,1,.53,0.62,0.62,0,0,0,.76-0.56c0-.73-1.27-0.51-1.76-0.95a0.84,0.84,0,0,1-.26-0.3" transform="translate(-2.77 -2.48)"/><path class="cls-3" d="M239.29,112a1.09,1.09,0,0,0,1.11-1.33c-0.83,0-1.9,0-1.9.73a0.65,0.65,0,0,0,.79.6m-1.56-.58c0-1.24,1.4-1.26,2.67-1.3a0.83,0.83,0,0,0-.95-0.95,1.6,1.6,0,0,0-1.09.45l-0.4-.49a2.26,2.26,0,0,1,1.57-.58,1.42,1.42,0,0,1,1.6,1.51,23.92,23.92,0,0,0,.06,2.44h-0.69a2.56,2.56,0,0,1-.06-0.55h0a1.47,1.47,0,0,1-1.29.65A1.19,1.19,0,0,1,237.72,111.38Z" transform="translate(-2.77 -2.48)"/><path class="cls-3" d="M242.4,112.46c0-1.28,0-2.61,0-3.84h0.72c0,0.16,0,.45,0,0.63h0a1.34,1.34,0,0,1,1.25-.74,1.36,1.36,0,0,1,1.43,1.56v2.38h-0.76v-2.13c0-.68-0.19-1.17-0.87-1.17a1.11,1.11,0,0,0-1,1.26v2H242.4" transform="translate(-2.77 -2.48)"/><path class="cls-3" d="M248.92,109.15a1.39,1.39,0,0,0,0,2.78,1.39,1.39,0,0,0,0-2.78m-0.14-.63a1.7,1.7,0,0,1,1.39.68v-2.86h0.76v6.12h-0.74a3.73,3.73,0,0,0,0-.61,1.6,1.6,0,0,1-1.39.71,1.84,1.84,0,0,1-1.94-2A1.86,1.86,0,0,1,248.78,108.52Z" transform="translate(-2.77 -2.48)"/><path class="cls-3" d="M217.74,123a1.39,1.39,0,0,0,0-2.78,1.39,1.39,0,0,0,0,2.78m0.13,0.64a1.59,1.59,0,0,1-1.35-.68h0v2.52h-0.76v-5.78h0.75v0.6h0a1.54,1.54,0,0,1,1.39-.7A2,2,0,0,1,217.87,123.59Z" transform="translate(-2.77 -2.48)"/><path class="cls-3" d="M220.87,123.49c0-1.28,0-2.61,0-3.84h0.72c0,0.16,0,.48,0,0.65h0a1.3,1.3,0,0,1,1.47-.72l0,0.7a1.1,1.1,0,0,0-1.43,1.19v2h-0.76" transform="translate(-2.77 -2.48)"/><path class="cls-3" d="M224.19,117.77a0.5,0.5,0,0,1,.51.49,0.51,0.51,0,1,1-.51-0.49m0.38,5.72h-0.76v-3.84h0.76v3.84Z" transform="translate(-2.77 -2.48)"/><path class="cls-3" d="M225.65,121.57a1.88,1.88,0,0,1,2-2,1.82,1.82,0,0,1,1.44.63l-0.55.45a1.05,1.05,0,0,0-.88-0.44,1.39,1.39,0,0,0,0,2.77,1.1,1.1,0,0,0,.92-0.42l0.51,0.46a1.77,1.77,0,0,1-1.43.6,1.9,1.9,0,0,1-2.07-2" transform="translate(-2.77 -2.48)"/><path class="cls-3" d="M231.63,119.54c1.3,0,1.9.87,1.84,2.25h-3a1.2,1.2,0,0,0,1.25,1.17,1.28,1.28,0,0,0,1.12-.58l0.53,0.43a1.92,1.92,0,0,1-1.65.79,2,2,0,0,1,0-4m1.08,1.68a1.07,1.07,0,0,0-1.54-1,1.12,1.12,0,0,0-.75,1h2.28Z" transform="translate(-2.77 -2.48)"/><path class="cls-3" d="M234.4,121.17c-0.5-1.26.95-2,2.14-1.47a1.3,1.3,0,0,1,.6.47l-0.53.45a1,1,0,0,0-.89-0.48,0.58,0.58,0,0,0-.71.5c0,0.59.92,0.51,1.39,0.73a1.08,1.08,0,0,1,.78,1c0.06,1.56-2.45,1.51-3.08.55l0.54-.46a1.24,1.24,0,0,0,1,.53,0.62,0.62,0,0,0,.76-0.56c0-.73-1.27-0.51-1.76-0.95a0.84,0.84,0,0,1-.26-0.3" transform="translate(-2.77 -2.48)"/><rect class="cls-1" x="262.21" y="81.45" width="81" height="63" rx="6.3" ry="6.3"/><rect class="cls-2" x="262.21" y="81.45" width="81" height="63" rx="6.3" ry="6.3"/><line class="cls-2" x1="262.21" y1="103.95" x2="343.21" y2="103.95"/><path class="cls-3" d="M276.49,96.14c0-.87-0.77-1.09-1.68-1.06V94.43c0.85,0,1.53-.15,1.53-1a0.92,0.92,0,0,0-1-.95,1,1,0,0,0-1,.7L273.61,93a1.81,1.81,0,0,1,1.75-1.11,1.53,1.53,0,0,1,1.77,1.56,1.34,1.34,0,0,1-1,1.32,1.36,1.36,0,0,1,1.17,1.4,1.7,1.7,0,0,1-1.92,1.75,1.89,1.89,0,0,1-2-1.26l0.73-.24a1.21,1.21,0,0,0,1.21.84,1,1,0,0,0,1.15-1.09" transform="translate(-2.77 -2.48)"/><path class="cls-3" d="M276.51,123.15a1.78,1.78,0,0,0,1.54-.76l0.64,0.44a2.57,2.57,0,0,1-2.19,1,2.87,2.87,0,0,1-2.79-1.8,3.44,3.44,0,0,1,0-2.45,3,3,0,0,1,3.42-1.73,2.23,2.23,0,0,1,1.47.83l-0.63.49a1.73,1.73,0,0,0-1.43-.67,2.1,2.1,0,0,0-2.18,2.3,2.06,2.06,0,0,0,2.15,2.31" transform="translate(-2.77 -2.48)"/><path class="cls-3" d="M281.19,123.18a1.39,1.39,0,1,0-1.28-1.39,1.24,1.24,0,0,0,1.28,1.39m0-3.41a2,2,0,1,1-2.07,2A1.9,1.9,0,0,1,281.19,119.77Z" transform="translate(-2.77 -2.48)"/><path class="cls-3" d="M285.06,120.5a1.34,1.34,0,0,1,1.22-.74,1.2,1.2,0,0,1,1.19.77,1.41,1.41,0,0,1,1.3-.77,1.36,1.36,0,0,1,1.43,1.56v2.38h-0.76v-2.13c0-.66-0.19-1.17-0.85-1.17-1.39,0-.87,2-1,3.3h-0.76v-2.28a0.83,0.83,0,0,0-.81-1,1.11,1.11,0,0,0-1,1.26v2h-0.76c0-1.28,0-2.61,0-3.84H285c0,0.16,0,.45,0,0.63h0" transform="translate(-2.77 -2.48)"/><path class="cls-3" d="M293.51,123.18a1.39,1.39,0,0,0,0-2.78,1.39,1.39,0,0,0,0,2.78m0.13,0.64a1.59,1.59,0,0,1-1.35-.68h0v2.52H291.5v-5.78h0.75v0.6h0a1.54,1.54,0,0,1,1.39-.7A2,2,0,0,1,293.64,123.82Z" transform="translate(-2.77 -2.48)"/><path class="cls-3" d="M300,119.87c0,1.28,0,2.61,0,3.84h-0.72c0-.16,0-0.49,0-0.63a1.41,1.41,0,0,1-1.26.74,1.36,1.36,0,0,1-1.43-1.56v-2.38h0.76V122c0,0.68.19,1.18,0.87,1.18a1.11,1.11,0,0,0,1-1.26v-2H300" transform="translate(-2.77 -2.48)"/><path class="cls-3" d="M302.57,123.78a1,1,0,0,1-1.12-1.2V120.5h-0.74v-0.62h0.74v-1.1h0.75v1.1h1v0.62h-1v2c0,0.44.13,0.64,0.54,0.65a1.09,1.09,0,0,0,.45-0.1l0,0.62a1.94,1.94,0,0,1-.65.11" transform="translate(-2.77 -2.48)"/><path class="cls-3" d="M305.75,119.77c1.3,0,1.9.87,1.84,2.25h-3a1.2,1.2,0,0,0,1.25,1.17,1.28,1.28,0,0,0,1.12-.58l0.53,0.43a1.92,1.92,0,0,1-1.65.79,2,2,0,0,1,0-4m1.08,1.68a1.07,1.07,0,0,0-1.54-1,1.12,1.12,0,0,0-.75,1h2.28Z" transform="translate(-2.77 -2.48)"/><path class="cls-3" d="M311.86,123.78a1,1,0,0,1-1.12-1.2V120.5H310v-0.62h0.74v-1.1h0.75v1.1h1v0.62h-1v2c0,0.44.13,0.64,0.54,0.65a1.09,1.09,0,0,0,.45-0.1l0,0.62a1.94,1.94,0,0,1-.65.11" transform="translate(-2.77 -2.48)"/><path class="cls-3" d="M315.12,123.18a1.39,1.39,0,1,0-1.28-1.39,1.24,1.24,0,0,0,1.28,1.39m0-3.41a2,2,0,1,1-2.07,2A1.9,1.9,0,0,1,315.12,119.77Z" transform="translate(-2.77 -2.48)"/><path class="cls-3" d="M319.47,123.78a1,1,0,0,1-1.12-1.2V120.5h-0.74v-0.62h0.74v-1.1h0.75v1.1h1v0.62h-1v2c0,0.44.13,0.64,0.54,0.65a1.09,1.09,0,0,0,.45-0.1l0,0.62a1.94,1.94,0,0,1-.65.11" transform="translate(-2.77 -2.48)"/><path class="cls-3" d="M322.19,123.21a1.09,1.09,0,0,0,1.11-1.33c-0.83,0-1.9,0-1.9.73a0.65,0.65,0,0,0,.79.6m-1.56-.58c0-1.24,1.4-1.26,2.67-1.3a0.83,0.83,0,0,0-.95-0.95,1.6,1.6,0,0,0-1.09.45l-0.4-.49a2.26,2.26,0,0,1,1.57-.58,1.42,1.42,0,0,1,1.6,1.51,23.92,23.92,0,0,0,.06,2.44h-0.69a2.56,2.56,0,0,1-.06-0.55h0a1.47,1.47,0,0,1-1.29.65A1.19,1.19,0,0,1,320.62,122.63Z" transform="translate(-2.77 -2.48)"/><polyline class="cls-3" points="323.31 121.23 322.55 121.23 322.55 118.17 322.55 115.11 323.31 115.11 323.31 118.17 323.31 121.23"/><path class="cls-3" d="M273.49,132.86a1.88,1.88,0,0,1,2-2,1.82,1.82,0,0,1,1.44.63l-0.55.45a1.05,1.05,0,0,0-.88-0.44,1.39,1.39,0,0,0,0,2.77,1.1,1.1,0,0,0,.92-0.42l0.51,0.46a1.77,1.77,0,0,1-1.43.6,1.9,1.9,0,0,1-2.07-2" transform="translate(-2.77 -2.48)"/><path class="cls-3" d="M279.55,134.25a1.39,1.39,0,1,0-1.28-1.39,1.24,1.24,0,0,0,1.28,1.39m0-3.41a2,2,0,1,1-2.07,2A1.9,1.9,0,0,1,279.55,130.84Z" transform="translate(-2.77 -2.48)"/><path class="cls-3" d="M282.54,132.47c-0.5-1.26.95-2,2.14-1.47a1.3,1.3,0,0,1,.6.47l-0.53.45a1,1,0,0,0-.89-0.48,0.58,0.58,0,0,0-.71.5c0,0.59.92,0.51,1.39,0.73a1.08,1.08,0,0,1,.78,1c0.06,1.56-2.45,1.51-3.08.55l0.54-.46a1.24,1.24,0,0,0,1,.53,0.62,0.62,0,0,0,.76-0.56c0-.73-1.27-0.51-1.76-0.95a0.84,0.84,0,0,1-.26-0.3" transform="translate(-2.77 -2.48)"/><path class="cls-3" d="M287.5,134.85a1,1,0,0,1-1.12-1.2v-2.08h-0.74v-0.62h0.74v-1.1h0.75v1.1h1v0.62h-1v2c0,0.44.13,0.64,0.54,0.65a1.09,1.09,0,0,0,.45-0.1l0,0.62a1.94,1.94,0,0,1-.65.11" transform="translate(-2.77 -2.48)"/><path class="cls-3" d="M292.74,134.25a1.39,1.39,0,1,0-1.28-1.39,1.24,1.24,0,0,0,1.28,1.39m0-3.41a2,2,0,1,1-2.07,2A1.9,1.9,0,0,1,292.74,130.84Z" transform="translate(-2.77 -2.48)"/><path class="cls-3" d="M297.46,129.22c-0.83,0-.66.93-0.68,1.73h0.89v0.62h-0.89v3.22H296v-3.22h-0.76v-0.62H296v-0.8a1.42,1.42,0,0,1,1.91-1.52l-0.09.66a1.35,1.35,0,0,0-.38-0.06" transform="translate(-2.77 -2.48)"/><path class="cls-3" d="M302.42,134.25a1.39,1.39,0,1,0-1.28-1.39,1.24,1.24,0,0,0,1.28,1.39m0-3.41a2,2,0,1,1-2.07,2A1.9,1.9,0,0,1,302.42,130.84Z" transform="translate(-2.77 -2.48)"/><path class="cls-3" d="M305.54,134.78c0-1.28,0-2.61,0-3.84h0.72c0,0.16,0,.48,0,0.65h0a1.3,1.3,0,0,1,1.47-.72l0,0.7a1.1,1.1,0,0,0-1.43,1.19v2h-0.76" transform="translate(-2.77 -2.48)"/><path class="cls-3" d="M310.14,131.47a1.39,1.39,0,0,0,0,2.78,1.39,1.39,0,0,0,0-2.78m-0.14-.63a1.7,1.7,0,0,1,1.39.68v-2.86h0.76v6.12h-0.74a3.73,3.73,0,0,0,0-.61,1.6,1.6,0,0,1-1.39.71,1.84,1.84,0,0,1-1.94-2A1.86,1.86,0,0,1,310,130.84Z" transform="translate(-2.77 -2.48)"/><path class="cls-3" d="M315.21,130.84c1.3,0,1.9.87,1.84,2.25h-3a1.2,1.2,0,0,0,1.25,1.17,1.28,1.28,0,0,0,1.12-.58l0.53,0.43a1.92,1.92,0,0,1-1.65.79,2,2,0,0,1,0-4m1.08,1.68a1.07,1.07,0,0,0-1.54-1,1.12,1.12,0,0,0-.75,1h2.28Z" transform="translate(-2.77 -2.48)"/><path class="cls-3" d="M318.11,134.78c0-1.28,0-2.61,0-3.84h0.72c0,0.16,0,.48,0,0.65h0a1.3,1.3,0,0,1,1.47-.72l0,0.7a1.1,1.1,0,0,0-1.43,1.19v2h-0.76" transform="translate(-2.77 -2.48)"/><line class="cls-2" x1="343.21" y1="112.95" x2="406.57" y2="112.95"/><polygon class="cls-3" points="343.21 113.4 343.21 113.4 343.21 112.5 343.21 113.4"/><polygon class="cls-3" points="406.57 112.95 400.19 115.02 400.19 110.88 406.57 112.95"/><path class="cls-3" d="M403.4,116.92l4.5-1.49-4.5-1.48v3Zm5.94-2v1l-6.84,2.2v-5.4Z" transform="translate(-2.77 -2.48)"/><rect class="cls-4" x="355.09" y="101.88" width="39.6" height="22.1"/><path class="cls-3" d="M359.65,110.35h2.15l-1.07-2.69m-1.94,4.8H357.9l2.49-5.73h0.73l2.46,5.73h-0.91l-0.58-1.41h-2.72Z" transform="translate(-2.77 -2.48)"/><path class="cls-3" d="M365,109.25a1.34,1.34,0,0,1,1.22-.74,1.2,1.2,0,0,1,1.19.77,1.41,1.41,0,0,1,1.3-.77,1.36,1.36,0,0,1,1.43,1.56v2.38h-0.76v-2.13c0-.66-0.19-1.17-0.85-1.17-1.39,0-.87,2-1,3.3h-0.76v-2.28a0.83,0.83,0,0,0-.81-1,1.11,1.11,0,0,0-1,1.26v2h-0.76c0-1.28,0-2.61,0-3.84H365c0,0.16,0,.45,0,0.63h0" transform="translate(-2.77 -2.48)"/><path class="cls-3" d="M373.27,111.93a1.39,1.39,0,1,0-1.28-1.39,1.24,1.24,0,0,0,1.28,1.39m0-3.41a2,2,0,1,1-2.07,2A1.9,1.9,0,0,1,373.27,108.52Z" transform="translate(-2.77 -2.48)"/><path class="cls-3" d="M379.8,108.62c0,1.28,0,2.61,0,3.84h-0.72c0-.16,0-0.49,0-0.63a1.41,1.41,0,0,1-1.26.74,1.36,1.36,0,0,1-1.43-1.56v-2.38h0.76v2.12c0,0.68.19,1.18,0.87,1.18a1.11,1.11,0,0,0,1-1.26v-2h0.76" transform="translate(-2.77 -2.48)"/><path class="cls-3" d="M381.12,112.46c0-1.28,0-2.61,0-3.84h0.72c0,0.16,0,.45,0,0.63h0a1.34,1.34,0,0,1,1.25-.74,1.36,1.36,0,0,1,1.43,1.56v2.38h-0.76v-2.13c0-.68-0.19-1.17-0.87-1.17a1.11,1.11,0,0,0-1,1.26v2h-0.76" transform="translate(-2.77 -2.48)"/><path class="cls-3" d="M387.05,112.53a1,1,0,0,1-1.12-1.2v-2.08H385.2v-0.62h0.74v-1.1h0.75v1.1h1v0.62h-1v2c0,0.44.13,0.64,0.54,0.65a1.09,1.09,0,0,0,.45-0.1l0,0.62a1.94,1.94,0,0,1-.65.11" transform="translate(-2.77 -2.48)"/><path class="cls-3" d="M391.73,112.53a1,1,0,0,1-1.12-1.2v-2.08h-0.74v-0.62h0.74v-1.1h0.75v1.1h1v0.62h-1v2c0,0.44.13,0.64,0.54,0.65a1.09,1.09,0,0,0,.45-0.1l0,0.62a1.94,1.94,0,0,1-.65.11" transform="translate(-2.77 -2.48)"/><path class="cls-3" d="M395,111.93a1.39,1.39,0,1,0-1.28-1.39,1.24,1.24,0,0,0,1.28,1.39m0-3.41a2,2,0,1,1-2.07,2A1.9,1.9,0,0,1,395,108.52Z" transform="translate(-2.77 -2.48)"/><path class="cls-3" d="M360.54,123a1.39,1.39,0,0,0,0-2.78,1.39,1.39,0,0,0,0,2.78m0.13,0.64a1.62,1.62,0,0,1-1.39-.71h0v0.61h-0.74v-6.12h0.76v2.86h0a1.6,1.6,0,0,1,1.37-.68A2,2,0,0,1,360.67,123.59Z" transform="translate(-2.77 -2.48)"/><path class="cls-3" d="M365.4,119.54c1.3,0,1.9.87,1.84,2.25h-3a1.2,1.2,0,0,0,1.25,1.17,1.28,1.28,0,0,0,1.12-.58l0.53,0.43a1.92,1.92,0,0,1-1.65.79,2,2,0,0,1,0-4m1.08,1.68a1.07,1.07,0,0,0-1.54-1,1.12,1.12,0,0,0-.75,1h2.28Z" transform="translate(-2.77 -2.48)"/><path class="cls-3" d="M372.32,123a1.39,1.39,0,0,0,0-2.78,1.39,1.39,0,0,0,0,2.78m0.13,0.64a1.59,1.59,0,0,1-1.35-.68h0v2.52h-0.76v-5.78h0.75v0.6h0a1.54,1.54,0,0,1,1.39-.7A2,2,0,0,1,372.45,123.59Z" transform="translate(-2.77 -2.48)"/><path class="cls-3" d="M376.72,123a1.09,1.09,0,0,0,1.11-1.33c-0.83,0-1.9,0-1.9.73a0.65,0.65,0,0,0,.79.6m-1.56-.58c0-1.24,1.4-1.26,2.67-1.3a0.83,0.83,0,0,0-.95-0.95,1.6,1.6,0,0,0-1.09.45l-0.4-.49a2.26,2.26,0,0,1,1.57-.58,1.42,1.42,0,0,1,1.6,1.51,23.92,23.92,0,0,0,.06,2.44h-0.69a2.56,2.56,0,0,1-.06-0.55h0a1.47,1.47,0,0,1-1.29.65A1.19,1.19,0,0,1,375.16,122.4Z" transform="translate(-2.77 -2.48)"/><path class="cls-3" d="M380.22,117.77a0.5,0.5,0,0,1,.51.49,0.51,0.51,0,1,1-.51-0.49m0.38,5.72h-0.76v-3.84h0.76v3.84Z" transform="translate(-2.77 -2.48)"/><path class="cls-3" d="M383.74,120.17a1.39,1.39,0,0,0,0,2.78,1.39,1.39,0,0,0,0-2.78m-0.14-.63a1.7,1.7,0,0,1,1.39.68v-2.86h0.76v6.12H385a3.73,3.73,0,0,0,0-.61,1.6,1.6,0,0,1-1.39.71,1.84,1.84,0,0,1-1.94-2A1.86,1.86,0,0,1,383.6,119.54Z" transform="translate(-2.77 -2.48)"/><path class="cls-1" d="M484,83.93a6.29,6.29,0,0,1,6.3,6.3v50.4a6.29,6.29,0,0,1-6.3,6.3h-68.4a6.32,6.32,0,0,1-6.3-6.3V90.23a6.32,6.32,0,0,1,6.3-6.3H484Z" transform="translate(-2.77 -2.48)"/><path class="cls-2" d="M484,83.93a6.29,6.29,0,0,1,6.3,6.3v50.4a6.29,6.29,0,0,1-6.3,6.3h-68.4a6.32,6.32,0,0,1-6.3-6.3V90.23a6.32,6.32,0,0,1,6.3-6.3H484Z" transform="translate(-2.77 -2.48)"/><line class="cls-2" x1="406.57" y1="103.95" x2="487.57" y2="103.95"/><path class="cls-3" d="M420.33,95.79c0-1,0-2,0-2.88l-1.81,2.88h1.83m0.76,0h0.83v0.67h-0.83v1.29h-0.76V96.46h-2.64V95.75L420.13,92h1v3.77Z" transform="translate(-2.77 -2.48)"/><path class="cls-3" d="M417.94,119.47c0-1.43,1.6-1.93,2.91-1.46a1.65,1.65,0,0,1,.7.48L421,119a1.38,1.38,0,0,0-1.12-.53,1,1,0,0,0-1,1.32c0.45,0.66,1.61.61,2.21,1.12a1.44,1.44,0,0,1,.55,1.17c0,1.54-1.67,2.07-3,1.53a2,2,0,0,1-.83-0.62l0.62-.53a1.6,1.6,0,0,0,1.28.67,1,1,0,0,0,1-1.42c-0.4-.71-1.68-0.61-2.27-1.17a1.44,1.44,0,0,1-.47-1.12" transform="translate(-2.77 -2.48)"/><path class="cls-3" d="M424.44,119.77c1.3,0,1.9.87,1.84,2.25h-3a1.2,1.2,0,0,0,1.25,1.17,1.28,1.28,0,0,0,1.12-.58l0.53,0.43a1.92,1.92,0,0,1-1.65.79,2,2,0,0,1,0-4m1.08,1.68a1.07,1.07,0,0,0-1.54-1,1.12,1.12,0,0,0-.75,1h2.28Z" transform="translate(-2.77 -2.48)"/><path class="cls-3" d="M428.57,123.78a1,1,0,0,1-1.12-1.2V120.5h-0.74v-0.62h0.74v-1.1h0.75v1.1h1v0.62h-1v2c0,0.44.13,0.64,0.54,0.65a1.09,1.09,0,0,0,.45-0.1l0,0.62a1.94,1.94,0,0,1-.65.11" transform="translate(-2.77 -2.48)"/><path class="cls-3" d="M431.11,123.78a1,1,0,0,1-1.12-1.2V120.5h-0.74v-0.62H430v-1.1h0.75v1.1h1v0.62h-1v2c0,0.44.13,0.64,0.54,0.65a1.09,1.09,0,0,0,.45-0.1l0,0.62a1.94,1.94,0,0,1-.65.11" transform="translate(-2.77 -2.48)"/><polyline class="cls-3" points="430.57 121.23 429.81 121.23 429.81 118.17 429.81 115.11 430.57 115.11 430.57 118.17 430.57 121.23"/><path class="cls-3" d="M436.39,119.77c1.3,0,1.9.87,1.84,2.25h-3a1.2,1.2,0,0,0,1.25,1.17,1.28,1.28,0,0,0,1.12-.58l0.53,0.43a1.92,1.92,0,0,1-1.65.79,2,2,0,0,1,0-4m1.08,1.68a1.07,1.07,0,0,0-1.54-1,1.12,1.12,0,0,0-.75,1h2.28Z" transform="translate(-2.77 -2.48)"/><path class="cls-3" d="M442.54,123.78a1,1,0,0,1-1.12-1.2V120.5h-0.74v-0.62h0.74v-1.1h0.75v1.1h1v0.62h-1v2c0,0.44.13,0.64,0.54,0.65a1.09,1.09,0,0,0,.45-0.1l0,0.62a1.94,1.94,0,0,1-.65.11" transform="translate(-2.77 -2.48)"/><path class="cls-3" d="M444,123.71c0-1.28,0-2.61,0-3.84h0.72c0,0.16,0,.48,0,0.65h0a1.3,1.3,0,0,1,1.47-.72l0,0.7a1.1,1.1,0,0,0-1.43,1.19v2H444" transform="translate(-2.77 -2.48)"/><path class="cls-3" d="M448.09,123.21a1.09,1.09,0,0,0,1.11-1.33c-0.83,0-1.9,0-1.9.73a0.65,0.65,0,0,0,.79.6m-1.56-.58c0-1.24,1.4-1.26,2.67-1.3a0.83,0.83,0,0,0-.95-0.95,1.6,1.6,0,0,0-1.09.45l-0.4-.49a2.26,2.26,0,0,1,1.57-.58,1.42,1.42,0,0,1,1.6,1.51,23.92,23.92,0,0,0,.06,2.44H449.3a2.56,2.56,0,0,1-.06-0.55h0a1.47,1.47,0,0,1-1.29.65A1.19,1.19,0,0,1,446.52,122.63Z" transform="translate(-2.77 -2.48)"/><path class="cls-3" d="M451.2,123.71c0-1.28,0-2.61,0-3.84h0.72c0,0.16,0,.45,0,0.63h0a1.34,1.34,0,0,1,1.25-.74,1.36,1.36,0,0,1,1.43,1.56v2.38h-0.76v-2.13c0-.68-0.19-1.17-0.87-1.17a1.11,1.11,0,0,0-1,1.26v2H451.2" transform="translate(-2.77 -2.48)"/><path class="cls-3" d="M455.78,121.4c-0.5-1.26.95-2,2.14-1.47a1.3,1.3,0,0,1,.6.47l-0.53.45a1,1,0,0,0-.89-0.48,0.58,0.58,0,0,0-.71.5c0,0.59.92,0.51,1.39,0.73a1.08,1.08,0,0,1,.78,1c0.06,1.56-2.45,1.51-3.08.55l0.54-.46a1.24,1.24,0,0,0,1,.53,0.62,0.62,0,0,0,.76-0.56c0-.73-1.27-0.51-1.76-0.95a0.84,0.84,0,0,1-.26-0.3" transform="translate(-2.77 -2.48)"/><path class="cls-3" d="M460.79,123.21a1.09,1.09,0,0,0,1.11-1.33c-0.83,0-1.9,0-1.9.73a0.65,0.65,0,0,0,.79.6m-1.56-.58c0-1.24,1.4-1.26,2.67-1.3a0.83,0.83,0,0,0-.95-0.95,1.6,1.6,0,0,0-1.09.45l-0.4-.49a2.26,2.26,0,0,1,1.57-.58,1.42,1.42,0,0,1,1.6,1.51,23.92,23.92,0,0,0,.06,2.44H462a2.56,2.56,0,0,1-.06-0.55h0a1.47,1.47,0,0,1-1.29.65A1.19,1.19,0,0,1,459.23,122.63Z" transform="translate(-2.77 -2.48)"/><path class="cls-3" d="M463.65,121.79a1.88,1.88,0,0,1,2-2,1.82,1.82,0,0,1,1.44.63l-0.55.45a1.05,1.05,0,0,0-.88-0.44,1.39,1.39,0,0,0,0,2.77,1.1,1.1,0,0,0,.92-0.42l0.51,0.46a1.77,1.77,0,0,1-1.43.6,1.9,1.9,0,0,1-2.07-2" transform="translate(-2.77 -2.48)"/><path class="cls-3" d="M469.12,123.78a1,1,0,0,1-1.12-1.2V120.5h-0.74v-0.62H468v-1.1h0.75v1.1h1v0.62h-1v2c0,0.44.13,0.64,0.54,0.65a1.09,1.09,0,0,0,.45-0.1l0,0.62a1.94,1.94,0,0,1-.65.11" transform="translate(-2.77 -2.48)"/><path class="cls-3" d="M471,118a0.5,0.5,0,0,1,.51.49A0.51,0.51,0,1,1,471,118m0.38,5.72h-0.76v-3.84h0.76v3.84Z" transform="translate(-2.77 -2.48)"/><path class="cls-3" d="M474.48,123.18a1.39,1.39,0,1,0-1.28-1.39,1.24,1.24,0,0,0,1.28,1.39m0-3.41a2,2,0,1,1-2.07,2A1.9,1.9,0,0,1,474.48,119.77Z" transform="translate(-2.77 -2.48)"/><path class="cls-3" d="M477.6,123.71c0-1.28,0-2.61,0-3.84h0.72c0,0.16,0,.45,0,0.63h0a1.34,1.34,0,0,1,1.25-.74,1.36,1.36,0,0,1,1.43,1.56v2.38h-0.76v-2.13c0-.68-0.19-1.17-0.87-1.17a1.11,1.11,0,0,0-1,1.26v2H477.6" transform="translate(-2.77 -2.48)"/><path class="cls-3" d="M419.38,134.28a1.09,1.09,0,0,0,1.11-1.33c-0.83,0-1.9,0-1.9.73a0.65,0.65,0,0,0,.79.6m-1.56-.58c0-1.24,1.4-1.26,2.67-1.3a0.83,0.83,0,0,0-.95-0.95,1.6,1.6,0,0,0-1.09.45l-0.4-.49a2.26,2.26,0,0,1,1.57-.58,1.42,1.42,0,0,1,1.6,1.51,23.92,23.92,0,0,0,.06,2.44h-0.69a2.56,2.56,0,0,1-.06-0.55h0a1.47,1.47,0,0,1-1.29.65A1.19,1.19,0,0,1,417.81,133.7Z" transform="translate(-2.77 -2.48)"/><path class="cls-3" d="M422.49,134.78c0-1.28,0-2.61,0-3.84h0.72c0,0.16,0,.45,0,0.63h0a1.34,1.34,0,0,1,1.25-.74,1.36,1.36,0,0,1,1.43,1.56v2.38h-0.76v-2.13c0-.68-0.19-1.17-0.87-1.17a1.11,1.11,0,0,0-1,1.26v2h-0.76" transform="translate(-2.77 -2.48)"/><path class="cls-3" d="M429,131.47a1.39,1.39,0,0,0,0,2.78,1.39,1.39,0,0,0,0-2.78m-0.14-.63a1.7,1.7,0,0,1,1.39.68v-2.86H431v6.12h-0.74a3.73,3.73,0,0,0,0-.61,1.6,1.6,0,0,1-1.39.71,1.84,1.84,0,0,1-1.94-2A1.86,1.86,0,0,1,428.87,130.84Z" transform="translate(-2.77 -2.48)"/><path class="cls-3" d="M434.73,129.06a0.5,0.5,0,0,1,.51.49,0.51,0.51,0,1,1-.51-0.49m0.38,5.72h-0.76v-3.84h0.76v3.84Z" transform="translate(-2.77 -2.48)"/><path class="cls-3" d="M436.3,132.47c-0.5-1.26.95-2,2.14-1.47a1.3,1.3,0,0,1,.6.47l-0.53.45a1,1,0,0,0-.89-0.48,0.58,0.58,0,0,0-.71.5c0,0.59.92,0.51,1.39,0.73a1.08,1.08,0,0,1,.78,1c0.06,1.56-2.45,1.51-3.08.55l0.54-.46a1.24,1.24,0,0,0,1,.53,0.62,0.62,0,0,0,.76-0.56c0-.73-1.27-0.51-1.76-0.95a0.84,0.84,0,0,1-.26-0.3" transform="translate(-2.77 -2.48)"/><path class="cls-3" d="M439.9,132.47c-0.5-1.26.95-2,2.14-1.47a1.3,1.3,0,0,1,.6.47l-0.53.45a1,1,0,0,0-.89-0.48,0.58,0.58,0,0,0-.71.5c0,0.59.92,0.51,1.39,0.73a1.08,1.08,0,0,1,.78,1c0.06,1.56-2.45,1.51-3.08.55l0.54-.46a1.24,1.24,0,0,0,1,.53,0.62,0.62,0,0,0,.76-0.56c0-.73-1.27-0.51-1.76-0.95a0.84,0.84,0,0,1-.26-0.3" transform="translate(-2.77 -2.48)"/><path class="cls-3" d="M447,130.94c0,1.28,0,2.61,0,3.84h-0.72c0-.16,0-0.49,0-0.63a1.41,1.41,0,0,1-1.26.74,1.36,1.36,0,0,1-1.43-1.56v-2.38h0.76v2.12c0,0.68.19,1.18,0.87,1.18a1.11,1.11,0,0,0,1-1.26v-2H447" transform="translate(-2.77 -2.48)"/><path class="cls-3" d="M450.08,130.84c1.3,0,1.9.87,1.84,2.25h-3a1.2,1.2,0,0,0,1.25,1.17,1.28,1.28,0,0,0,1.12-.58l0.53,0.43a1.92,1.92,0,0,1-1.65.79,2,2,0,0,1,0-4m1.08,1.68a1.07,1.07,0,0,0-1.54-1,1.12,1.12,0,0,0-.75,1h2.28Z" transform="translate(-2.77 -2.48)"/><path class="cls-3" d="M455,134.78c0-1.28,0-2.61,0-3.84h0.72c0,0.16,0,.48,0,0.65h0a1.3,1.3,0,0,1,1.47-.72l0,0.7a1.1,1.1,0,0,0-1.43,1.19v2H455" transform="translate(-2.77 -2.48)"/><path class="cls-3" d="M459.52,130.84c1.3,0,1.9.87,1.84,2.25h-3a1.2,1.2,0,0,0,1.25,1.17,1.28,1.28,0,0,0,1.12-.58l0.53,0.43a1.92,1.92,0,0,1-1.65.79,2,2,0,0,1,0-4m1.08,1.68a1.07,1.07,0,0,0-1.54-1,1.12,1.12,0,0,0-.75,1h2.28Z" transform="translate(-2.77 -2.48)"/><path class="cls-3" d="M462.17,132.86a1.88,1.88,0,0,1,2-2,1.82,1.82,0,0,1,1.44.63l-0.55.45a1.05,1.05,0,0,0-.88-0.44,1.39,1.39,0,0,0,0,2.77,1.1,1.1,0,0,0,.92-0.42l0.51,0.46a1.77,1.77,0,0,1-1.43.6,1.9,1.9,0,0,1-2.07-2" transform="translate(-2.77 -2.48)"/><path class="cls-3" d="M468.16,130.84c1.3,0,1.9.87,1.84,2.25h-3a1.2,1.2,0,0,0,1.25,1.17,1.28,1.28,0,0,0,1.12-.58l0.53,0.43a1.92,1.92,0,0,1-1.65.79,2,2,0,0,1,0-4m1.08,1.68a1.07,1.07,0,0,0-1.54-1,1.12,1.12,0,0,0-.75,1h2.28Z" transform="translate(-2.77 -2.48)"/><path class="cls-3" d="M471.46,129.06a0.5,0.5,0,0,1,.51.49,0.51,0.51,0,1,1-.51-0.49m0.38,5.72h-0.76v-3.84h0.76v3.84Z" transform="translate(-2.77 -2.48)"/><path class="cls-3" d="M475.17,134.25a1.39,1.39,0,0,0,0-2.78,1.39,1.39,0,0,0,0,2.78m0.13,0.64a1.59,1.59,0,0,1-1.35-.68h0v2.52h-0.76v-5.78h0.75v0.6h0a1.54,1.54,0,0,1,1.39-.7A2,2,0,0,1,475.3,134.89Z" transform="translate(-2.77 -2.48)"/><path class="cls-3" d="M479.52,134.85a1,1,0,0,1-1.12-1.2v-2.08h-0.74v-0.62h0.74v-1.1h0.75v1.1h1v0.62h-1v2c0,0.44.13,0.64,0.54,0.65a1.09,1.09,0,0,0,.45-0.1l0,0.62a1.94,1.94,0,0,1-.65.11" transform="translate(-2.77 -2.48)"/><path class="cls-1" d="M409.16,5.18a2.26,2.26,0,0,1,2.25-2.25h72.45a2.23,2.23,0,0,1,2.25,2.25v29.7a2.23,2.23,0,0,1-2.25,2.25H411.41a2.26,2.26,0,0,1-2.25-2.25V5.18Z" transform="translate(-2.77 -2.48)"/><path class="cls-2" d="M409.16,5.18a2.26,2.26,0,0,1,2.25-2.25h72.45a2.23,2.23,0,0,1,2.25,2.25v29.7a2.23,2.23,0,0,1-2.25,2.25H411.41a2.26,2.26,0,0,1-2.25-2.25V5.18Z" transform="translate(-2.77 -2.48)"/><path class="cls-1" d="M413.21,7a2.26,2.26,0,0,1,2.25-2.25h72.45A2.23,2.23,0,0,1,490.16,7v29.7a2.23,2.23,0,0,1-2.25,2.25H415.46a2.26,2.26,0,0,1-2.25-2.25V7Z" transform="translate(-2.77 -2.48)"/><path class="cls-2" d="M413.21,7a2.26,2.26,0,0,1,2.25-2.25h72.45A2.23,2.23,0,0,1,490.16,7v29.7a2.23,2.23,0,0,1-2.25,2.25H415.46a2.26,2.26,0,0,1-2.25-2.25V7Z" transform="translate(-2.77 -2.48)"/><path class="cls-3" d="M424.17,21.38a2.08,2.08,0,0,1-2.23,2.27,2.06,2.06,0,0,1-2.23-2.27V17.76h0.8v3.56a1.43,1.43,0,1,0,2.85,0V17.76h0.8v3.61" transform="translate(-2.77 -2.48)"/><path class="cls-3" d="M425.35,21.18c-0.5-1.26.95-2,2.14-1.47a1.3,1.3,0,0,1,.6.47l-0.53.45a1,1,0,0,0-.89-0.48,0.58,0.58,0,0,0-.71.5c0,0.59.92,0.51,1.39,0.73a1.08,1.08,0,0,1,.78,1c0.06,1.56-2.45,1.51-3.08.55l0.54-.46a1.24,1.24,0,0,0,1,.53,0.62,0.62,0,0,0,.76-0.56c0-.73-1.27-0.51-1.76-0.95a0.84,0.84,0,0,1-.26-0.3" transform="translate(-2.77 -2.48)"/><path class="cls-3" d="M430.81,19.55c1.3,0,1.9.87,1.84,2.25h-3A1.2,1.2,0,0,0,430.85,23a1.28,1.28,0,0,0,1.12-.58l0.53,0.43a1.92,1.92,0,0,1-1.65.79,1.86,1.86,0,0,1-2-2,1.86,1.86,0,0,1,2-2m1.08,1.68a1.07,1.07,0,0,0-1.54-1,1.12,1.12,0,0,0-.75,1h2.28Z" transform="translate(-2.77 -2.48)"/><path class="cls-3" d="M433.72,23.5c0-1.28,0-2.61,0-3.84h0.72c0,0.16,0,.48,0,0.65h0a1.3,1.3,0,0,1,1.47-.72l0,0.7a1.1,1.1,0,0,0-1.43,1.19v2h-0.76" transform="translate(-2.77 -2.48)"/><line class="cls-2" x1="428.67" y1="36.72" x2="428.85" y2="81.05"/><rect class="cls-3" x="428.22" y="36.45" width="0.9" height="0.27"/><polygon class="cls-3" points="428.85 81.05 426.74 74.66 430.92 74.61 428.85 81.05"/><path class="cls-3" d="M430.13,77.59l1.49,4.5,1.44-4.54ZM432,83.93h-0.72l-2.39-7.24,5.4,0Z" transform="translate(-2.77 -2.48)"/><rect class="cls-4" x="412.69" y="53.32" width="32.08" height="11.07"/><path class="cls-3" d="M419.15,59.77c0-1-1.15-.92-2.19-0.92v1.85c1,0,2.19.09,2.19-.94m0.81,0c0,1.51-1.39,1.69-3,1.62v2.52h-0.8V58.17h1.75C419.1,58.19,420,58.59,420,59.77Z" transform="translate(-2.77 -2.48)"/><path class="cls-3" d="M421.76,63.41a1.09,1.09,0,0,0,1.11-1.33c-0.83,0-1.9,0-1.9.73a0.65,0.65,0,0,0,.79.6m-1.56-.58c0-1.24,1.4-1.26,2.67-1.3a0.83,0.83,0,0,0-.95-0.95,1.6,1.6,0,0,0-1.09.45l-0.4-.49A2.26,2.26,0,0,1,422,60a1.42,1.42,0,0,1,1.6,1.51,23.92,23.92,0,0,0,.06,2.44H423a2.56,2.56,0,0,1-.06-0.55h0a1.47,1.47,0,0,1-1.29.65A1.19,1.19,0,0,1,420.2,62.82Z" transform="translate(-2.77 -2.48)"/><path class="cls-3" d="M425.14,60.07c0.41,1,.78,2,1.21,3l1.06-3h0.81l-1.86,4.75a1.4,1.4,0,0,1-1.83,1l0.07-.67a0.79,0.79,0,0,0,.83-0.1,4.73,4.73,0,0,0,.51-1.12l-1.64-3.84h0.85" transform="translate(-2.77 -2.48)"/><path class="cls-3" d="M429.7,60.7a1.34,1.34,0,0,1,1.22-.74,1.2,1.2,0,0,1,1.19.77,1.41,1.41,0,0,1,1.3-.77,1.36,1.36,0,0,1,1.43,1.56v2.38h-0.76V61.78c0-.66-0.19-1.17-0.85-1.17-1.39,0-.87,2-1,3.3h-0.76V61.62a0.83,0.83,0,0,0-.81-1,1.11,1.11,0,0,0-1,1.26v2H429c0-1.28,0-2.61,0-3.84h0.72c0,0.16,0,.45,0,0.63h0" transform="translate(-2.77 -2.48)"/><path class="cls-3" d="M437.87,60c1.3,0,1.9.87,1.84,2.25h-3a1.2,1.2,0,0,0,1.25,1.17A1.28,1.28,0,0,0,439,62.8l0.53,0.43a1.92,1.92,0,0,1-1.65.79,2,2,0,0,1,0-4M439,61.65a1.07,1.07,0,0,0-1.54-1,1.12,1.12,0,0,0-.75,1H439Z" transform="translate(-2.77 -2.48)"/><path class="cls-3" d="M440.78,63.91c0-1.28,0-2.61,0-3.84h0.72c0,0.16,0,.45,0,0.63h0a1.34,1.34,0,0,1,1.25-.74,1.36,1.36,0,0,1,1.43,1.56v2.38h-0.76V61.78c0-.68-0.19-1.17-0.87-1.17a1.11,1.11,0,0,0-1,1.26v2h-0.76" transform="translate(-2.77 -2.48)"/><path class="cls-3" d="M446.72,64a1,1,0,0,1-1.12-1.2V60.69h-0.74V60.07h0.74V59h0.75v1.1h1v0.62h-1v2c0,0.44.13,0.64,0.54,0.65a1.09,1.09,0,0,0,.45-0.1l0,0.62a1.94,1.94,0,0,1-.65.11" transform="translate(-2.77 -2.48)"/><line class="cls-2" x1="467.91" y1="81.05" x2="467.73" y2="36.72"/><rect class="cls-3" x="467.46" y="81.05" width="0.9" height="0.4"/><polygon class="cls-3" points="469.85 43.11 465.66 43.16 467.73 36.72 469.85 43.11"/><path class="cls-3" d="M469.06,45.19l2.92,0-1.48-4.5ZM473.2,46l-5.4,0,2.3-7.16h0.76Z" transform="translate(-2.77 -2.48)"/><rect class="cls-4" x="453.73" y="53.32" width="28.08" height="11.07"/><path class="cls-3" d="M460.27,59.76c0-1-1.21-.91-2.27-0.91v1.83c1.06,0,2.27.11,2.27-.92m0.81,0a1.53,1.53,0,0,1-1.39,1.51l1.6,2.63h-1l-1.46-2.55H458v2.55h-0.8V58.17C459,58.16,461.08,57.92,461.08,59.76Z" transform="translate(-2.77 -2.48)"/><path class="cls-3" d="M463.77,60c1.3,0,1.9.87,1.84,2.25h-3a1.2,1.2,0,0,0,1.25,1.17,1.28,1.28,0,0,0,1.12-.58l0.53,0.43a1.92,1.92,0,0,1-1.65.79,2,2,0,0,1,0-4m1.08,1.68a1.07,1.07,0,0,0-1.54-1,1.12,1.12,0,0,0-.75,1h2.28Z" transform="translate(-2.77 -2.48)"/><path class="cls-3" d="M466.42,62a1.88,1.88,0,0,1,2-2,1.82,1.82,0,0,1,1.44.63l-0.55.45a1.05,1.05,0,0,0-.88-0.44,1.39,1.39,0,0,0,0,2.77,1.1,1.1,0,0,0,.92-0.42l0.51,0.46a1.77,1.77,0,0,1-1.43.6,1.9,1.9,0,0,1-2.07-2" transform="translate(-2.77 -2.48)"/><path class="cls-3" d="M472.41,60c1.3,0,1.9.87,1.84,2.25h-3a1.2,1.2,0,0,0,1.25,1.17,1.28,1.28,0,0,0,1.12-.58l0.53,0.43a1.92,1.92,0,0,1-1.65.79,2,2,0,0,1,0-4m1.08,1.68a1.07,1.07,0,0,0-1.54-1,1.12,1.12,0,0,0-.75,1h2.28Z" transform="translate(-2.77 -2.48)"/><path class="cls-3" d="M475.71,58.19a0.5,0.5,0,0,1,.51.49,0.51,0.51,0,1,1-.51-0.49m0.38,5.72h-0.76V60.07h0.76v3.84Z" transform="translate(-2.77 -2.48)"/><path class="cls-3" d="M479.42,63.37a1.39,1.39,0,0,0,0-2.78,1.39,1.39,0,0,0,0,2.78M479.55,64a1.59,1.59,0,0,1-1.35-.68h0v2.52h-0.76V60.07h0.75v0.6h0a1.54,1.54,0,0,1,1.39-.7A2,2,0,0,1,479.55,64Z" transform="translate(-2.77 -2.48)"/><path class="cls-3" d="M483.77,64a1,1,0,0,1-1.12-1.2V60.69h-0.74V60.07h0.74V59h0.75v1.1h1v0.62h-1v2c0,0.44.13,0.64,0.54,0.65a1.09,1.09,0,0,0,.45-0.1l0,0.62a1.94,1.94,0,0,1-.65.11" transform="translate(-2.77 -2.48)"/></svg>