<svg id="Layer_1" data-name="Layer 1" xmlns="http://www.w3.org/2000/svg" viewBox="0 0 535.48 171.9"><defs><style>.cls-1{fill:none;stroke:#3d4752;stroke-miterlimit:10;stroke-width:0.9px;}.cls-2{fill:#3d4752;}.cls-3{fill:#fcd1a5;}.cls-4{fill:#fff;}</style></defs><title>data-flow-diagram-2</title><line class="cls-1" x1="185.22" y1="32.4" x2="185.35" y2="96.75"/><path class="cls-2" d="M189.22,35.5h-0.9V34.6h0.9v0.9Zm0,0.45h-0.9V35.5h0.9V36Z" transform="translate(-3.55 -3.55)"/><polygon class="cls-2" points="185.35 96.75 183.24 90.31 187.43 90.31 185.35 96.75"/><path class="cls-2" d="M187.42,94.32l1.49,4.5,1.44-4.5h-2.93Zm1.8,6.43h-0.63l-2.43-7.33h5.44Z" transform="translate(-3.55 -3.55)"/><path class="cls-2" d="M196.1,61c0-1-1.15-.92-2.19-0.92v1.85c1,0,2.19.09,2.19-.94m0.81,0c0,1.51-1.39,1.69-3,1.62v2.52h-0.8V59.38h1.75C196.05,59.39,196.91,59.79,196.91,61Z" transform="translate(-3.55 -3.55)"/><path class="cls-2" d="M197.52,65.11c0-1.28,0-2.61,0-3.84h0.72c0,0.16,0,.48,0,0.65h0a1.3,1.3,0,0,1,1.47-.72l0,0.7a1.1,1.1,0,0,0-1.43,1.19v2h-0.76" transform="translate(-3.55 -3.55)"/><path class="cls-2" d="M202.12,64.58a1.39,1.39,0,1,0-1.28-1.39,1.24,1.24,0,0,0,1.28,1.39m0-3.41a2,2,0,1,1-2.07,2A1.9,1.9,0,0,1,202.12,61.17Z" transform="translate(-3.55 -3.55)"/><path class="cls-2" d="M207.05,61.8a1.39,1.39,0,0,0,0,2.78,1.39,1.39,0,0,0,0-2.78m-0.14-.63a1.7,1.7,0,0,1,1.39.68V59h0.76v6.12h-0.74a3.73,3.73,0,0,0,0-.61,1.6,1.6,0,0,1-1.39.71,1.84,1.84,0,0,1-1.94-2A1.86,1.86,0,0,1,206.91,61.17Z" transform="translate(-3.55 -3.55)"/><path class="cls-2" d="M213.78,61.27c0,1.28,0,2.61,0,3.84h-0.72c0-.16,0-0.49,0-0.63a1.41,1.41,0,0,1-1.26.74,1.36,1.36,0,0,1-1.43-1.56V61.27h0.76v2.12c0,0.68.19,1.18,0.87,1.18a1.11,1.11,0,0,0,1-1.26v-2h0.76" transform="translate(-3.55 -3.55)"/><path class="cls-2" d="M214.85,63.19a1.88,1.88,0,0,1,2-2,1.82,1.82,0,0,1,1.44.63l-0.55.45a1.05,1.05,0,0,0-.88-0.44,1.39,1.39,0,0,0,0,2.77,1.1,1.1,0,0,0,.92-0.42l0.51,0.46a1.77,1.77,0,0,1-1.43.6,1.9,1.9,0,0,1-2.07-2" transform="translate(-3.55 -3.55)"/><path class="cls-2" d="M220.33,65.17a1,1,0,0,1-1.12-1.2V61.89h-0.74V61.27h0.74v-1.1H220v1.1h1v0.62h-1v2c0,0.44.13,0.64,0.54,0.65a1.09,1.09,0,0,0,.45-0.1l0,0.62a1.94,1.94,0,0,1-.65.11" transform="translate(-3.55 -3.55)"/><path class="cls-2" d="M225.57,61.8a1.39,1.39,0,0,0,0,2.78,1.39,1.39,0,0,0,0-2.78m-0.14-.63a1.7,1.7,0,0,1,1.39.68V59h0.76v6.12h-0.74a3.73,3.73,0,0,0,0-.61,1.6,1.6,0,0,1-1.39.71,1.84,1.84,0,0,1-1.94-2A1.86,1.86,0,0,1,225.43,61.17Z" transform="translate(-3.55 -3.55)"/><path class="cls-2" d="M230.64,61.17c1.3,0,1.9.87,1.84,2.25h-3a1.2,1.2,0,0,0,1.25,1.17A1.28,1.28,0,0,0,231.8,64l0.53,0.43a1.92,1.92,0,0,1-1.65.79,2,2,0,0,1,0-4m1.08,1.68a1.07,1.07,0,0,0-1.54-1,1.12,1.12,0,0,0-.75,1h2.28Z" transform="translate(-3.55 -3.55)"/><path class="cls-2" d="M233.41,62.79c-0.5-1.26.95-2,2.14-1.47a1.3,1.3,0,0,1,.6.47l-0.53.45a1,1,0,0,0-.89-0.48,0.58,0.58,0,0,0-.71.5c0,0.59.92,0.51,1.39,0.73a1.08,1.08,0,0,1,.78,1c0.06,1.56-2.45,1.51-3.08.55l0.54-.46a1.24,1.24,0,0,0,1,.53,0.62,0.62,0,0,0,.76-0.56c0-.73-1.27-0.51-1.76-0.95a0.84,0.84,0,0,1-.26-0.3" transform="translate(-3.55 -3.55)"/><path class="cls-2" d="M236.89,63.19a1.88,1.88,0,0,1,2-2,1.82,1.82,0,0,1,1.44.63l-0.55.45a1.05,1.05,0,0,0-.88-0.44,1.39,1.39,0,0,0,0,2.77,1.1,1.1,0,0,0,.92-0.42l0.51,0.46a1.77,1.77,0,0,1-1.43.6,1.9,1.9,0,0,1-2.07-2" transform="translate(-3.55 -3.55)"/><path class="cls-2" d="M241.14,65.11c0-1.28,0-2.61,0-3.84h0.72c0,0.16,0,.48,0,0.65h0a1.3,1.3,0,0,1,1.47-.72l0,0.7a1.1,1.1,0,0,0-1.43,1.19v2h-0.76" transform="translate(-3.55 -3.55)"/><path class="cls-2" d="M244.46,59.39a0.5,0.5,0,0,1,.51.49,0.51,0.51,0,1,1-.51-0.49m0.38,5.72h-0.76V61.27h0.76v3.84Z" transform="translate(-3.55 -3.55)"/><path class="cls-2" d="M248.18,64.58a1.39,1.39,0,0,0,0-2.78,1.39,1.39,0,0,0,0,2.78m0.13,0.64a1.59,1.59,0,0,1-1.35-.68h0v2.52h-0.76V61.27h0.75v0.6h0a1.54,1.54,0,0,1,1.39-.7A2,2,0,0,1,248.31,65.22Z" transform="translate(-3.55 -3.55)"/><path class="cls-2" d="M252.53,65.17a1,1,0,0,1-1.12-1.2V61.89h-0.74V61.27h0.74v-1.1h0.75v1.1h1v0.62h-1v2c0,0.44.13,0.64,0.54,0.65a1.09,1.09,0,0,0,.45-0.1l0,0.62a1.94,1.94,0,0,1-.65.11" transform="translate(-3.55 -3.55)"/><path class="cls-2" d="M254.36,59.39a0.5,0.5,0,0,1,.51.49,0.51,0.51,0,1,1-.51-0.49m0.38,5.72H254V61.27h0.76v3.84Z" transform="translate(-3.55 -3.55)"/><path class="cls-2" d="M257.89,64.58a1.39,1.39,0,1,0-1.28-1.39,1.24,1.24,0,0,0,1.28,1.39m0-3.41a2,2,0,1,1-2.07,2A1.9,1.9,0,0,1,257.89,61.17Z" transform="translate(-3.55 -3.55)"/><path class="cls-2" d="M261,65.11c0-1.28,0-2.61,0-3.84h0.72c0,0.16,0,.45,0,0.63h0a1.34,1.34,0,0,1,1.25-.74,1.36,1.36,0,0,1,1.43,1.56v2.38h-0.76V63c0-.68-0.19-1.17-0.87-1.17a1.11,1.11,0,0,0-1,1.26v2H261" transform="translate(-3.55 -3.55)"/><path class="cls-2" d="M194.35,75.63a1.09,1.09,0,0,0,1.11-1.33c-0.83,0-1.9,0-1.9.73a0.65,0.65,0,0,0,.79.6M192.79,75c0-1.24,1.4-1.26,2.67-1.3a0.83,0.83,0,0,0-.95-0.95,1.6,1.6,0,0,0-1.09.45l-0.4-.49a2.26,2.26,0,0,1,1.57-.58,1.42,1.42,0,0,1,1.6,1.51,23.92,23.92,0,0,0,.06,2.44h-0.69a2.56,2.56,0,0,1-.06-0.55h0a1.47,1.47,0,0,1-1.29.65A1.19,1.19,0,0,1,192.79,75Z" transform="translate(-3.55 -3.55)"/><path class="cls-2" d="M197.46,76.14c0-1.28,0-2.61,0-3.84h0.72c0,0.16,0,.45,0,0.63h0a1.34,1.34,0,0,1,1.25-.74,1.36,1.36,0,0,1,1.43,1.56v2.38h-0.76V74c0-.68-0.19-1.17-0.87-1.17a1.11,1.11,0,0,0-1,1.26v2h-0.76" transform="translate(-3.55 -3.55)"/><path class="cls-2" d="M204,72.82a1.39,1.39,0,0,0,0,2.78,1.39,1.39,0,0,0,0-2.78m-0.14-.63a1.7,1.7,0,0,1,1.39.68V70H206v6.12h-0.74a3.73,3.73,0,0,0,0-.61,1.6,1.6,0,0,1-1.39.71,1.84,1.84,0,0,1-1.94-2A1.86,1.86,0,0,1,203.84,72.19Z" transform="translate(-3.55 -3.55)"/><path class="cls-2" d="M211.32,75.6a1.39,1.39,0,0,0,0-2.78,1.39,1.39,0,0,0,0,2.78m0.13,0.64a1.59,1.59,0,0,1-1.35-.68h0v2.52h-0.76V72.3h0.75v0.6h0a1.54,1.54,0,0,1,1.39-.7A2,2,0,0,1,211.45,76.24Z" transform="translate(-3.55 -3.55)"/><path class="cls-2" d="M214.45,76.14c0-1.28,0-2.61,0-3.84h0.72c0,0.16,0,.48,0,0.65h0a1.3,1.3,0,0,1,1.47-.72l0,0.7a1.1,1.1,0,0,0-1.43,1.19v2h-0.76" transform="translate(-3.55 -3.55)"/><path class="cls-2" d="M217.77,70.42a0.5,0.5,0,0,1,.51.49,0.51,0.51,0,1,1-.51-0.49m0.38,5.72h-0.76V72.3h0.76v3.84Z" transform="translate(-3.55 -3.55)"/><path class="cls-2" d="M219.23,74.22a1.88,1.88,0,0,1,2-2,1.82,1.82,0,0,1,1.44.63l-0.55.45a1.05,1.05,0,0,0-.88-0.44,1.39,1.39,0,0,0,0,2.77,1.1,1.1,0,0,0,.92-0.42l0.51,0.46a1.77,1.77,0,0,1-1.43.6,1.9,1.9,0,0,1-2.07-2" transform="translate(-3.55 -3.55)"/><path class="cls-2" d="M225.22,72.19c1.3,0,1.9.87,1.84,2.25h-3a1.2,1.2,0,0,0,1.25,1.17,1.28,1.28,0,0,0,1.12-.58l0.53,0.43a1.92,1.92,0,0,1-1.65.79,2,2,0,0,1,0-4m1.08,1.68a1.07,1.07,0,0,0-1.54-1,1.12,1.12,0,0,0-.75,1h2.28Z" transform="translate(-3.55 -3.55)"/><path class="cls-2" d="M228,73.82c-0.5-1.26.95-2,2.14-1.47a1.3,1.3,0,0,1,.6.47l-0.53.45a1,1,0,0,0-.89-0.48,0.58,0.58,0,0,0-.71.5c0,0.59.92,0.51,1.39,0.73a1.08,1.08,0,0,1,.78,1c0.06,1.56-2.45,1.51-3.08.55l0.54-.46a1.24,1.24,0,0,0,1,.53,0.62,0.62,0,0,0,.76-0.56c0-.73-1.27-0.51-1.76-0.95a0.84,0.84,0,0,1-.26-0.3" transform="translate(-3.55 -3.55)"/><line class="cls-1" x1="173.88" y1="96.75" x2="173.88" y2="32.4"/><rect class="cls-2" x="173.43" y="96.75" width="0.9" height="0.45"/><polygon class="cls-2" points="176 38.84 171.81 38.84 173.88 32.4 176 38.84"/><path class="cls-2" d="M177.79,35.5h-0.68l0.31-1ZM176,41.93h2.93l-1.49-4.54Zm4.14,0.9h-5.4l2.39-7.34h0.68Z" transform="translate(-3.55 -3.55)"/><path class="cls-2" d="M141.86,68.52a2.08,2.08,0,0,1-2.23,2.27,2.06,2.06,0,0,1-2.23-2.27V64.91h0.8v3.56a1.43,1.43,0,1,0,2.85,0V64.91h0.8v3.61" transform="translate(-3.55 -3.55)"/><path class="cls-2" d="M146.2,66.51c0-1-1.15-.92-2.19-0.92v1.85c1,0,2.19.09,2.19-.94m0.81,0c0,1.51-1.39,1.69-3,1.62v2.52h-0.8V64.91H145C146.15,64.93,147,65.32,147,66.51Z" transform="translate(-3.55 -3.55)"/><path class="cls-2" d="M150.77,70.08a1.78,1.78,0,0,0,1.54-.76l0.64,0.44a2.57,2.57,0,0,1-2.19,1A2.87,2.87,0,0,1,148,69a3.44,3.44,0,0,1,0-2.45,3,3,0,0,1,3.42-1.73,2.23,2.23,0,0,1,1.47.83l-0.63.49a1.73,1.73,0,0,0-1.43-.67,2.1,2.1,0,0,0-2.18,2.3,2.06,2.06,0,0,0,2.15,2.31" transform="translate(-3.55 -3.55)"/><path class="cls-2" d="M155.47,68.73a1.88,1.88,0,0,1,2-2,1.82,1.82,0,0,1,1.44.63l-0.55.45a1.05,1.05,0,0,0-.88-0.44,1.39,1.39,0,0,0,0,2.77,1.1,1.1,0,0,0,.92-0.42L159,70.15a1.77,1.77,0,0,1-1.43.6,1.9,1.9,0,0,1-2.07-2" transform="translate(-3.55 -3.55)"/><path class="cls-2" d="M161.54,70.11a1.39,1.39,0,1,0-1.28-1.39,1.24,1.24,0,0,0,1.28,1.39m0-3.41a2,2,0,1,1-2.07,2A1.9,1.9,0,0,1,161.54,66.7Z" transform="translate(-3.55 -3.55)"/><path class="cls-2" d="M166.47,67.33a1.39,1.39,0,0,0,0,2.78,1.39,1.39,0,0,0,0-2.78m-0.14-.63a1.7,1.7,0,0,1,1.39.68V64.52h0.76v6.12h-0.74a3.73,3.73,0,0,0,0-.61,1.6,1.6,0,0,1-1.39.71,1.84,1.84,0,0,1-1.94-2A1.86,1.86,0,0,1,166.33,66.7Z" transform="translate(-3.55 -3.55)"/><path class="cls-2" d="M171.54,66.7c1.3,0,1.9.87,1.84,2.25h-3a1.2,1.2,0,0,0,1.25,1.17,1.28,1.28,0,0,0,1.12-.58L173.23,70a1.92,1.92,0,0,1-1.65.79,2,2,0,0,1,0-4m1.08,1.68a1.07,1.07,0,0,0-1.54-1,1.12,1.12,0,0,0-.75,1h2.28Z" transform="translate(-3.55 -3.55)"/><line class="cls-1" x1="319.5" y1="32.4" x2="319.5" y2="96.75"/><path class="cls-2" d="M323.5,35.5h-0.9V34.6h0.9v0.9Zm0,0.45h-0.9V35.5h0.9V36Z" transform="translate(-3.55 -3.55)"/><polygon class="cls-2" points="319.5 96.75 317.43 90.31 321.62 90.31 319.5 96.75"/><path class="cls-2" d="M321.61,94.32l1.44,4.5,1.48-4.5h-2.92Zm1.8,6.43h-0.67l-2.39-7.33h5.44Z" transform="translate(-3.55 -3.55)"/><path class="cls-2" d="M274.58,61c0-1-1.15-.92-2.19-0.92v1.85c1,0,2.19.09,2.19-.94m0.81,0c0,1.51-1.39,1.69-3,1.62v2.52h-0.8V59.38h1.75C274.54,59.39,275.39,59.79,275.39,61Z" transform="translate(-3.55 -3.55)"/><path class="cls-2" d="M276,65.11c0-1.28,0-2.61,0-3.84h0.72c0,0.16,0,.48,0,0.65h0a1.3,1.3,0,0,1,1.47-.72l0,0.7a1.1,1.1,0,0,0-1.43,1.19v2H276" transform="translate(-3.55 -3.55)"/><path class="cls-2" d="M280.6,64.58a1.39,1.39,0,1,0-1.28-1.39,1.24,1.24,0,0,0,1.28,1.39m0-3.41a2,2,0,1,1-2.07,2A1.9,1.9,0,0,1,280.6,61.17Z" transform="translate(-3.55 -3.55)"/><path class="cls-2" d="M285.54,61.8a1.39,1.39,0,0,0,0,2.78,1.39,1.39,0,0,0,0-2.78m-0.14-.63a1.7,1.7,0,0,1,1.39.68V59h0.76v6.12h-0.74a3.73,3.73,0,0,0,0-.61,1.6,1.6,0,0,1-1.39.71,1.84,1.84,0,0,1-1.94-2A1.86,1.86,0,0,1,285.4,61.17Z" transform="translate(-3.55 -3.55)"/><path class="cls-2" d="M292.27,61.27c0,1.28,0,2.61,0,3.84h-0.72c0-.16,0-0.49,0-0.63a1.41,1.41,0,0,1-1.26.74,1.36,1.36,0,0,1-1.43-1.56V61.27h0.76v2.12c0,0.68.19,1.18,0.87,1.18a1.11,1.11,0,0,0,1-1.26v-2h0.76" transform="translate(-3.55 -3.55)"/><path class="cls-2" d="M293.34,63.19a1.88,1.88,0,0,1,2-2,1.82,1.82,0,0,1,1.44.63l-0.55.45a1.05,1.05,0,0,0-.88-0.44,1.39,1.39,0,0,0,0,2.77,1.1,1.1,0,0,0,.92-0.42l0.51,0.46a1.77,1.77,0,0,1-1.43.6,1.9,1.9,0,0,1-2.07-2" transform="translate(-3.55 -3.55)"/><path class="cls-2" d="M298.81,65.17a1,1,0,0,1-1.12-1.2V61.89H297V61.27h0.74v-1.1h0.75v1.1h1v0.62h-1v2c0,0.44.13,0.64,0.54,0.65a1.09,1.09,0,0,0,.45-0.1l0,0.62a1.94,1.94,0,0,1-.65.11" transform="translate(-3.55 -3.55)"/><path class="cls-2" d="M300.12,62.79c-0.5-1.26.95-2,2.14-1.47a1.3,1.3,0,0,1,.6.47l-0.53.45a1,1,0,0,0-.89-0.48,0.58,0.58,0,0,0-.71.5c0,0.59.92,0.51,1.39,0.73a1.08,1.08,0,0,1,.78,1c0.06,1.56-2.45,1.51-3.08.55l0.54-.46a1.24,1.24,0,0,0,1,.53,0.62,0.62,0,0,0,.76-0.56c0-.73-1.27-0.51-1.76-0.95a0.84,0.84,0,0,1-.26-0.3" transform="translate(-3.55 -3.55)"/><path class="cls-2" d="M307.12,64.61a1.09,1.09,0,0,0,1.11-1.33c-0.83,0-1.9,0-1.9.73a0.65,0.65,0,0,0,.79.6M305.56,64c0-1.24,1.4-1.26,2.67-1.3a0.83,0.83,0,0,0-.95-0.95,1.6,1.6,0,0,0-1.09.45l-0.4-.49a2.26,2.26,0,0,1,1.57-.58,1.42,1.42,0,0,1,1.6,1.51,23.92,23.92,0,0,0,.06,2.44h-0.69a2.56,2.56,0,0,1-.06-0.55h0a1.47,1.47,0,0,1-1.29.65A1.19,1.19,0,0,1,305.56,64Z" transform="translate(-3.55 -3.55)"/><path class="cls-2" d="M310.23,65.11c0-1.28,0-2.61,0-3.84h0.72c0,0.16,0,.45,0,0.63h0a1.34,1.34,0,0,1,1.25-.74,1.36,1.36,0,0,1,1.43,1.56v2.38H312.9V63c0-.68-0.19-1.17-0.87-1.17a1.11,1.11,0,0,0-1,1.26v2h-0.76" transform="translate(-3.55 -3.55)"/><path class="cls-2" d="M316.75,61.8a1.39,1.39,0,0,0,0,2.78,1.39,1.39,0,0,0,0-2.78m-0.14-.63a1.7,1.7,0,0,1,1.39.68V59h0.76v6.12H318a3.73,3.73,0,0,0,0-.61,1.6,1.6,0,0,1-1.39.71,1.84,1.84,0,0,1-1.94-2A1.86,1.86,0,0,1,316.61,61.17Z" transform="translate(-3.55 -3.55)"/><path class="cls-2" d="M299.7,75.6a1.39,1.39,0,0,0,0-2.78,1.39,1.39,0,0,0,0,2.78m0.13,0.64a1.59,1.59,0,0,1-1.35-.68h0v2.52H297.7V72.3h0.75v0.6h0a1.54,1.54,0,0,1,1.39-.7A2,2,0,0,1,299.83,76.24Z" transform="translate(-3.55 -3.55)"/><path class="cls-2" d="M302.83,76.14c0-1.28,0-2.61,0-3.84h0.72c0,0.16,0,.48,0,0.65h0a1.3,1.3,0,0,1,1.47-.72l0,0.7a1.1,1.1,0,0,0-1.43,1.19v2h-0.76" transform="translate(-3.55 -3.55)"/><path class="cls-2" d="M306.15,70.42a0.5,0.5,0,0,1,.51.49,0.51,0.51,0,1,1-.51-0.49m0.38,5.72h-0.76V72.3h0.76v3.84Z" transform="translate(-3.55 -3.55)"/><path class="cls-2" d="M307.61,74.22a1.88,1.88,0,0,1,2-2,1.82,1.82,0,0,1,1.44.63l-0.55.45a1.05,1.05,0,0,0-.88-0.44,1.39,1.39,0,0,0,0,2.77,1.1,1.1,0,0,0,.92-0.42l0.51,0.46a1.77,1.77,0,0,1-1.43.6,1.9,1.9,0,0,1-2.07-2" transform="translate(-3.55 -3.55)"/><path class="cls-2" d="M313.6,72.19c1.3,0,1.9.87,1.84,2.25h-3a1.2,1.2,0,0,0,1.25,1.17,1.28,1.28,0,0,0,1.12-.58l0.53,0.43a1.92,1.92,0,0,1-1.65.79,2,2,0,0,1,0-4m1.08,1.68a1.07,1.07,0,0,0-1.54-1,1.12,1.12,0,0,0-.75,1h2.28Z" transform="translate(-3.55 -3.55)"/><path class="cls-2" d="M316.37,73.82c-0.5-1.26.95-2,2.14-1.47a1.3,1.3,0,0,1,.6.47l-0.53.45a1,1,0,0,0-.89-0.48,0.58,0.58,0,0,0-.71.5c0,0.59.92,0.51,1.39,0.73a1.08,1.08,0,0,1,.78,1c0.06,1.56-2.45,1.51-3.08.55l0.54-.46a1.24,1.24,0,0,0,1,.53,0.62,0.62,0,0,0,.76-0.56c0-.73-1.27-0.51-1.76-0.95a0.84,0.84,0,0,1-.26-0.3" transform="translate(-3.55 -3.55)"/><line class="cls-1" x1="329.53" y1="96.75" x2="329.49" y2="32.4"/><rect class="cls-2" x="329.08" y="96.75" width="0.9" height="0.45"/><polygon class="cls-2" points="331.56 38.84 327.38 38.84 329.49 32.4 331.56 38.84"/><path class="cls-2" d="M333.35,35.5h-0.67l0.36-1Zm-1.8,6.43h2.92L333,37.39Zm4.18,0.9h-5.4l2.34-7.34h0.67Z" transform="translate(-3.55 -3.55)"/><path class="cls-2" d="M340.33,61c0-1-1.15-.92-2.19-0.92v1.85c1,0,2.19.09,2.19-.94m0.81,0c0,1.51-1.39,1.69-3,1.62v2.52h-0.8V59.38h1.75C340.28,59.39,341.14,59.79,341.14,61Z" transform="translate(-3.55 -3.55)"/><path class="cls-2" d="M341.74,65.11c0-1.28,0-2.61,0-3.84h0.72c0,0.16,0,.48,0,0.65h0A1.3,1.3,0,0,1,344,61.2l0,0.7a1.1,1.1,0,0,0-1.43,1.19v2h-0.76" transform="translate(-3.55 -3.55)"/><path class="cls-2" d="M346.34,64.58a1.39,1.39,0,1,0-1.28-1.39,1.24,1.24,0,0,0,1.28,1.39m0-3.41a2,2,0,1,1-2.07,2A1.9,1.9,0,0,1,346.34,61.17Z" transform="translate(-3.55 -3.55)"/><path class="cls-2" d="M351.28,61.8a1.39,1.39,0,0,0,0,2.78,1.39,1.39,0,0,0,0-2.78m-0.14-.63a1.7,1.7,0,0,1,1.39.68V59h0.76v6.12h-0.74a3.73,3.73,0,0,0,0-.61,1.6,1.6,0,0,1-1.39.71,1.84,1.84,0,0,1-1.94-2A1.86,1.86,0,0,1,351.14,61.17Z" transform="translate(-3.55 -3.55)"/><path class="cls-2" d="M358,61.27c0,1.28,0,2.61,0,3.84h-0.72c0-.16,0-0.49,0-0.63a1.41,1.41,0,0,1-1.26.74,1.36,1.36,0,0,1-1.43-1.56V61.27h0.76v2.12c0,0.68.19,1.18,0.87,1.18a1.11,1.11,0,0,0,1-1.26v-2H358" transform="translate(-3.55 -3.55)"/><path class="cls-2" d="M359.08,63.19a1.88,1.88,0,0,1,2-2,1.82,1.82,0,0,1,1.44.63l-0.55.45a1.05,1.05,0,0,0-.88-0.44,1.39,1.39,0,0,0,0,2.77,1.1,1.1,0,0,0,.92-0.42l0.51,0.46a1.77,1.77,0,0,1-1.43.6,1.9,1.9,0,0,1-2.07-2" transform="translate(-3.55 -3.55)"/><path class="cls-2" d="M364.55,65.17a1,1,0,0,1-1.12-1.2V61.89H362.7V61.27h0.74v-1.1h0.75v1.1h1v0.62h-1v2c0,0.44.13,0.64,0.54,0.65a1.09,1.09,0,0,0,.45-0.1l0,0.62a1.94,1.94,0,0,1-.65.11" transform="translate(-3.55 -3.55)"/><path class="cls-2" d="M365.86,62.79c-0.5-1.26.95-2,2.14-1.47a1.3,1.3,0,0,1,.6.47l-0.53.45a1,1,0,0,0-.89-0.48,0.58,0.58,0,0,0-.71.5c0,0.59.92,0.51,1.39,0.73a1.08,1.08,0,0,1,.78,1c0.06,1.56-2.45,1.51-3.08.55l0.54-.46a1.24,1.24,0,0,0,1,.53,0.62,0.62,0,0,0,.76-0.56c0-.73-1.27-0.51-1.76-0.95a0.84,0.84,0,0,1-.26-0.3" transform="translate(-3.55 -3.55)"/><polyline class="cls-2" points="366.31 62.64 365.66 62.64 366.22 60.61 366.98 60.61"/><path class="cls-2" d="M375.48,64.58a1.39,1.39,0,0,0,0-2.78,1.39,1.39,0,0,0,0,2.78m0.13,0.64a1.59,1.59,0,0,1-1.35-.68h0v2.52h-0.76V61.27h0.75v0.6h0a1.54,1.54,0,0,1,1.39-.7A2,2,0,0,1,375.61,65.22Z" transform="translate(-3.55 -3.55)"/><path class="cls-2" d="M378.61,65.11c0-1.28,0-2.61,0-3.84h0.72c0,0.16,0,.48,0,0.65h0a1.3,1.3,0,0,1,1.47-.72l0,0.7a1.1,1.1,0,0,0-1.43,1.19v2h-0.76" transform="translate(-3.55 -3.55)"/><path class="cls-2" d="M381.93,59.39a0.5,0.5,0,0,1,.51.49,0.51,0.51,0,1,1-.51-0.49m0.38,5.72h-0.76V61.27h0.76v3.84Z" transform="translate(-3.55 -3.55)"/><path class="cls-2" d="M383.39,63.19a1.88,1.88,0,0,1,2-2,1.82,1.82,0,0,1,1.44.63l-0.55.45a1.05,1.05,0,0,0-.88-0.44,1.39,1.39,0,0,0,0,2.77,1.1,1.1,0,0,0,.92-0.42l0.51,0.46a1.77,1.77,0,0,1-1.43.6,1.9,1.9,0,0,1-2.07-2" transform="translate(-3.55 -3.55)"/><path class="cls-2" d="M389.38,61.17c1.3,0,1.9.87,1.84,2.25h-3a1.2,1.2,0,0,0,1.25,1.17,1.28,1.28,0,0,0,1.12-.58l0.53,0.43a1.92,1.92,0,0,1-1.65.79,2,2,0,0,1,0-4m1.08,1.68a1.07,1.07,0,0,0-1.54-1,1.12,1.12,0,0,0-.75,1h2.28Z" transform="translate(-3.55 -3.55)"/><path class="cls-2" d="M392.15,62.79c-0.5-1.26.95-2,2.14-1.47a1.3,1.3,0,0,1,.6.47l-0.53.45a1,1,0,0,0-.89-0.48,0.58,0.58,0,0,0-.71.5c0,0.59.92,0.51,1.39,0.73a1.08,1.08,0,0,1,.78,1c0.06,1.56-2.45,1.51-3.08.55l0.54-.46a1.24,1.24,0,0,0,1,.53,0.62,0.62,0,0,0,.76-0.56c0-.73-1.27-0.51-1.76-0.95a0.84,0.84,0,0,1-.26-0.3" transform="translate(-3.55 -3.55)"/><polyline class="cls-2" points="392.6 62.64 391.95 62.64 392.51 60.61 393.27 60.61"/><path class="cls-2" d="M338.58,75.63a1.09,1.09,0,0,0,1.11-1.33c-0.83,0-1.9,0-1.9.73a0.65,0.65,0,0,0,.79.6M337,75c0-1.24,1.4-1.26,2.67-1.3a0.83,0.83,0,0,0-.95-0.95,1.6,1.6,0,0,0-1.09.45l-0.4-.49a2.26,2.26,0,0,1,1.57-.58,1.42,1.42,0,0,1,1.6,1.51,23.92,23.92,0,0,0,.06,2.44h-0.69a2.56,2.56,0,0,1-.06-0.55h0a1.47,1.47,0,0,1-1.29.65A1.19,1.19,0,0,1,337,75Z" transform="translate(-3.55 -3.55)"/><path class="cls-2" d="M341.69,76.14c0-1.28,0-2.61,0-3.84h0.72c0,0.16,0,.45,0,0.63h0a1.34,1.34,0,0,1,1.25-.74,1.36,1.36,0,0,1,1.43,1.56v2.38h-0.76V74c0-.68-0.19-1.17-0.87-1.17a1.11,1.11,0,0,0-1,1.26v2h-0.76" transform="translate(-3.55 -3.55)"/><path class="cls-2" d="M348.21,72.82a1.39,1.39,0,0,0,0,2.78,1.39,1.39,0,0,0,0-2.78m-0.14-.63a1.7,1.7,0,0,1,1.39.68V70h0.76v6.12h-0.74a3.73,3.73,0,0,0,0-.61,1.6,1.6,0,0,1-1.39.71,1.84,1.84,0,0,1-1.94-2A1.86,1.86,0,0,1,348.07,72.19Z" transform="translate(-3.55 -3.55)"/><path class="cls-2" d="M353.4,73.82c-0.5-1.26.95-2,2.14-1.47a1.3,1.3,0,0,1,.6.47l-0.53.45a1,1,0,0,0-.89-0.48,0.58,0.58,0,0,0-.71.5c0,0.59.92,0.51,1.39,0.73a1.08,1.08,0,0,1,.78,1c0.06,1.56-2.45,1.51-3.08.55l0.54-.46a1.24,1.24,0,0,0,1,.53,0.62,0.62,0,0,0,.76-0.56c0-.73-1.27-0.51-1.76-0.95a0.84,0.84,0,0,1-.26-0.3" transform="translate(-3.55 -3.55)"/><path class="cls-2" d="M360.53,72.3c0,1.28,0,2.61,0,3.84h-0.72c0-.16,0-0.49,0-0.63a1.41,1.41,0,0,1-1.26.74,1.36,1.36,0,0,1-1.43-1.56V72.3h0.76v2.12c0,0.68.19,1.18,0.87,1.18a1.11,1.11,0,0,0,1-1.26v-2h0.76" transform="translate(-3.55 -3.55)"/><path class="cls-2" d="M363.88,75.6a1.39,1.39,0,0,0,0-2.78,1.39,1.39,0,0,0,0,2.78M364,76.24a1.62,1.62,0,0,1-1.39-.71h0v0.61h-0.74V70h0.76v2.86h0a1.6,1.6,0,0,1,1.37-.68A2,2,0,0,1,364,76.24Z" transform="translate(-3.55 -3.55)"/><path class="cls-2" d="M368.23,76.2a1,1,0,0,1-1.12-1.2V72.92h-0.74V72.3h0.74v-1.1h0.75v1.1h1v0.62h-1v2c0,0.44.13,0.64,0.54,0.65a1.09,1.09,0,0,0,.45-0.1l0,0.62a1.94,1.94,0,0,1-.65.11" transform="translate(-3.55 -3.55)"/><path class="cls-2" d="M371.48,75.6a1.39,1.39,0,1,0-1.28-1.39,1.24,1.24,0,0,0,1.28,1.39m0-3.41a2,2,0,1,1-2.07,2A1.9,1.9,0,0,1,371.48,72.19Z" transform="translate(-3.55 -3.55)"/><path class="cls-2" d="M375.83,76.2a1,1,0,0,1-1.12-1.2V72.92H374V72.3h0.74v-1.1h0.75v1.1h1v0.62h-1v2c0,0.44.13,0.64,0.54,0.65a1.09,1.09,0,0,0,.45-0.1l0,0.62a1.94,1.94,0,0,1-.65.11" transform="translate(-3.55 -3.55)"/><path class="cls-2" d="M378.55,75.63a1.09,1.09,0,0,0,1.11-1.33c-0.83,0-1.9,0-1.9.73a0.65,0.65,0,0,0,.79.6M377,75c0-1.24,1.4-1.26,2.67-1.3a0.83,0.83,0,0,0-.95-0.95,1.6,1.6,0,0,0-1.09.45l-0.4-.49a2.26,2.26,0,0,1,1.57-.58,1.42,1.42,0,0,1,1.6,1.51,23.92,23.92,0,0,0,.06,2.44h-0.69a2.56,2.56,0,0,1-.06-0.55h0a1.47,1.47,0,0,1-1.29.65A1.19,1.19,0,0,1,377,75Z" transform="translate(-3.55 -3.55)"/><polyline class="cls-2" points="378.89 72.58 378.13 72.58 378.13 69.52 378.13 66.46 378.89 66.46 378.89 69.52 378.89 72.58"/><path class="cls-2" d="M383.63,73.82c-0.5-1.26.95-2,2.14-1.47a1.3,1.3,0,0,1,.6.47l-0.53.45a1,1,0,0,0-.89-0.48,0.58,0.58,0,0,0-.71.5c0,0.59.92,0.51,1.39,0.73a1.08,1.08,0,0,1,.78,1c0.06,1.56-2.45,1.51-3.08.55l0.54-.46a1.24,1.24,0,0,0,1,.53,0.62,0.62,0,0,0,.76-0.56c0-.73-1.27-0.51-1.76-0.95a0.84,0.84,0,0,1-.26-0.3" transform="translate(-3.55 -3.55)"/><rect class="cls-3" x="0.45" y="0.45" width="76.95" height="34.2" rx="2.25" ry="2.25"/><rect class="cls-1" x="0.45" y="0.45" width="76.95" height="34.2" rx="2.25" ry="2.25"/><rect class="cls-3" x="4.5" y="2.25" width="76.95" height="34.2" rx="2.25" ry="2.25"/><rect class="cls-1" x="4.5" y="2.25" width="76.95" height="34.2" rx="2.25" ry="2.25"/><polyline class="cls-2" points="11.85 20.3 14.85 20.3 14.85 20.66 14.85 21.02 11.05 21.02 11.05 18.15 11.05 15.28 14.72 15.28 14.72 15.63 14.72 15.98 11.85 15.98 11.85 16.84 11.85 17.7 14.55 17.7 14.55 18.05 14.55 18.39 11.85 18.39 11.85 19.35 11.85 20.3"/><polyline class="cls-2" points="16.81 19 15.41 17.18 16.35 17.18 17.29 18.5 18.24 17.18 19.13 17.18 17.75 18.99 19.29 21.02 18.34 21.02 17.28 19.52 16.19 21.02 15.28 21.02"/><path class="cls-2" d="M24.79,24.63a1,1,0,0,1-1.12-1.2V21.35H22.93V20.73h0.74v-1.1h0.75v1.1h1v0.62h-1v2c0,0.44.13,0.64,0.54,0.65a1.09,1.09,0,0,0,.45-0.1l0,0.62a1.94,1.94,0,0,1-.65.11" transform="translate(-3.55 -3.55)"/><path class="cls-2" d="M28,20.62c1.3,0,1.9.87,1.84,2.25h-3A1.2,1.2,0,0,0,28,24a1.28,1.28,0,0,0,1.12-.58l0.53,0.43a1.92,1.92,0,0,1-1.65.79,1.86,1.86,0,0,1-2-2,1.86,1.86,0,0,1,2-2M29,22.31a1.07,1.07,0,0,0-1.54-1,1.12,1.12,0,0,0-.75,1H29Z" transform="translate(-3.55 -3.55)"/><path class="cls-2" d="M30.87,24.57c0-1.28,0-2.61,0-3.84h0.72c0,0.16,0,.48,0,0.65h0a1.3,1.3,0,0,1,1.47-.72l0,0.7a1.1,1.1,0,0,0-1.43,1.19v2H30.87" transform="translate(-3.55 -3.55)"/><path class="cls-2" d="M33.8,24.57c0-1.28,0-2.61,0-3.84h0.72c0,0.16,0,.45,0,0.63h0a1.34,1.34,0,0,1,1.25-.74,1.36,1.36,0,0,1,1.43,1.56v2.38H36.47V22.43c0-.68-0.19-1.17-0.87-1.17a1.11,1.11,0,0,0-1,1.26v2H33.8" transform="translate(-3.55 -3.55)"/><path class="cls-2" d="M39.8,24.06a1.09,1.09,0,0,0,1.11-1.33c-0.83,0-1.9,0-1.9.73a0.65,0.65,0,0,0,.79.6m-1.56-.58c0-1.24,1.4-1.26,2.67-1.3A0.83,0.83,0,0,0,40,21.24a1.6,1.6,0,0,0-1.09.45l-0.4-.49A2.26,2.26,0,0,1,40,20.62a1.42,1.42,0,0,1,1.6,1.51,23.93,23.93,0,0,0,.06,2.44H41A2.56,2.56,0,0,1,40.94,24h0a1.47,1.47,0,0,1-1.29.65A1.19,1.19,0,0,1,38.23,23.48Z" transform="translate(-3.55 -3.55)"/><polyline class="cls-2" points="40.13 21.02 39.37 21.02 39.37 17.95 39.37 14.89 40.13 14.89 40.13 17.95 40.13 21.02"/><polyline class="cls-2" points="44.29 20.3 47.29 20.3 47.29 20.66 47.29 21.02 43.49 21.02 43.49 18.15 43.49 15.28 47.17 15.28 47.17 15.63 47.17 15.98 44.29 15.98 44.29 16.84 44.29 17.7 47 17.7 47 18.05 47 18.39 44.29 18.39 44.29 19.35 44.29 20.3"/><path class="cls-2" d="M51.87,24.57c0-1.28,0-2.61,0-3.84h0.72c0,0.16,0,.45,0,0.63h0a1.34,1.34,0,0,1,1.25-.74,1.36,1.36,0,0,1,1.43,1.56v2.38H54.53V22.43c0-.68-0.19-1.17-0.87-1.17a1.11,1.11,0,0,0-1,1.26v2H51.87" transform="translate(-3.55 -3.55)"/><path class="cls-2" d="M57.81,24.63a1,1,0,0,1-1.12-1.2V21.35H56V20.73h0.74v-1.1h0.75v1.1h1v0.62h-1v2c0,0.44.13,0.64,0.54,0.65a1.09,1.09,0,0,0,.45-0.1l0,0.62a1.94,1.94,0,0,1-.65.11" transform="translate(-3.55 -3.55)"/><path class="cls-2" d="M59.64,18.85a0.5,0.5,0,0,1,.51.49,0.51,0.51,0,1,1-.51-0.49M60,24.57H59.26V20.73H60v3.84Z" transform="translate(-3.55 -3.55)"/><path class="cls-2" d="M62.57,24.63a1,1,0,0,1-1.12-1.2V21.35H60.71V20.73h0.74v-1.1H62.2v1.1h1v0.62h-1v2c0,0.44.13,0.64,0.54,0.65a1.09,1.09,0,0,0,.45-0.1l0,0.62a1.94,1.94,0,0,1-.65.11" transform="translate(-3.55 -3.55)"/><path class="cls-2" d="M64.28,20.73c0.41,1,.78,2,1.21,3l1.06-3h0.81l-1.86,4.75a1.4,1.4,0,0,1-1.83,1l0.07-.67a0.79,0.79,0,0,0,.83-0.1,4.73,4.73,0,0,0,.51-1.12l-1.64-3.84h0.85" transform="translate(-3.55 -3.55)"/><line class="cls-1" x1="40.95" y1="36.45" x2="40.95" y2="97.2"/><path class="cls-2" d="M44.95,40h0Z" transform="translate(-3.55 -3.55)"/><polygon class="cls-2" points="40.95 97.2 38.88 90.77 43.02 90.77 40.95 97.2"/><path class="cls-2" d="M43,94.77l1.49,4.54L46,94.77H43Zm2,6H44l-2.2-6.88h5.4Z" transform="translate(-3.55 -3.55)"/><rect class="cls-4" x="1.94" y="56.3" width="77.98" height="11.07"/><path class="cls-2" d="M9.17,63.81c0-1-1.15-.92-2.19-0.92v1.85c1,0,2.19.09,2.19-.94m0.81,0c0,1.51-1.39,1.69-3,1.62v2.52H6.18V62.21H7.93C9.12,62.23,10,62.62,10,63.81Z" transform="translate(-3.55 -3.55)"/><path class="cls-2" d="M10.59,67.94c0-1.28,0-2.61,0-3.84h0.72c0,0.16,0,.48,0,0.65h0A1.3,1.3,0,0,1,12.81,64l0,0.7a1.1,1.1,0,0,0-1.43,1.19v2H10.59" transform="translate(-3.55 -3.55)"/><path class="cls-2" d="M15.19,67.41A1.39,1.39,0,1,0,13.91,66a1.24,1.24,0,0,0,1.28,1.39m0-3.41a2,2,0,1,1,0,4A2,2,0,1,1,15.19,64Z" transform="translate(-3.55 -3.55)"/><path class="cls-2" d="M20.12,64.63a1.39,1.39,0,0,0,0,2.78,1.39,1.39,0,0,0,0-2.78M20,64a1.7,1.7,0,0,1,1.39.68V61.82h0.76v6.12H21.39a3.73,3.73,0,0,0,0-.61,1.6,1.6,0,0,1-1.39.71,1.84,1.84,0,0,1-1.94-2A1.86,1.86,0,0,1,20,64Z" transform="translate(-3.55 -3.55)"/><path class="cls-2" d="M26.85,64.11c0,1.28,0,2.61,0,3.84H26.16c0-.16,0-0.49,0-0.63a1.41,1.41,0,0,1-1.26.74,1.36,1.36,0,0,1-1.43-1.56V64.11h0.76v2.12c0,0.68.19,1.18,0.87,1.18a1.11,1.11,0,0,0,1-1.26v-2h0.76" transform="translate(-3.55 -3.55)"/><path class="cls-2" d="M27.92,66a1.88,1.88,0,0,1,2-2,1.82,1.82,0,0,1,1.44.63l-0.55.45A1.05,1.05,0,0,0,30,64.64a1.39,1.39,0,0,0,0,2.77A1.1,1.1,0,0,0,30.91,67l0.51,0.46a1.77,1.77,0,0,1-1.43.6,1.9,1.9,0,0,1-2.07-2" transform="translate(-3.55 -3.55)"/><path class="cls-2" d="M33.4,68a1,1,0,0,1-1.12-1.2V64.73H31.54V64.11h0.74V63H33v1.1h1v0.62H33v2c0,0.44.13,0.64,0.54,0.65a1.09,1.09,0,0,0,.45-0.1l0,0.62a1.94,1.94,0,0,1-.65.11" transform="translate(-3.55 -3.55)"/><path class="cls-2" d="M34.7,65.63c-0.5-1.26.95-2,2.14-1.47a1.3,1.3,0,0,1,.6.47l-0.53.45A1,1,0,0,0,36,64.6a0.58,0.58,0,0,0-.71.5c0,0.59.92,0.51,1.39,0.73a1.08,1.08,0,0,1,.78,1c0.06,1.56-2.45,1.51-3.08.55l0.54-.46a1.24,1.24,0,0,0,1,.53,0.62,0.62,0,0,0,.76-0.56c0-.73-1.27-0.51-1.76-0.95a0.84,0.84,0,0,1-.26-0.3" transform="translate(-3.55 -3.55)"/><path class="cls-2" d="M41.65,68a1,1,0,0,1-1.12-1.2V64.73H39.8V64.11h0.74V63h0.75v1.1h1v0.62h-1v2c0,0.44.13,0.64,0.54,0.65a1.09,1.09,0,0,0,.45-0.1l0,0.62a1.94,1.94,0,0,1-.65.11" transform="translate(-3.55 -3.55)"/><path class="cls-2" d="M44.91,67.41A1.39,1.39,0,1,0,43.63,66a1.24,1.24,0,0,0,1.28,1.39m0-3.41a2,2,0,1,1-2.07,2A1.9,1.9,0,0,1,44.91,64Z" transform="translate(-3.55 -3.55)"/><path class="cls-2" d="M52.07,67.41a1.39,1.39,0,0,0,0-2.78,1.39,1.39,0,0,0,0,2.78m0.13,0.64a1.59,1.59,0,0,1-1.35-.68h0v2.52H50.06V64.11h0.75v0.6h0a1.54,1.54,0,0,1,1.39-.7A2,2,0,0,1,52.2,68.05Z" transform="translate(-3.55 -3.55)"/><path class="cls-2" d="M58.59,64.11c0,1.28,0,2.61,0,3.84H57.9c0-.16,0-0.49,0-0.63a1.41,1.41,0,0,1-1.26.74,1.36,1.36,0,0,1-1.43-1.56V64.11h0.76v2.12c0,0.68.19,1.18,0.87,1.18a1.11,1.11,0,0,0,1-1.26v-2h0.76" transform="translate(-3.55 -3.55)"/><path class="cls-2" d="M59.91,67.94c0-1.28,0-2.61,0-3.84H60.6c0,0.16,0,.48,0,0.65h0A1.3,1.3,0,0,1,62.13,64l0,0.7a1.1,1.1,0,0,0-1.43,1.19v2H59.91" transform="translate(-3.55 -3.55)"/><path class="cls-2" d="M62.45,66a1.88,1.88,0,0,1,2-2,1.82,1.82,0,0,1,1.44.63l-0.55.45a1.05,1.05,0,0,0-.88-0.44,1.39,1.39,0,0,0,0,2.77A1.1,1.1,0,0,0,65.43,67l0.51,0.46a1.77,1.77,0,0,1-1.43.6,1.9,1.9,0,0,1-2.07-2" transform="translate(-3.55 -3.55)"/><path class="cls-2" d="M68.51,64.65a1.12,1.12,0,0,0-1,1.26v2H66.71V61.82h0.76c0,0.95,0,1.94,0,2.87A1.35,1.35,0,0,1,68.71,64a1.37,1.37,0,0,1,1.43,1.56v2.38H69.38V65.82c0-.67-0.19-1.17-0.87-1.17" transform="translate(-3.55 -3.55)"/><path class="cls-2" d="M72.71,67.44a1.09,1.09,0,0,0,1.11-1.33c-0.83,0-1.9,0-1.9.73a0.65,0.65,0,0,0,.79.6m-1.56-.58c0-1.24,1.4-1.26,2.67-1.3a0.83,0.83,0,0,0-.95-0.95,1.6,1.6,0,0,0-1.09.45l-0.4-.49A2.26,2.26,0,0,1,72.94,64a1.42,1.42,0,0,1,1.6,1.51,23.93,23.93,0,0,0,.06,2.44H73.92a2.56,2.56,0,0,1-.06-0.55h0a1.47,1.47,0,0,1-1.29.65A1.19,1.19,0,0,1,71.15,66.86Z" transform="translate(-3.55 -3.55)"/><path class="cls-2" d="M75.68,65.63c-0.5-1.26.95-2,2.14-1.47a1.3,1.3,0,0,1,.6.47l-0.53.45A1,1,0,0,0,77,64.6a0.58,0.58,0,0,0-.71.5c0,0.59.92,0.51,1.39,0.73a1.08,1.08,0,0,1,.78,1c0.06,1.56-2.45,1.51-3.08.55l0.54-.46a1.24,1.24,0,0,0,1,.53,0.62,0.62,0,0,0,.76-0.56c0-.73-1.27-0.51-1.76-0.95a0.84,0.84,0,0,1-.26-0.3" transform="translate(-3.55 -3.55)"/><path class="cls-2" d="M81.15,64c1.3,0,1.9.87,1.84,2.25h-3a1.2,1.2,0,0,0,1.25,1.17,1.28,1.28,0,0,0,1.12-.58l0.53,0.43a1.92,1.92,0,0,1-1.65.79,2,2,0,0,1,0-4m1.08,1.68a1.07,1.07,0,0,0-1.54-1,1.12,1.12,0,0,0-.75,1h2.28Z" transform="translate(-3.55 -3.55)"/><path class="cls-3" d="M7.87,97.2H74a7.42,7.42,0,0,1,7.42,7.42V164A7.43,7.43,0,0,1,74,171.45H7.88A7.43,7.43,0,0,1,.45,164v-59.4A7.42,7.42,0,0,1,7.87,97.2Z"/><path class="cls-1" d="M7.87,97.2H74a7.42,7.42,0,0,1,7.42,7.42V164A7.43,7.43,0,0,1,74,171.45H7.88A7.43,7.43,0,0,1,.45,164v-59.4A7.42,7.42,0,0,1,7.87,97.2Z"/><line class="cls-1" x1="0.45" y1="119.7" x2="81.45" y2="119.7"/><polyline class="cls-2" points="11.62 111.02 10.83 111.02 10.83 108.63 10.83 106.24 9.75 107.14 9.29 106.6 10.91 105.28 11.62 105.28 11.62 108.15 11.62 111.02"/><path class="cls-2" d="M15.79,142c0-1-1.15-.92-2.19-0.92V143c1,0,2.19.09,2.19-.94m0.81,0c0,1.51-1.39,1.69-3,1.62v2.52H12.8v-5.73h1.75C15.74,140.44,16.6,140.83,16.6,142Z" transform="translate(-3.55 -3.55)"/><path class="cls-2" d="M18.4,145.65a1.09,1.09,0,0,0,1.11-1.33c-0.83,0-1.9,0-1.9.73a0.65,0.65,0,0,0,.79.6m-1.56-.58c0-1.24,1.4-1.26,2.67-1.3a0.83,0.83,0,0,0-.95-0.95,1.6,1.6,0,0,0-1.09.45l-0.4-.49a2.26,2.26,0,0,1,1.57-.58,1.42,1.42,0,0,1,1.6,1.51,23.93,23.93,0,0,0,.06,2.44H19.61a2.56,2.56,0,0,1-.06-0.55h0a1.47,1.47,0,0,1-1.29.65A1.19,1.19,0,0,1,16.84,145.07Z" transform="translate(-3.55 -3.55)"/><path class="cls-2" d="M21.37,143.84c-0.5-1.26.95-2,2.14-1.47a1.3,1.3,0,0,1,.6.47l-0.53.45a1,1,0,0,0-.89-0.48,0.58,0.58,0,0,0-.71.5c0,0.59.92,0.51,1.39,0.73a1.08,1.08,0,0,1,.78,1c0.06,1.56-2.45,1.51-3.08.55l0.54-.46a1.24,1.24,0,0,0,1,.53,0.62,0.62,0,0,0,.76-0.56c0-.73-1.27-0.51-1.76-0.95a0.84,0.84,0,0,1-.26-0.3" transform="translate(-3.55 -3.55)"/><path class="cls-2" d="M25,143.84c-0.5-1.26.95-2,2.14-1.47a1.3,1.3,0,0,1,.6.47l-0.53.45a1,1,0,0,0-.89-0.48,0.58,0.58,0,0,0-.71.5c0,0.59.92,0.51,1.39,0.73a1.08,1.08,0,0,1,.78,1c0.06,1.56-2.45,1.51-3.08.55l0.54-.46a1.24,1.24,0,0,0,1,.53,0.62,0.62,0,0,0,.76-0.56c0-.73-1.27-0.51-1.76-0.95a0.84,0.84,0,0,1-.26-0.3" transform="translate(-3.55 -3.55)"/><path class="cls-2" d="M31.1,140.44a0.5,0.5,0,0,1,.51.49,0.51,0.51,0,1,1-.51-0.49m0.38,5.72H30.72v-3.84h0.76v3.84Z" transform="translate(-3.55 -3.55)"/><path class="cls-2" d="M34,146.22a1,1,0,0,1-1.12-1.2v-2.08H32.18v-0.62h0.74v-1.1h0.75v1.1h1v0.62h-1v2c0,0.44.13,0.64,0.54,0.65a1.09,1.09,0,0,0,.45-0.1l0,0.62a1.94,1.94,0,0,1-.65.11" transform="translate(-3.55 -3.55)"/><path class="cls-2" d="M37.21,142.21c1.3,0,1.9.87,1.84,2.25H36a1.2,1.2,0,0,0,1.25,1.17,1.28,1.28,0,0,0,1.12-.58l0.53,0.43a1.92,1.92,0,0,1-1.65.79,2,2,0,0,1,0-4m1.08,1.68a1.07,1.07,0,0,0-1.54-1,1.12,1.12,0,0,0-.75,1h2.28Z" transform="translate(-3.55 -3.55)"/><path class="cls-2" d="M40.86,142.95a1.34,1.34,0,0,1,1.22-.74,1.2,1.2,0,0,1,1.19.77,1.41,1.41,0,0,1,1.3-.77A1.36,1.36,0,0,1,46,143.77v2.38H45.25V144c0-.66-0.19-1.17-0.85-1.17-1.39,0-.87,2-1,3.3H42.67v-2.28a0.83,0.83,0,0,0-.81-1,1.11,1.11,0,0,0-1,1.26v2H40.12c0-1.28,0-2.61,0-3.84H40.8c0,0.16,0,.45,0,0.63h0" transform="translate(-3.55 -3.55)"/><path class="cls-2" d="M47.16,143.84c-0.5-1.26.95-2,2.14-1.47a1.3,1.3,0,0,1,.6.47l-0.53.45a1,1,0,0,0-.89-0.48,0.58,0.58,0,0,0-.71.5c0,0.59.92,0.51,1.39,0.73a1.08,1.08,0,0,1,.78,1c0.06,1.56-2.45,1.51-3.08.55l0.54-.46a1.24,1.24,0,0,0,1,.53,0.62,0.62,0,0,0,.76-0.56c0-.73-1.27-0.51-1.76-0.95a0.84,0.84,0,0,1-.26-0.3" transform="translate(-3.55 -3.55)"/><path class="cls-2" d="M54.71,145.62a1.39,1.39,0,1,0-1.28-1.39,1.24,1.24,0,0,0,1.28,1.39m0-3.41a2,2,0,1,1-2.07,2A1.9,1.9,0,0,1,54.71,142.21Z" transform="translate(-3.55 -3.55)"/><path class="cls-2" d="M59.64,146.16H58.82l-1.56-3.84H58.1c0.38,1,.74,2,1.14,3l1.13-3h0.81" transform="translate(-3.55 -3.55)"/><path class="cls-2" d="M63.65,142.21c1.3,0,1.9.87,1.84,2.25h-3a1.2,1.2,0,0,0,1.25,1.17,1.28,1.28,0,0,0,1.12-.58l0.53,0.43a1.92,1.92,0,0,1-1.65.79,2,2,0,0,1,0-4m1.08,1.68a1.07,1.07,0,0,0-1.54-1,1.12,1.12,0,0,0-.75,1h2.28Z" transform="translate(-3.55 -3.55)"/><path class="cls-2" d="M66.56,146.16c0-1.28,0-2.61,0-3.84h0.72c0,0.16,0,.48,0,0.65h0a1.3,1.3,0,0,1,1.47-.72l0,0.7a1.1,1.1,0,0,0-1.43,1.19v2H66.56" transform="translate(-3.55 -3.55)"/><path class="cls-2" d="M12.62,154.91c-0.5-1.26.95-2,2.14-1.47a1.3,1.3,0,0,1,.6.47l-0.53.45a1,1,0,0,0-.89-0.48,0.58,0.58,0,0,0-.71.5c0,0.59.92,0.51,1.39,0.73a1.08,1.08,0,0,1,.78,1c0.06,1.56-2.45,1.51-3.08.55l0.54-.46a1.24,1.24,0,0,0,1,.53,0.62,0.62,0,0,0,.76-0.56c0-.73-1.27-0.51-1.76-0.95a0.84,0.84,0,0,1-.26-0.3" transform="translate(-3.55 -3.55)"/><path class="cls-2" d="M16.1,155.31a1.88,1.88,0,0,1,2-2,1.82,1.82,0,0,1,1.44.63l-0.55.45a1.05,1.05,0,0,0-.88-0.44,1.39,1.39,0,0,0,0,2.77,1.1,1.1,0,0,0,.92-0.42l0.51,0.46a1.77,1.77,0,0,1-1.43.6,1.9,1.9,0,0,1-2.07-2" transform="translate(-3.55 -3.55)"/><path class="cls-2" d="M21.63,156.72a1.09,1.09,0,0,0,1.11-1.33c-0.83,0-1.9,0-1.9.73a0.65,0.65,0,0,0,.79.6m-1.56-.58c0-1.24,1.4-1.26,2.67-1.3a0.83,0.83,0,0,0-.95-0.95,1.6,1.6,0,0,0-1.09.45l-0.4-.49a2.26,2.26,0,0,1,1.57-.58,1.42,1.42,0,0,1,1.6,1.51,23.93,23.93,0,0,0,.06,2.44H22.84a2.56,2.56,0,0,1-.06-0.55h0a1.47,1.47,0,0,1-1.29.65A1.19,1.19,0,0,1,20.07,156.14Z" transform="translate(-3.55 -3.55)"/><path class="cls-2" d="M24.74,157.22c0-1.28,0-2.61,0-3.84h0.72c0,0.16,0,.45,0,0.63h0a1.34,1.34,0,0,1,1.25-.74,1.36,1.36,0,0,1,1.43,1.56v2.38H27.41v-2.13c0-.68-0.19-1.17-0.87-1.17a1.11,1.11,0,0,0-1,1.26v2H24.74" transform="translate(-3.55 -3.55)"/><path class="cls-2" d="M29.46,157.22c0-1.28,0-2.61,0-3.84h0.72c0,0.16,0,.45,0,0.63h0a1.34,1.34,0,0,1,1.25-.74,1.36,1.36,0,0,1,1.43,1.56v2.38H32.12v-2.13c0-.68-0.19-1.17-0.87-1.17a1.11,1.11,0,0,0-1,1.26v2H29.46" transform="translate(-3.55 -3.55)"/><path class="cls-2" d="M35.91,153.28c1.3,0,1.9.87,1.84,2.25h-3a1.2,1.2,0,0,0,1.25,1.17,1.28,1.28,0,0,0,1.12-.58l0.53,0.43a1.92,1.92,0,0,1-1.65.79,2,2,0,0,1,0-4M37,155a1.07,1.07,0,0,0-1.54-1,1.12,1.12,0,0,0-.75,1H37Z" transform="translate(-3.55 -3.55)"/><path class="cls-2" d="M38.81,157.22c0-1.28,0-2.61,0-3.84H39.5c0,0.16,0,.48,0,0.65h0a1.3,1.3,0,0,1,1.47-.72l0,0.7a1.1,1.1,0,0,0-1.43,1.19v2H38.81" transform="translate(-3.55 -3.55)"/><path class="cls-2" d="M45.11,151.64a5.7,5.7,0,0,0-1,3.25,5.64,5.64,0,0,0,1,3.25l-0.55.36a6.2,6.2,0,0,1-.86-5.56,6.51,6.51,0,0,1,.86-1.65" transform="translate(-3.55 -3.55)"/><path class="cls-2" d="M47.06,154a1.34,1.34,0,0,1,1.22-.74,1.2,1.2,0,0,1,1.19.77,1.41,1.41,0,0,1,1.3-.77,1.36,1.36,0,0,1,1.43,1.56v2.38H51.45v-2.13c0-.66-0.19-1.17-0.85-1.17-1.39,0-.87,2-1,3.3H48.86v-2.28a0.83,0.83,0,0,0-.81-1,1.11,1.11,0,0,0-1,1.26v2H46.31c0-1.28,0-2.61,0-3.84H47c0,0.16,0,.45,0,0.63h0" transform="translate(-3.55 -3.55)"/><path class="cls-2" d="M54.78,156.72a1.09,1.09,0,0,0,1.11-1.33c-0.83,0-1.9,0-1.9.73a0.65,0.65,0,0,0,.79.6m-1.56-.58c0-1.24,1.4-1.26,2.67-1.3a0.83,0.83,0,0,0-.95-0.95,1.6,1.6,0,0,0-1.09.45l-0.4-.49a2.26,2.26,0,0,1,1.57-.58,1.42,1.42,0,0,1,1.6,1.51,23.93,23.93,0,0,0,.06,2.44H56a2.56,2.56,0,0,1-.06-0.55h0a1.47,1.47,0,0,1-1.29.65A1.19,1.19,0,0,1,53.21,156.14Z" transform="translate(-3.55 -3.55)"/><path class="cls-2" d="M57.89,157.22c0-1.28,0-2.61,0-3.84h0.72c0,0.16,0,.45,0,0.63h0a1.34,1.34,0,0,1,1.25-.74,1.36,1.36,0,0,1,1.43,1.56v2.38H60.55v-2.13c0-.68-0.19-1.17-0.87-1.17a1.11,1.11,0,0,0-1,1.26v2H57.89" transform="translate(-3.55 -3.55)"/><path class="cls-2" d="M66,153.39c0,1.28,0,2.61,0,3.84H65.31c0-.16,0-0.49,0-0.63a1.41,1.41,0,0,1-1.26.74,1.36,1.36,0,0,1-1.43-1.56v-2.38h0.76v2.12c0,0.68.19,1.18,0.87,1.18a1.11,1.11,0,0,0,1-1.26v-2H66" transform="translate(-3.55 -3.55)"/><path class="cls-2" d="M68.6,156.72a1.09,1.09,0,0,0,1.11-1.33c-0.83,0-1.9,0-1.9.73a0.65,0.65,0,0,0,.79.6M67,156.14c0-1.24,1.4-1.26,2.67-1.3a0.83,0.83,0,0,0-.95-0.95,1.6,1.6,0,0,0-1.09.45l-0.4-.49a2.26,2.26,0,0,1,1.57-.58,1.42,1.42,0,0,1,1.6,1.51,23.93,23.93,0,0,0,.06,2.44H69.8a2.56,2.56,0,0,1-.06-0.55h0a1.47,1.47,0,0,1-1.29.65A1.19,1.19,0,0,1,67,156.14Z" transform="translate(-3.55 -3.55)"/><polyline class="cls-2" points="68.93 153.68 68.17 153.68 68.17 150.61 68.17 147.55 68.93 147.55 68.93 150.61 68.93 153.68"/><path class="cls-2" d="M73.7,158.14a5.7,5.7,0,0,0,1-3.25,5.64,5.64,0,0,0-1-3.25l0.55-.36a6.2,6.2,0,0,1,.86,5.56,6.51,6.51,0,0,1-.86,1.65" transform="translate(-3.55 -3.55)"/><line class="cls-1" x1="81.45" y1="134.32" x2="139.95" y2="134.32"/><polygon class="cls-2" points="81.45 134.78 81.45 134.78 81.45 133.88 81.45 134.78"/><polygon class="cls-2" points="139.95 134.32 133.51 136.4 133.51 132.25 139.95 134.32"/><path class="cls-2" d="M137.51,139.36l4.54-1.49-4.54-1.48v3Zm6-2v1l-6.88,2.2v-5.4Z" transform="translate(-3.55 -3.55)"/><rect class="cls-4" x="95.26" y="123.25" width="30.83" height="22.1"/><path class="cls-2" d="M103.93,132.78a2.08,2.08,0,0,1-2.23,2.27,2.06,2.06,0,0,1-2.23-2.27v-3.61h0.8v3.56a1.43,1.43,0,1,0,2.85,0v-3.56h0.8v3.61" transform="translate(-3.55 -3.55)"/><path class="cls-2" d="M108.27,130.77c0-1-1.15-.92-2.19-0.92v1.85c1,0,2.19.09,2.19-.94m0.81,0c0,1.51-1.39,1.69-3,1.62v2.52h-0.8v-5.73H107C108.22,129.19,109.08,129.58,109.08,130.77Z" transform="translate(-3.55 -3.55)"/><path class="cls-2" d="M112.84,134.34a1.78,1.78,0,0,0,1.54-.76L115,134a2.57,2.57,0,0,1-2.19,1,2.87,2.87,0,0,1-2.79-1.8,3.44,3.44,0,0,1,0-2.45,3,3,0,0,1,3.42-1.73,2.23,2.23,0,0,1,1.47.83l-0.63.49a1.73,1.73,0,0,0-1.43-.67,2.1,2.1,0,0,0-2.18,2.3,2.06,2.06,0,0,0,2.15,2.31" transform="translate(-3.55 -3.55)"/><path class="cls-2" d="M119.81,134.37a1.39,1.39,0,0,0,0-2.78,1.39,1.39,0,0,0,0,2.78m0.13,0.64a1.62,1.62,0,0,1-1.39-.71h0v0.61H117.8v-6.12h0.76v2.86h0A1.6,1.6,0,0,1,120,131,2,2,0,0,1,119.94,135Z" transform="translate(-3.55 -3.55)"/><path class="cls-2" d="M124.22,134.4a1.09,1.09,0,0,0,1.11-1.33c-0.83,0-1.9,0-1.9.73a0.65,0.65,0,0,0,.79.6m-1.56-.58c0-1.24,1.4-1.26,2.67-1.3a0.83,0.83,0,0,0-.95-0.95,1.6,1.6,0,0,0-1.09.45l-0.4-.49a2.26,2.26,0,0,1,1.57-.58,1.42,1.42,0,0,1,1.6,1.51,23.92,23.92,0,0,0,.06,2.44h-0.69a2.56,2.56,0,0,1-.06-0.55h0A1.47,1.47,0,0,1,124,135,1.19,1.19,0,0,1,122.65,133.82Z" transform="translate(-3.55 -3.55)"/><path class="cls-2" d="M127.33,134.9c0-1.28,0-2.61,0-3.84H128c0,0.16,0,.48,0,0.65h0a1.3,1.3,0,0,1,1.47-.72l0,0.7a1.1,1.1,0,0,0-1.43,1.19v2h-0.76" transform="translate(-3.55 -3.55)"/><path class="cls-2" d="M99.22,144a1.88,1.88,0,0,1,2-2,1.82,1.82,0,0,1,1.44.63l-0.55.45a1.05,1.05,0,0,0-.88-0.44,1.39,1.39,0,0,0,0,2.77,1.1,1.1,0,0,0,.92-0.42l0.51,0.46a1.77,1.77,0,0,1-1.43.6,1.9,1.9,0,0,1-2.07-2" transform="translate(-3.55 -3.55)"/><path class="cls-2" d="M105.29,145.4A1.39,1.39,0,1,0,104,144a1.24,1.24,0,0,0,1.28,1.39m0-3.41a2,2,0,1,1-2.07,2A1.9,1.9,0,0,1,105.29,142Z" transform="translate(-3.55 -3.55)"/><path class="cls-2" d="M110.22,142.62a1.39,1.39,0,0,0,0,2.78,1.39,1.39,0,0,0,0-2.78m-0.14-.63a1.7,1.7,0,0,1,1.39.68v-2.86h0.76v6.12h-0.74a3.73,3.73,0,0,0,0-.61,1.6,1.6,0,0,1-1.39.71,1.84,1.84,0,0,1-1.94-2A1.86,1.86,0,0,1,110.08,142Z" transform="translate(-3.55 -3.55)"/><path class="cls-2" d="M115.29,142c1.3,0,1.9.87,1.84,2.25h-3a1.2,1.2,0,0,0,1.25,1.17,1.28,1.28,0,0,0,1.12-.58l0.53,0.43a1.92,1.92,0,0,1-1.65.79,2,2,0,0,1,0-4m1.08,1.68a1.07,1.07,0,0,0-1.54-1,1.12,1.12,0,0,0-.75,1h2.28Z" transform="translate(-3.55 -3.55)"/><rect class="cls-3" x="139.95" y="97.2" width="81" height="74.25" rx="7.43" ry="7.43"/><rect class="cls-1" x="139.95" y="97.2" width="81" height="74.25" rx="7.43" ry="7.43"/><line class="cls-1" x1="139.95" y1="119.7" x2="220.95" y2="119.7"/><path class="cls-2" d="M154,108.68a1.63,1.63,0,0,1,1.74,2.14,2.64,2.64,0,0,1-.85,1.22L153,113.86h2.81v0.7h-3.74v-0.75l2.28-2.27a1.75,1.75,0,0,0,.63-1.22,0.94,0.94,0,0,0-1-1,1.08,1.08,0,0,0-1.08,1l-0.77-.13a1.76,1.76,0,0,1,1.85-1.52" transform="translate(-3.55 -3.55)"/><polyline class="cls-2" points="149.55 141.89 152.11 141.89 152.11 142.25 152.11 142.6 148.75 142.6 148.75 139.74 148.75 136.87 149.55 136.87 149.55 139.38 149.55 141.89"/><path class="cls-2" d="M158.06,145.62a1.39,1.39,0,1,0-1.28-1.39,1.24,1.24,0,0,0,1.28,1.39m0-3.41a2,2,0,1,1-2.07,2A1.9,1.9,0,0,1,158.06,142.21Z" transform="translate(-3.55 -3.55)"/><path class="cls-2" d="M163,145.62a1.39,1.39,0,1,0-1.28-1.39,1.24,1.24,0,0,0,1.28,1.39m0-3.41a2,2,0,1,1-2.07,2A1.9,1.9,0,0,1,163,142.21Z" transform="translate(-3.55 -3.55)"/><polyline class="cls-2" points="163.36 140.43 163.38 140.43 165 138.77 166.02 138.77 164.22 140.51 166.17 142.6 165.12 142.6 163.38 140.61 163.36 140.61 163.36 141.61 163.36 142.6 162.6 142.6 162.6 139.54 162.6 136.48 163.36 136.48 163.36 138.46 163.36 140.43"/><path class="cls-2" d="M175.81,142.32c0,1.28,0,2.61,0,3.84h-0.72c0-.16,0-0.49,0-0.63a1.41,1.41,0,0,1-1.26.74,1.36,1.36,0,0,1-1.43-1.56v-2.38h0.76v2.12c0,0.68.19,1.18,0.87,1.18a1.11,1.11,0,0,0,1-1.26v-2h0.76" transform="translate(-3.55 -3.55)"/><path class="cls-2" d="M179.14,145.62a1.39,1.39,0,0,0,0-2.78,1.39,1.39,0,0,0,0,2.78m0.13,0.64a1.59,1.59,0,0,1-1.35-.68h0v2.52h-0.76v-5.78h0.75v0.6h0a1.54,1.54,0,0,1,1.39-.7A2,2,0,0,1,179.27,146.26Z" transform="translate(-3.55 -3.55)"/><path class="cls-2" d="M184,144.24a1.88,1.88,0,0,1,2-2,1.82,1.82,0,0,1,1.44.63l-0.55.45a1.05,1.05,0,0,0-.88-0.44,1.39,1.39,0,0,0,0,2.77,1.1,1.1,0,0,0,.92-0.42l0.51,0.46a1.77,1.77,0,0,1-1.43.6,1.9,1.9,0,0,1-2.07-2" transform="translate(-3.55 -3.55)"/><path class="cls-2" d="M190.11,145.62a1.39,1.39,0,1,0-1.28-1.39,1.24,1.24,0,0,0,1.28,1.39m0-3.41a2,2,0,1,1-2.07,2A1.9,1.9,0,0,1,190.11,142.21Z" transform="translate(-3.55 -3.55)"/><path class="cls-2" d="M195,142.84a1.39,1.39,0,0,0,0,2.78,1.39,1.39,0,0,0,0-2.78m-0.14-.63a1.7,1.7,0,0,1,1.39.68V140h0.76v6.12h-0.74a3.73,3.73,0,0,0,0-.61,1.6,1.6,0,0,1-1.39.71,1.84,1.84,0,0,1-1.94-2A1.86,1.86,0,0,1,194.91,142.21Z" transform="translate(-3.55 -3.55)"/><path class="cls-2" d="M200.12,142.21c1.3,0,1.9.87,1.84,2.25h-3a1.2,1.2,0,0,0,1.25,1.17,1.28,1.28,0,0,0,1.12-.58l0.53,0.43a1.92,1.92,0,0,1-1.65.79,2,2,0,0,1,0-4m1.08,1.68a1.07,1.07,0,0,0-1.54-1,1.12,1.12,0,0,0-.75,1h2.28Z" transform="translate(-3.55 -3.55)"/><path class="cls-2" d="M153.54,156.72a1.09,1.09,0,0,0,1.11-1.33c-0.83,0-1.9,0-1.9.73a0.65,0.65,0,0,0,.79.6m-1.56-.58c0-1.24,1.4-1.26,2.67-1.3a0.83,0.83,0,0,0-.95-0.95,1.6,1.6,0,0,0-1.09.45l-0.4-.49a2.26,2.26,0,0,1,1.57-.58,1.42,1.42,0,0,1,1.6,1.51,23.92,23.92,0,0,0,.06,2.44h-0.69a2.56,2.56,0,0,1-.06-0.55h0a1.47,1.47,0,0,1-1.29.65A1.19,1.19,0,0,1,152,156.14Z" transform="translate(-3.55 -3.55)"/><path class="cls-2" d="M156.65,157.22c0-1.28,0-2.61,0-3.84h0.72c0,0.16,0,.45,0,0.63h0a1.34,1.34,0,0,1,1.25-.74,1.36,1.36,0,0,1,1.43,1.56v2.38h-0.76v-2.13c0-.68-0.19-1.17-0.87-1.17a1.11,1.11,0,0,0-1,1.26v2h-0.76" transform="translate(-3.55 -3.55)"/><path class="cls-2" d="M163.17,153.91a1.39,1.39,0,0,0,0,2.78,1.39,1.39,0,0,0,0-2.78m-0.14-.63a1.7,1.7,0,0,1,1.39.68V151.1h0.76v6.12h-0.74a3.73,3.73,0,0,0,0-.61,1.6,1.6,0,0,1-1.39.71,1.84,1.84,0,0,1-1.94-2A1.86,1.86,0,0,1,163,153.28Z" transform="translate(-3.55 -3.55)"/><path class="cls-2" d="M170.51,156.69a1.39,1.39,0,0,0,0-2.78,1.39,1.39,0,0,0,0,2.78m0.13,0.64a1.59,1.59,0,0,1-1.35-.68h0v2.52H168.5v-5.78h0.75V154h0a1.54,1.54,0,0,1,1.39-.7A2,2,0,0,1,170.64,157.33Z" transform="translate(-3.55 -3.55)"/><path class="cls-2" d="M173.64,157.22c0-1.28,0-2.61,0-3.84h0.72c0,0.16,0,.48,0,0.65h0a1.3,1.3,0,0,1,1.47-.72l0,0.7a1.1,1.1,0,0,0-1.43,1.19v2h-0.76" transform="translate(-3.55 -3.55)"/><path class="cls-2" d="M177,151.51a0.5,0.5,0,0,1,.51.49,0.51,0.51,0,1,1-.51-0.49m0.38,5.72h-0.76v-3.84h0.76v3.84Z" transform="translate(-3.55 -3.55)"/><path class="cls-2" d="M178.42,155.31a1.88,1.88,0,0,1,2-2,1.82,1.82,0,0,1,1.44.63l-0.55.45a1.05,1.05,0,0,0-.88-0.44,1.39,1.39,0,0,0,0,2.77,1.1,1.1,0,0,0,.92-0.42l0.51,0.46a1.77,1.77,0,0,1-1.43.6,1.9,1.9,0,0,1-2.07-2" transform="translate(-3.55 -3.55)"/><path class="cls-2" d="M184.4,153.28c1.3,0,1.9.87,1.84,2.25h-3a1.2,1.2,0,0,0,1.25,1.17,1.28,1.28,0,0,0,1.12-.58l0.53,0.43a1.92,1.92,0,0,1-1.65.79,2,2,0,0,1,0-4m1.08,1.68a1.07,1.07,0,0,0-1.54-1,1.12,1.12,0,0,0-.75,1h2.28Z" transform="translate(-3.55 -3.55)"/><path class="cls-2" d="M189.72,151.51a0.5,0.5,0,0,1,.51.49,0.51,0.51,0,1,1-.51-0.49m0.38,5.72h-0.76v-3.84h0.76v3.84Z" transform="translate(-3.55 -3.55)"/><path class="cls-2" d="M191.43,157.22c0-1.28,0-2.61,0-3.84h0.72c0,0.16,0,.45,0,0.63h0a1.34,1.34,0,0,1,1.25-.74,1.36,1.36,0,0,1,1.43,1.56v2.38H194.1v-2.13c0-.68-0.19-1.17-0.87-1.17a1.11,1.11,0,0,0-1,1.26v2h-0.76" transform="translate(-3.55 -3.55)"/><path class="cls-2" d="M199.75,151.66c-0.83,0-.66.93-0.68,1.73H200V154h-0.89v3.22h-0.76V154h-0.76v-0.62h0.76v-0.8a1.42,1.42,0,0,1,1.91-1.52l-0.09.66a1.35,1.35,0,0,0-.38-0.06" transform="translate(-3.55 -3.55)"/><path class="cls-2" d="M201.06,151.51a0.5,0.5,0,0,1,.51.49,0.51,0.51,0,1,1-.51-0.49m0.38,5.72h-0.76v-3.84h0.76v3.84Z" transform="translate(-3.55 -3.55)"/><polyline class="cls-2" points="199.99 153.68 199.23 153.68 199.23 150.61 199.23 147.55 199.99 147.55 199.99 150.61 199.99 153.68"/><path class="cls-2" d="M206.6,153.28c1.3,0,1.9.87,1.84,2.25h-3a1.2,1.2,0,0,0,1.25,1.17,1.28,1.28,0,0,0,1.12-.58l0.53,0.43a1.92,1.92,0,0,1-1.65.79,2,2,0,0,1,0-4m1.08,1.68a1.07,1.07,0,0,0-1.54-1,1.12,1.12,0,0,0-.75,1h2.28Z" transform="translate(-3.55 -3.55)"/><path class="cls-3" d="M238,8.5H132.25A2.23,2.23,0,0,0,130,10.75v22.5a2.23,2.23,0,0,0,2.25,2.25H238" transform="translate(-3.55 -3.55)"/><path class="cls-1" d="M238,8.5H132.25A2.23,2.23,0,0,0,130,10.75v22.5a2.23,2.23,0,0,0,2.25,2.25H238" transform="translate(-3.55 -3.55)"/><line class="cls-1" x1="148.05" y1="4.95" x2="148.05" y2="31.95"/><path class="cls-2" d="M138.38,19.58a0.85,0.85,0,0,0-1.15,0c-0.68.71-.72,2.57-0.36,3.66a1,1,0,0,0,.94.81c1.22,0,1.21-1.83,1.1-3.13a2.3,2.3,0,0,0-.53-1.34M136,22.88c-0.32-1.88,0-4.2,1.85-4.2,1.53,0,2,1.43,2,3a3.17,3.17,0,0,1-1.08,2.78,1.79,1.79,0,0,1-1.76,0A2.3,2.3,0,0,1,136,22.88Z" transform="translate(-3.55 -3.55)"/><polyline class="cls-2" points="139.74 21.02 138.95 21.02 138.95 18.63 138.95 16.24 137.87 17.14 137.41 16.6 139.03 15.28 139.74 15.28 139.74 18.15 139.74 21.02"/><path class="cls-2" d="M162.11,22.44a2.08,2.08,0,0,1-2.23,2.27,2.06,2.06,0,0,1-2.23-2.27V18.83h0.8v3.56a1.43,1.43,0,1,0,2.85,0V18.83h0.8v3.61" transform="translate(-3.55 -3.55)"/><path class="cls-2" d="M166.45,20.43c0-1-1.15-.92-2.19-0.92v1.85c1,0,2.19.09,2.19-.94m0.81,0c0,1.51-1.39,1.69-3,1.62v2.52h-0.8V18.83h1.75C166.4,18.85,167.26,19.24,167.26,20.43Z" transform="translate(-3.55 -3.55)"/><path class="cls-2" d="M171,24a1.78,1.78,0,0,0,1.54-.76l0.64,0.44a2.57,2.57,0,0,1-2.19,1,2.87,2.87,0,0,1-2.79-1.8,3.44,3.44,0,0,1,0-2.45,3,3,0,0,1,3.42-1.73,2.23,2.23,0,0,1,1.47.83l-0.63.49a1.73,1.73,0,0,0-1.43-.67,2.1,2.1,0,0,0-2.18,2.3A2.06,2.06,0,0,0,171,24" transform="translate(-3.55 -3.55)"/><path class="cls-2" d="M178,24a1.24,1.24,0,0,0,1.28-1.39A1.23,1.23,0,0,0,178,21.25a1.26,1.26,0,0,0-1.3,1.39A1.25,1.25,0,0,0,178,24m0.13,0.64a1.59,1.59,0,0,1-1.35-.68h0v2.52H176V20.73h0.75v0.6h0a1.54,1.54,0,0,1,1.39-.7,1.85,1.85,0,0,1,1.92,2A1.84,1.84,0,0,1,178.11,24.67Z" transform="translate(-3.55 -3.55)"/><path class="cls-2" d="M181.11,24.57c0-1.28,0-2.61,0-3.84h0.72c0,0.16,0,.48,0,0.65h0a1.3,1.3,0,0,1,1.47-.72l0,0.7a1.1,1.1,0,0,0-1.43,1.19v2h-0.76" transform="translate(-3.55 -3.55)"/><path class="cls-2" d="M184.43,18.85a0.5,0.5,0,0,1,.51.49,0.51,0.51,0,1,1-.51-0.49m0.38,5.72H184V20.73h0.76v3.84Z" transform="translate(-3.55 -3.55)"/><path class="cls-2" d="M185.89,22.65a1.88,1.88,0,0,1,2-2,1.82,1.82,0,0,1,1.44.63l-0.55.45a1.05,1.05,0,0,0-.88-0.44,1.24,1.24,0,0,0-1.26,1.39A1.24,1.24,0,0,0,188,24a1.1,1.1,0,0,0,.92-0.42l0.51,0.46a1.77,1.77,0,0,1-1.43.6,1.9,1.9,0,0,1-2.07-2" transform="translate(-3.55 -3.55)"/><path class="cls-2" d="M191.87,20.62c1.3,0,1.9.87,1.84,2.25h-3A1.2,1.2,0,0,0,191.91,24a1.28,1.28,0,0,0,1.12-.58l0.53,0.43a1.92,1.92,0,0,1-1.65.79,1.86,1.86,0,0,1-2-2,1.86,1.86,0,0,1,2-2m1.08,1.68a1.07,1.07,0,0,0-1.54-1,1.12,1.12,0,0,0-.75,1h2.28Z" transform="translate(-3.55 -3.55)"/><path class="cls-2" d="M198.4,19c-0.83,0-.66.93-0.68,1.73h0.89v0.62h-0.89v3.22H197V21.35H196.2V20.73H197v-0.8a1.42,1.42,0,0,1,1.91-1.52l-0.09.66A1.35,1.35,0,0,0,198.4,19" transform="translate(-3.55 -3.55)"/><path class="cls-2" d="M199.71,18.85a0.5,0.5,0,0,1,.51.49,0.51,0.51,0,1,1-.51-0.49m0.38,5.72h-0.76V20.73h0.76v3.84Z" transform="translate(-3.55 -3.55)"/><polyline class="cls-2" points="198.64 21.02 197.88 21.02 197.88 17.95 197.88 14.89 198.64 14.89 198.64 17.95 198.64 21.02"/><path class="cls-2" d="M205.25,20.62c1.3,0,1.9.87,1.84,2.25h-3A1.2,1.2,0,0,0,205.29,24a1.28,1.28,0,0,0,1.12-.58l0.53,0.43a1.92,1.92,0,0,1-1.65.79,1.86,1.86,0,0,1-2-2,1.86,1.86,0,0,1,2-2m1.08,1.68a1.07,1.07,0,0,0-1.54-1,1.12,1.12,0,0,0-.75,1h2.28Z" transform="translate(-3.55 -3.55)"/><line class="cls-1" x1="220.95" y1="134.32" x2="283.95" y2="134.32"/><polygon class="cls-2" points="220.95 134.78 220.95 134.78 220.95 133.88 220.95 134.78"/><polygon class="cls-2" points="283.95 134.32 277.51 136.4 277.51 132.25 283.95 134.32"/><path class="cls-2" d="M281.51,139.36l4.54-1.49-4.54-1.48v3Zm6-2v1l-6.88,2.2v-5.4Z" transform="translate(-3.55 -3.55)"/><rect class="cls-4" x="228.15" y="123.25" width="48.55" height="22.1"/><path class="cls-2" d="M235.39,130.77c0-1-1.15-.92-2.19-0.92v1.85c1,0,2.19.09,2.19-.94m0.81,0c0,1.51-1.39,1.69-3,1.62v2.52h-0.8v-5.73h1.75C235.34,129.19,236.2,129.58,236.2,130.77Z" transform="translate(-3.55 -3.55)"/><path class="cls-2" d="M236.8,134.9c0-1.28,0-2.61,0-3.84h0.72c0,0.16,0,.48,0,0.65h0A1.3,1.3,0,0,1,239,131l0,0.7a1.1,1.1,0,0,0-1.43,1.19v2H236.8" transform="translate(-3.55 -3.55)"/><path class="cls-2" d="M241.4,134.37a1.39,1.39,0,1,0-1.28-1.39,1.24,1.24,0,0,0,1.28,1.39m0-3.41a2,2,0,1,1-2.07,2A1.9,1.9,0,0,1,241.4,131Z" transform="translate(-3.55 -3.55)"/><path class="cls-2" d="M246.34,131.59a1.39,1.39,0,0,0,0,2.78,1.39,1.39,0,0,0,0-2.78M246.2,131a1.7,1.7,0,0,1,1.39.68v-2.86h0.76v6.12h-0.74a3.73,3.73,0,0,0,0-.61,1.6,1.6,0,0,1-1.39.71,1.84,1.84,0,0,1-1.94-2A1.86,1.86,0,0,1,246.2,131Z" transform="translate(-3.55 -3.55)"/><path class="cls-2" d="M253.07,131.07c0,1.28,0,2.61,0,3.84h-0.72c0-.16,0-0.49,0-0.63a1.41,1.41,0,0,1-1.26.74,1.36,1.36,0,0,1-1.43-1.56v-2.38h0.76v2.12c0,0.68.19,1.18,0.87,1.18a1.11,1.11,0,0,0,1-1.26v-2h0.76" transform="translate(-3.55 -3.55)"/><path class="cls-2" d="M254.14,133a1.88,1.88,0,0,1,2-2,1.82,1.82,0,0,1,1.44.63l-0.55.45a1.05,1.05,0,0,0-.88-0.44,1.39,1.39,0,0,0,0,2.77,1.1,1.1,0,0,0,.92-0.42l0.51,0.46a1.77,1.77,0,0,1-1.43.6,1.9,1.9,0,0,1-2.07-2" transform="translate(-3.55 -3.55)"/><path class="cls-2" d="M259.61,135a1,1,0,0,1-1.12-1.2v-2.08h-0.74v-0.62h0.74V130h0.75v1.1h1v0.62h-1v2c0,0.44.13,0.64,0.54,0.65a1.09,1.09,0,0,0,.45-0.1l0,0.62a1.94,1.94,0,0,1-.65.11" transform="translate(-3.55 -3.55)"/><path class="cls-2" d="M260.92,132.59c-0.5-1.26.95-2,2.14-1.47a1.3,1.3,0,0,1,.6.47l-0.53.45a1,1,0,0,0-.89-0.48,0.58,0.58,0,0,0-.71.5c0,0.59.92,0.51,1.39,0.73a1.08,1.08,0,0,1,.78,1c0.06,1.56-2.45,1.51-3.08.55l0.54-.46a1.24,1.24,0,0,0,1,.53,0.62,0.62,0,0,0,.76-0.56c0-.73-1.27-0.51-1.76-0.95a0.84,0.84,0,0,1-.26-0.3" transform="translate(-3.55 -3.55)"/><path class="cls-2" d="M267.93,134.4a1.09,1.09,0,0,0,1.11-1.33c-0.83,0-1.9,0-1.9.73a0.65,0.65,0,0,0,.79.6m-1.56-.58c0-1.24,1.4-1.26,2.67-1.3a0.83,0.83,0,0,0-.95-0.95A1.6,1.6,0,0,0,267,132l-0.4-.49a2.26,2.26,0,0,1,1.57-.58,1.42,1.42,0,0,1,1.6,1.51,23.92,23.92,0,0,0,.06,2.44h-0.69a2.56,2.56,0,0,1-.06-0.55h0a1.47,1.47,0,0,1-1.29.65A1.19,1.19,0,0,1,266.36,133.82Z" transform="translate(-3.55 -3.55)"/><path class="cls-2" d="M271,134.9c0-1.28,0-2.61,0-3.84h0.72c0,0.16,0,.45,0,0.63h0A1.34,1.34,0,0,1,273,131a1.36,1.36,0,0,1,1.43,1.56v2.38H273.7v-2.13c0-.68-0.19-1.17-0.87-1.17a1.11,1.11,0,0,0-1,1.26v2H271" transform="translate(-3.55 -3.55)"/><path class="cls-2" d="M277.56,131.59a1.39,1.39,0,0,0,0,2.78,1.39,1.39,0,0,0,0-2.78m-0.14-.63a1.7,1.7,0,0,1,1.39.68v-2.86h0.76v6.12h-0.74a3.73,3.73,0,0,0,0-.61,1.6,1.6,0,0,1-1.39.71,1.84,1.84,0,0,1-1.94-2A1.86,1.86,0,0,1,277.42,131Z" transform="translate(-3.55 -3.55)"/><path class="cls-2" d="M234.36,145.4a1.39,1.39,0,0,0,0-2.78,1.39,1.39,0,0,0,0,2.78m0.13,0.64a1.59,1.59,0,0,1-1.35-.68h0v2.52h-0.76v-5.78h0.75v0.6h0a1.54,1.54,0,0,1,1.39-.7A2,2,0,0,1,234.49,146Z" transform="translate(-3.55 -3.55)"/><path class="cls-2" d="M237.49,145.93c0-1.28,0-2.61,0-3.84h0.72c0,0.16,0,.48,0,0.65h0a1.3,1.3,0,0,1,1.47-.72l0,0.7a1.1,1.1,0,0,0-1.43,1.19v2h-0.76" transform="translate(-3.55 -3.55)"/><path class="cls-2" d="M240.81,140.21a0.5,0.5,0,0,1,.51.49,0.51,0.51,0,1,1-.51-0.49m0.38,5.72h-0.76v-3.84h0.76v3.84Z" transform="translate(-3.55 -3.55)"/><path class="cls-2" d="M242.27,144a1.88,1.88,0,0,1,2-2,1.82,1.82,0,0,1,1.44.63l-0.55.45a1.05,1.05,0,0,0-.88-0.44,1.39,1.39,0,0,0,0,2.77,1.1,1.1,0,0,0,.92-0.42l0.51,0.46a1.77,1.77,0,0,1-1.43.6,1.9,1.9,0,0,1-2.07-2" transform="translate(-3.55 -3.55)"/><path class="cls-2" d="M248.26,142c1.3,0,1.9.87,1.84,2.25h-3a1.2,1.2,0,0,0,1.25,1.17,1.28,1.28,0,0,0,1.12-.58l0.53,0.43a1.92,1.92,0,0,1-1.65.79,2,2,0,0,1,0-4m1.08,1.68a1.07,1.07,0,0,0-1.54-1,1.12,1.12,0,0,0-.75,1h2.28Z" transform="translate(-3.55 -3.55)"/><path class="cls-2" d="M251,143.61c-0.5-1.26.95-2,2.14-1.47a1.3,1.3,0,0,1,.6.47l-0.53.45a1,1,0,0,0-.89-0.48,0.58,0.58,0,0,0-.71.5c0,0.59.92,0.51,1.39,0.73a1.08,1.08,0,0,1,.78,1c0.06,1.56-2.45,1.51-3.08.55l0.54-.46a1.24,1.24,0,0,0,1,.53,0.62,0.62,0,0,0,.76-0.56c0-.73-1.27-0.51-1.76-0.95a0.84,0.84,0,0,1-.26-0.3" transform="translate(-3.55 -3.55)"/><path class="cls-3" d="M291.37,97.2h66.15a7.42,7.42,0,0,1,7.42,7.42V164a7.43,7.43,0,0,1-7.43,7.43H291.38a7.43,7.43,0,0,1-7.43-7.43v-59.4A7.42,7.42,0,0,1,291.37,97.2Z"/><path class="cls-1" d="M291.37,97.2h66.15a7.42,7.42,0,0,1,7.42,7.42V164a7.43,7.43,0,0,1-7.43,7.43H291.38a7.43,7.43,0,0,1-7.43-7.43v-59.4A7.42,7.42,0,0,1,291.37,97.2Z"/><line class="cls-1" x1="283.95" y1="119.7" x2="364.95" y2="119.7"/><path class="cls-2" d="M299,113c0-.87-0.77-1.09-1.68-1.06v-0.65c0.85,0,1.53-.15,1.53-1a0.92,0.92,0,0,0-1-.95,1,1,0,0,0-1,.7l-0.71-.25a1.81,1.81,0,0,1,1.75-1.11,1.53,1.53,0,0,1,1.77,1.56,1.34,1.34,0,0,1-1,1.32,1.36,1.36,0,0,1,1.17,1.4,1.7,1.7,0,0,1-1.92,1.75,1.89,1.89,0,0,1-2-1.26l0.73-.24a1.21,1.21,0,0,0,1.21.84A1,1,0,0,0,299,113" transform="translate(-3.55 -3.55)"/><path class="cls-2" d="M299.29,147.55c0-1-1.15-.92-2.19-0.92v1.85c1,0,2.19.09,2.19-.94m0.81,0c0,1.51-1.39,1.69-3,1.62v2.52h-0.8V146H298C299.24,146,300.1,146.37,300.1,147.55Z" transform="translate(-3.55 -3.55)"/><path class="cls-2" d="M300.7,151.69c0-1.28,0-2.61,0-3.84h0.72c0,0.16,0,.48,0,0.65h0a1.3,1.3,0,0,1,1.47-.72l0,0.7a1.1,1.1,0,0,0-1.43,1.19v2H300.7" transform="translate(-3.55 -3.55)"/><path class="cls-2" d="M305.3,151.16a1.39,1.39,0,1,0-1.28-1.39,1.24,1.24,0,0,0,1.28,1.39m0-3.41a2,2,0,1,1-2.07,2A1.9,1.9,0,0,1,305.3,147.75Z" transform="translate(-3.55 -3.55)"/><path class="cls-2" d="M308.18,149.77a1.88,1.88,0,0,1,2-2,1.82,1.82,0,0,1,1.44.63l-0.55.45a1.05,1.05,0,0,0-.88-0.44,1.39,1.39,0,0,0,0,2.77,1.1,1.1,0,0,0,.92-0.42l0.51,0.46a1.77,1.77,0,0,1-1.43.6,1.9,1.9,0,0,1-2.07-2" transform="translate(-3.55 -3.55)"/><path class="cls-2" d="M314.17,147.75c1.3,0,1.9.87,1.84,2.25h-3a1.2,1.2,0,0,0,1.25,1.17,1.28,1.28,0,0,0,1.12-.58l0.53,0.43a1.92,1.92,0,0,1-1.65.79,2,2,0,0,1,0-4m1.08,1.68a1.07,1.07,0,0,0-1.54-1,1.12,1.12,0,0,0-.75,1h2.28Z" transform="translate(-3.55 -3.55)"/><path class="cls-2" d="M316.94,149.37c-0.5-1.26.95-2,2.14-1.47a1.3,1.3,0,0,1,.6.47l-0.53.45a1,1,0,0,0-.89-0.48,0.58,0.58,0,0,0-.71.5c0,0.59.92,0.51,1.39,0.73a1.08,1.08,0,0,1,.78,1c0.06,1.56-2.45,1.51-3.08.55l0.54-.46a1.24,1.24,0,0,0,1,.53,0.62,0.62,0,0,0,.76-0.56c0-.73-1.27-0.51-1.76-0.95a0.84,0.84,0,0,1-.26-0.3" transform="translate(-3.55 -3.55)"/><path class="cls-2" d="M320.53,149.37c-0.5-1.26.95-2,2.14-1.47a1.3,1.3,0,0,1,.6.47l-0.53.45a1,1,0,0,0-.89-0.48,0.58,0.58,0,0,0-.71.5c0,0.59.92,0.51,1.39,0.73a1.08,1.08,0,0,1,.78,1c0.06,1.56-2.45,1.51-3.08.55l0.54-.46a1.24,1.24,0,0,0,1,.53,0.62,0.62,0,0,0,.76-0.56c0-.73-1.27-0.51-1.76-0.95a0.84,0.84,0,0,1-.26-0.3" transform="translate(-3.55 -3.55)"/><line class="cls-1" x1="364.95" y1="134.32" x2="432.45" y2="134.32"/><polygon class="cls-2" points="364.95 134.78 364.95 134.78 364.95 133.88 364.95 134.78"/><polygon class="cls-2" points="432.45 134.32 426.01 136.4 426.01 132.25 432.45 134.32"/><path class="cls-2" d="M430,139.36l4.54-1.49L430,136.39v3Zm6-2v1l-6.88,2.2v-5.4Z" transform="translate(-3.55 -3.55)"/><rect class="cls-4" x="378.86" y="123.25" width="39.64" height="22.1"/><path class="cls-2" d="M384.2,132.79h2.15l-1.07-2.69m-1.94,4.8h-0.89l2.49-5.73h0.73l2.46,5.73h-0.91l-0.58-1.41h-2.72Z" transform="translate(-3.55 -3.55)"/><path class="cls-2" d="M389.57,131.7a1.34,1.34,0,0,1,1.22-.74,1.2,1.2,0,0,1,1.19.77,1.41,1.41,0,0,1,1.3-.77,1.36,1.36,0,0,1,1.43,1.56v2.38H394v-2.13c0-.66-0.19-1.17-0.85-1.17-1.39,0-.87,2-1,3.3h-0.76v-2.28a0.83,0.83,0,0,0-.81-1,1.11,1.11,0,0,0-1,1.26v2h-0.76c0-1.28,0-2.61,0-3.84h0.72c0,0.16,0,.45,0,0.63h0" transform="translate(-3.55 -3.55)"/><path class="cls-2" d="M397.82,134.37a1.39,1.39,0,1,0-1.28-1.39,1.24,1.24,0,0,0,1.28,1.39m0-3.41a2,2,0,1,1-2.07,2A1.9,1.9,0,0,1,397.82,131Z" transform="translate(-3.55 -3.55)"/><path class="cls-2" d="M404.34,131.07c0,1.28,0,2.61,0,3.84h-0.72c0-.16,0-0.49,0-0.63a1.41,1.41,0,0,1-1.26.74,1.36,1.36,0,0,1-1.43-1.56v-2.38h0.76v2.12c0,0.68.19,1.18,0.87,1.18a1.11,1.11,0,0,0,1-1.26v-2h0.76" transform="translate(-3.55 -3.55)"/><path class="cls-2" d="M405.66,134.9c0-1.28,0-2.61,0-3.84h0.72c0,0.16,0,.45,0,0.63h0a1.34,1.34,0,0,1,1.25-.74,1.36,1.36,0,0,1,1.43,1.56v2.38h-0.76v-2.13c0-.68-0.19-1.17-0.87-1.17a1.11,1.11,0,0,0-1,1.26v2h-0.76" transform="translate(-3.55 -3.55)"/><path class="cls-2" d="M411.6,135a1,1,0,0,1-1.12-1.2v-2.08h-0.74v-0.62h0.74V130h0.75v1.1h1v0.62h-1v2c0,0.44.13,0.64,0.54,0.65a1.09,1.09,0,0,0,.45-0.1l0,0.62a1.94,1.94,0,0,1-.65.11" transform="translate(-3.55 -3.55)"/><path class="cls-2" d="M416.28,135a1,1,0,0,1-1.12-1.2v-2.08h-0.74v-0.62h0.74V130h0.75v1.1h1v0.62h-1v2c0,0.44.13,0.64,0.54,0.65a1.09,1.09,0,0,0,.45-0.1l0,0.62a1.94,1.94,0,0,1-.65.11" transform="translate(-3.55 -3.55)"/><path class="cls-2" d="M419.54,134.37a1.39,1.39,0,1,0-1.28-1.39,1.24,1.24,0,0,0,1.28,1.39m0-3.41a2,2,0,1,1-2.07,2A1.9,1.9,0,0,1,419.54,131Z" transform="translate(-3.55 -3.55)"/><path class="cls-2" d="M385.09,145.4a1.39,1.39,0,0,0,0-2.78,1.39,1.39,0,0,0,0,2.78m0.13,0.64a1.62,1.62,0,0,1-1.39-.71h0v0.61h-0.74v-6.12h0.76v2.86h0a1.6,1.6,0,0,1,1.37-.68A2,2,0,0,1,385.22,146Z" transform="translate(-3.55 -3.55)"/><path class="cls-2" d="M389.95,142c1.3,0,1.9.87,1.84,2.25h-3A1.2,1.2,0,0,0,390,145.4a1.28,1.28,0,0,0,1.12-.58l0.53,0.43A1.92,1.92,0,0,1,390,146a2,2,0,0,1,0-4m1.08,1.68a1.07,1.07,0,0,0-1.54-1,1.12,1.12,0,0,0-.75,1H391Z" transform="translate(-3.55 -3.55)"/><path class="cls-2" d="M396.86,145.4a1.39,1.39,0,0,0,0-2.78,1.39,1.39,0,0,0,0,2.78M397,146a1.59,1.59,0,0,1-1.35-.68h0v2.52h-0.76v-5.78h0.75v0.6h0A1.54,1.54,0,0,1,397,142,2,2,0,0,1,397,146Z" transform="translate(-3.55 -3.55)"/><path class="cls-2" d="M401.27,145.43a1.09,1.09,0,0,0,1.11-1.33c-0.83,0-1.9,0-1.9.73a0.65,0.65,0,0,0,.79.6m-1.56-.58c0-1.24,1.4-1.26,2.67-1.3a0.83,0.83,0,0,0-.95-0.95,1.6,1.6,0,0,0-1.09.45l-0.4-.49a2.26,2.26,0,0,1,1.57-.58,1.42,1.42,0,0,1,1.6,1.51,23.92,23.92,0,0,0,.06,2.44h-0.69a2.56,2.56,0,0,1-.06-0.55h0a1.47,1.47,0,0,1-1.29.65A1.19,1.19,0,0,1,399.7,144.84Z" transform="translate(-3.55 -3.55)"/><path class="cls-2" d="M404.77,140.21a0.5,0.5,0,0,1,.51.49,0.51,0.51,0,1,1-.51-0.49m0.38,5.72h-0.76v-3.84h0.76v3.84Z" transform="translate(-3.55 -3.55)"/><path class="cls-2" d="M408.28,142.62a1.39,1.39,0,0,0,0,2.78,1.39,1.39,0,0,0,0-2.78m-0.14-.63a1.7,1.7,0,0,1,1.39.68v-2.86h0.76v6.12h-0.74a3.73,3.73,0,0,0,0-.61,1.6,1.6,0,0,1-1.39.71,1.84,1.84,0,0,1-1.94-2A1.86,1.86,0,0,1,408.14,142Z" transform="translate(-3.55 -3.55)"/><path class="cls-3" d="M439.87,97.2H515a7.42,7.42,0,0,1,7.42,7.42V164a7.43,7.43,0,0,1-7.43,7.43H439.88a7.43,7.43,0,0,1-7.43-7.43v-59.4A7.42,7.42,0,0,1,439.87,97.2Z"/><path class="cls-1" d="M439.87,97.2H515a7.42,7.42,0,0,1,7.42,7.42V164a7.43,7.43,0,0,1-7.43,7.43H439.88a7.43,7.43,0,0,1-7.43-7.43v-59.4A7.42,7.42,0,0,1,439.87,97.2Z"/><line class="cls-1" x1="432.45" y1="119.7" x2="522.45" y2="119.7"/><path class="cls-2" d="M447.89,112.6c0-1,0-2,0-2.88l-1.81,2.88h1.83m0.76,0h0.83v0.67h-0.83v1.29h-0.76v-1.29h-2.64v-0.71l2.44-3.73h1v3.77Z" transform="translate(-3.55 -3.55)"/><path class="cls-2" d="M448.43,140.05a1.78,1.78,0,0,0,1.54-.76l0.64,0.44a2.57,2.57,0,0,1-2.19,1,2.87,2.87,0,0,1-2.79-1.8,3.44,3.44,0,0,1,0-2.45A3,3,0,0,1,449,134.8a2.23,2.23,0,0,1,1.47.83l-0.63.49a1.73,1.73,0,0,0-1.43-.67,2.1,2.1,0,0,0-2.18,2.3,2.06,2.06,0,0,0,2.15,2.31" transform="translate(-3.55 -3.55)"/><path class="cls-2" d="M453.11,140.09a1.39,1.39,0,1,0-1.28-1.39,1.24,1.24,0,0,0,1.28,1.39m0-3.41a2,2,0,1,1-2.07,2A1.9,1.9,0,0,1,453.11,136.68Z" transform="translate(-3.55 -3.55)"/><polyline class="cls-2" points="453.46 137.07 452.7 137.07 452.7 134.01 452.7 130.95 453.46 130.95 453.46 134.01 453.46 137.07"/><polyline class="cls-2" points="455.57 137.07 454.81 137.07 454.81 134.01 454.81 130.95 455.57 130.95 455.57 134.01 455.57 137.07"/><path class="cls-2" d="M462.18,136.68c1.3,0,1.9.87,1.84,2.25h-3a1.2,1.2,0,0,0,1.25,1.17,1.28,1.28,0,0,0,1.12-.58l0.53,0.43a1.92,1.92,0,0,1-1.65.79,2,2,0,0,1,0-4m1.08,1.68a1.07,1.07,0,0,0-1.54-1,1.12,1.12,0,0,0-.75,1h2.28Z" transform="translate(-3.55 -3.55)"/><path class="cls-2" d="M464.84,138.7a1.88,1.88,0,0,1,2-2,1.82,1.82,0,0,1,1.44.63l-0.55.45a1.05,1.05,0,0,0-.88-0.44,1.39,1.39,0,0,0,0,2.77,1.1,1.1,0,0,0,.92-0.42l0.51,0.46a1.77,1.77,0,0,1-1.43.6,1.9,1.9,0,0,1-2.07-2" transform="translate(-3.55 -3.55)"/><path class="cls-2" d="M470.31,140.68a1,1,0,0,1-1.12-1.2V137.4h-0.74v-0.62h0.74v-1.1h0.75v1.1h1v0.62h-1v2c0,0.44.13,0.64,0.54,0.65a1.09,1.09,0,0,0,.45-0.1l0,0.62a1.94,1.94,0,0,1-.65.11" transform="translate(-3.55 -3.55)"/><path class="cls-2" d="M474.48,137.41a1.34,1.34,0,0,1,1.22-.74,1.2,1.2,0,0,1,1.19.77,1.41,1.41,0,0,1,1.3-.77,1.36,1.36,0,0,1,1.43,1.56v2.38h-0.76v-2.13c0-.66-0.19-1.17-0.85-1.17-1.39,0-.87,2-1,3.3h-0.76v-2.28a0.83,0.83,0,0,0-.81-1,1.11,1.11,0,0,0-1,1.26v2h-0.76c0-1.28,0-2.61,0-3.84h0.72c0,0.16,0,.45,0,0.63h0" transform="translate(-3.55 -3.55)"/><path class="cls-2" d="M482.74,140.09a1.39,1.39,0,1,0-1.28-1.39,1.24,1.24,0,0,0,1.28,1.39m0-3.41a2,2,0,1,1-2.07,2A1.9,1.9,0,0,1,482.74,136.68Z" transform="translate(-3.55 -3.55)"/><path class="cls-2" d="M485.86,140.62c0-1.28,0-2.61,0-3.84h0.72c0,0.16,0,.45,0,0.63h0a1.34,1.34,0,0,1,1.25-.74,1.36,1.36,0,0,1,1.43,1.56v2.38h-0.76v-2.13c0-.68-0.19-1.17-0.87-1.17a1.11,1.11,0,0,0-1,1.26v2h-0.76" transform="translate(-3.55 -3.55)"/><path class="cls-2" d="M492.31,136.68c1.3,0,1.9.87,1.84,2.25h-3a1.2,1.2,0,0,0,1.25,1.17,1.28,1.28,0,0,0,1.12-.58l0.53,0.43a1.92,1.92,0,0,1-1.65.79,2,2,0,0,1,0-4m1.08,1.68a1.07,1.07,0,0,0-1.54-1,1.12,1.12,0,0,0-.75,1h2.28Z" transform="translate(-3.55 -3.55)"/><path class="cls-2" d="M495.48,136.78c0.41,1,.78,2,1.21,3l1.06-3h0.81l-1.86,4.75a1.4,1.4,0,0,1-1.83,1l0.07-.67a0.79,0.79,0,0,0,.83-0.1,4.73,4.73,0,0,0,.51-1.12l-1.64-3.84h0.85" transform="translate(-3.55 -3.55)"/><path class="cls-2" d="M502.65,140.12a1.09,1.09,0,0,0,1.11-1.33c-0.83,0-1.9,0-1.9.73a0.65,0.65,0,0,0,.79.6m-1.56-.58c0-1.24,1.4-1.26,2.67-1.3a0.83,0.83,0,0,0-.95-0.95,1.6,1.6,0,0,0-1.09.45l-0.41-.49a2.26,2.26,0,0,1,1.57-.58,1.42,1.42,0,0,1,1.6,1.51,23.91,23.91,0,0,0,.06,2.44h-0.69a2.56,2.56,0,0,1-.06-0.55h0a1.47,1.47,0,0,1-1.29.65A1.19,1.19,0,0,1,501.08,139.53Z" transform="translate(-3.55 -3.55)"/><path class="cls-2" d="M505.76,140.62c0-1.28,0-2.61,0-3.84h0.72c0,0.16,0,.45,0,0.63h0a1.34,1.34,0,0,1,1.25-.74,1.36,1.36,0,0,1,1.43,1.56v2.38h-0.76v-2.13c0-.68-0.19-1.17-0.87-1.17a1.11,1.11,0,0,0-1,1.26v2h-0.76" transform="translate(-3.55 -3.55)"/><path class="cls-2" d="M512.28,137.31a1.39,1.39,0,0,0,0,2.78,1.39,1.39,0,0,0,0-2.78m-0.14-.63a1.7,1.7,0,0,1,1.39.68V134.5h0.76v6.12h-0.74a3.74,3.74,0,0,0,0-.61,1.6,1.6,0,0,1-1.39.71,1.84,1.84,0,0,1-1.94-2A1.86,1.86,0,0,1,512.14,136.68Z" transform="translate(-3.55 -3.55)"/><path class="cls-2" d="M447.46,148.38a1.36,1.36,0,0,0,0,2.71,1.35,1.35,0,0,0,0-2.71m2,3.12a1.92,1.92,0,0,1-2.12,2.14,2.81,2.81,0,0,1-1.88-.7l0.49-.59a2,2,0,0,0,1.4.62c1.1,0,1.47-.77,1.34-1.91a1.56,1.56,0,0,1-1.35.66,2,2,0,0,1,0-4,1.63,1.63,0,0,1,1.4.72v-0.62h0.74v3.64Z" transform="translate(-3.55 -3.55)"/><path class="cls-2" d="M451.16,146a0.5,0.5,0,0,1,.51.49,0.51,0.51,0,1,1-.51-0.49m0.38,5.72h-0.76v-3.84h0.76v3.84Z" transform="translate(-3.55 -3.55)"/><path class="cls-2" d="M454.68,151.69h-0.83l-1.56-3.84h0.84c0.38,1,.74,2,1.14,3l1.13-3h0.81" transform="translate(-3.55 -3.55)"/><path class="cls-2" d="M458.69,147.75c1.3,0,1.9.87,1.84,2.25h-3a1.2,1.2,0,0,0,1.25,1.17,1.28,1.28,0,0,0,1.12-.58l0.53,0.43a1.92,1.92,0,0,1-1.65.79,2,2,0,0,1,0-4m1.08,1.68a1.07,1.07,0,0,0-1.54-1,1.12,1.12,0,0,0-.75,1h2.28Z" transform="translate(-3.55 -3.55)"/><path class="cls-2" d="M463.61,151.69c0-1.28,0-2.61,0-3.84h0.72c0,0.16,0,.48,0,0.65h0a1.3,1.3,0,0,1,1.47-.72l0,0.7a1.1,1.1,0,0,0-1.43,1.19v2h-0.76" transform="translate(-3.55 -3.55)"/><path class="cls-2" d="M468.13,147.75c1.3,0,1.9.87,1.84,2.25h-3a1.2,1.2,0,0,0,1.25,1.17,1.28,1.28,0,0,0,1.12-.58l0.53,0.43a1.92,1.92,0,0,1-1.65.79,2,2,0,0,1,0-4m1.08,1.68a1.07,1.07,0,0,0-1.54-1,1.12,1.12,0,0,0-.75,1h2.28Z" transform="translate(-3.55 -3.55)"/><path class="cls-2" d="M470.79,149.77a1.88,1.88,0,0,1,2-2,1.82,1.82,0,0,1,1.44.63l-0.55.45a1.05,1.05,0,0,0-.88-0.44,1.39,1.39,0,0,0,0,2.77,1.1,1.1,0,0,0,.92-0.42l0.51,0.46a1.77,1.77,0,0,1-1.43.6,1.9,1.9,0,0,1-2.07-2" transform="translate(-3.55 -3.55)"/><path class="cls-2" d="M476.77,147.75c1.3,0,1.9.87,1.84,2.25h-3a1.2,1.2,0,0,0,1.25,1.17,1.28,1.28,0,0,0,1.12-.58l0.53,0.43a1.92,1.92,0,0,1-1.65.79,2,2,0,0,1,0-4m1.08,1.68a1.07,1.07,0,0,0-1.54-1,1.12,1.12,0,0,0-.75,1h2.28Z" transform="translate(-3.55 -3.55)"/><path class="cls-2" d="M480.07,146a0.5,0.5,0,0,1,.51.49,0.51,0.51,0,1,1-.51-0.49m0.38,5.72h-0.76v-3.84h0.76v3.84Z" transform="translate(-3.55 -3.55)"/><path class="cls-2" d="M483.79,151.16a1.39,1.39,0,0,0,0-2.78,1.39,1.39,0,0,0,0,2.78m0.13,0.64a1.59,1.59,0,0,1-1.35-.68h0v2.52h-0.76v-5.78h0.75v0.6h0a1.54,1.54,0,0,1,1.39-.7A2,2,0,0,1,483.92,151.8Z" transform="translate(-3.55 -3.55)"/><path class="cls-2" d="M488.14,151.75a1,1,0,0,1-1.12-1.2v-2.08h-0.74v-0.62H487v-1.1h0.75v1.1h1v0.62h-1v2c0,0.44.13,0.64,0.54,0.65a1.09,1.09,0,0,0,.45-0.1l0,0.62a1.94,1.94,0,0,1-.65.11" transform="translate(-3.55 -3.55)"/><path class="cls-2" d="M447,157.13a5.7,5.7,0,0,0-1,3.25,5.64,5.64,0,0,0,1,3.25l-0.55.36a6.2,6.2,0,0,1-.86-5.56,6.5,6.5,0,0,1,.86-1.65" transform="translate(-3.55 -3.55)"/><path class="cls-2" d="M449,159.51a1.34,1.34,0,0,1,1.22-.74,1.2,1.2,0,0,1,1.19.77,1.41,1.41,0,0,1,1.3-.77,1.36,1.36,0,0,1,1.43,1.56v2.38h-0.76v-2.13c0-.66-0.19-1.17-0.85-1.17-1.39,0-.87,2-1,3.3h-0.76v-2.28a0.83,0.83,0,0,0-.81-1,1.11,1.11,0,0,0-1,1.26v2h-0.76c0-1.28,0-2.61,0-3.84h0.72c0,0.16,0,.45,0,0.63h0" transform="translate(-3.55 -3.55)"/><path class="cls-2" d="M456.67,162.21a1.09,1.09,0,0,0,1.11-1.33c-0.83,0-1.9,0-1.9.73a0.65,0.65,0,0,0,.79.6m-1.56-.58c0-1.24,1.4-1.26,2.67-1.3a0.83,0.83,0,0,0-.95-0.95,1.6,1.6,0,0,0-1.09.45l-0.4-.49a2.26,2.26,0,0,1,1.57-.58,1.42,1.42,0,0,1,1.6,1.51,23.92,23.92,0,0,0,.06,2.44h-0.69a2.56,2.56,0,0,1-.06-0.55h0a1.47,1.47,0,0,1-1.29.65A1.19,1.19,0,0,1,455.11,161.63Z" transform="translate(-3.55 -3.55)"/><path class="cls-2" d="M459.78,162.71c0-1.28,0-2.61,0-3.84h0.72c0,0.16,0,.45,0,0.63h0a1.34,1.34,0,0,1,1.25-.74,1.36,1.36,0,0,1,1.43,1.56v2.38h-0.76v-2.13c0-.68-0.19-1.17-0.87-1.17a1.11,1.11,0,0,0-1,1.26v2h-0.76" transform="translate(-3.55 -3.55)"/><path class="cls-2" d="M467.89,158.88c0,1.28,0,2.61,0,3.84H467.2c0-.16,0-0.49,0-0.63a1.41,1.41,0,0,1-1.26.74,1.36,1.36,0,0,1-1.43-1.56v-2.38h0.76V161c0,0.68.19,1.18,0.87,1.18a1.11,1.11,0,0,0,1-1.26v-2h0.76" transform="translate(-3.55 -3.55)"/><path class="cls-2" d="M470.49,162.21a1.09,1.09,0,0,0,1.11-1.33c-0.83,0-1.9,0-1.9.73a0.65,0.65,0,0,0,.79.6m-1.56-.58c0-1.24,1.4-1.26,2.67-1.3a0.83,0.83,0,0,0-.95-0.95,1.6,1.6,0,0,0-1.09.45l-0.4-.49a2.26,2.26,0,0,1,1.57-.58,1.42,1.42,0,0,1,1.6,1.51,23.92,23.92,0,0,0,.06,2.44H471.7a2.56,2.56,0,0,1-.06-0.55h0a1.47,1.47,0,0,1-1.29.65A1.19,1.19,0,0,1,468.93,161.63Z" transform="translate(-3.55 -3.55)"/><polyline class="cls-2" points="470.83 159.16 470.07 159.16 470.07 156.1 470.07 153.04 470.83 153.04 470.83 156.1 470.83 159.16"/><path class="cls-2" d="M475.59,163.63a5.7,5.7,0,0,0,1-3.25,5.64,5.64,0,0,0-1-3.25l0.55-.36a6.2,6.2,0,0,1,.86,5.56,6.51,6.51,0,0,1-.86,1.65" transform="translate(-3.55 -3.55)"/><path class="cls-3" d="M382,8.5H276.25A2.23,2.23,0,0,0,274,10.75v22.5a2.23,2.23,0,0,0,2.25,2.25H382" transform="translate(-3.55 -3.55)"/><path class="cls-1" d="M382,8.5H276.25A2.23,2.23,0,0,0,274,10.75v22.5a2.23,2.23,0,0,0,2.25,2.25H382" transform="translate(-3.55 -3.55)"/><line class="cls-1" x1="292.05" y1="4.95" x2="292.05" y2="31.95"/><path class="cls-2" d="M282.38,19.58a0.85,0.85,0,0,0-1.15,0c-0.68.71-.72,2.57-0.36,3.66a1,1,0,0,0,.94.81c1.21,0,1.21-1.83,1.1-3.13a2.3,2.3,0,0,0-.53-1.34M280,22.88c-0.32-1.88,0-4.2,1.85-4.2,1.53,0,2,1.43,2,3a3.17,3.17,0,0,1-1.08,2.78,1.79,1.79,0,0,1-1.76,0A2.3,2.3,0,0,1,280,22.88Z" transform="translate(-3.55 -3.55)"/><path class="cls-2" d="M286.61,18.68a1.63,1.63,0,0,1,1.74,2.14A2.64,2.64,0,0,1,287.5,22l-1.86,1.81h2.81v0.7h-3.74V23.81L287,21.54a1.75,1.75,0,0,0,.63-1.22,0.94,0.94,0,0,0-1-1,1.08,1.08,0,0,0-1.08,1l-0.77-.13a1.76,1.76,0,0,1,1.85-1.52" transform="translate(-3.55 -3.55)"/><polyline class="cls-2" points="300.15 21.02 299.35 21.02 299.35 18.5 299.35 15.98 297.51 15.98 297.51 15.63 297.51 15.28 301.99 15.28 301.99 15.63 301.99 15.98 300.15 15.98 300.15 18.5 300.15 21.02"/><path class="cls-2" d="M307.22,20.62c1.3,0,1.9.87,1.84,2.25h-3A1.2,1.2,0,0,0,307.26,24a1.28,1.28,0,0,0,1.12-.58l0.53,0.43a1.92,1.92,0,0,1-1.65.79,1.86,1.86,0,0,1-2-2,1.86,1.86,0,0,1,2-2m1.08,1.68a1.07,1.07,0,0,0-1.54-1,1.12,1.12,0,0,0-.75,1h2.28Z" transform="translate(-3.55 -3.55)"/><path class="cls-2" d="M310.87,21.36a1.34,1.34,0,0,1,1.22-.74,1.2,1.2,0,0,1,1.19.77,1.41,1.41,0,0,1,1.3-.77A1.36,1.36,0,0,1,316,22.18v2.38h-0.76V22.43c0-.66-0.19-1.17-0.85-1.17-1.39,0-.87,2-1,3.3h-0.76V22.28a0.83,0.83,0,0,0-.81-1,1.11,1.11,0,0,0-1,1.26v2h-0.76c0-1.28,0-2.61,0-3.84h0.72c0,0.16,0,.45,0,0.63h0" transform="translate(-3.55 -3.55)"/><path class="cls-2" d="M319.32,24a1.24,1.24,0,0,0,1.28-1.39,1.23,1.23,0,0,0-1.28-1.39,1.26,1.26,0,0,0-1.3,1.39,1.25,1.25,0,0,0,1.3,1.39m0.13,0.64A1.59,1.59,0,0,1,318.1,24h0v2.52h-0.76V20.73h0.75v0.6h0a1.54,1.54,0,0,1,1.39-.7,1.85,1.85,0,0,1,1.92,2A1.84,1.84,0,0,1,319.45,24.67Z" transform="translate(-3.55 -3.55)"/><path class="cls-2" d="M324.26,24a1.24,1.24,0,0,0,1.28-1.39,1.28,1.28,0,1,0-2.56,0A1.24,1.24,0,0,0,324.26,24m0-3.41a1.9,1.9,0,0,1,2.07,2,2.07,2.07,0,0,1-4.14,0A1.89,1.89,0,0,1,324.26,20.62Z" transform="translate(-3.55 -3.55)"/><path class="cls-2" d="M327.39,24.57c0-1.28,0-2.61,0-3.84h0.72c0,0.16,0,.48,0,0.65h0a1.3,1.3,0,0,1,1.47-.72l0,0.7a1.1,1.1,0,0,0-1.43,1.19v2h-0.76" transform="translate(-3.55 -3.55)"/><path class="cls-2" d="M331.5,24.06a1.09,1.09,0,0,0,1.11-1.33c-0.83,0-1.9,0-1.9.73a0.65,0.65,0,0,0,.79.6m-1.56-.58c0-1.24,1.4-1.26,2.67-1.3a0.83,0.83,0,0,0-.95-0.95,1.6,1.6,0,0,0-1.09.45l-0.4-.49a2.26,2.26,0,0,1,1.57-.58,1.42,1.42,0,0,1,1.6,1.51,23.92,23.92,0,0,0,.06,2.44H332.7a2.56,2.56,0,0,1-.06-0.55h0a1.47,1.47,0,0,1-1.29.65A1.19,1.19,0,0,1,329.93,23.48Z" transform="translate(-3.55 -3.55)"/><path class="cls-2" d="M334.61,24.57c0-1.28,0-2.61,0-3.84h0.72c0,0.16,0,.48,0,0.65h0a1.3,1.3,0,0,1,1.47-.72l0,0.7a1.1,1.1,0,0,0-1.43,1.19v2h-0.76" transform="translate(-3.55 -3.55)"/><path class="cls-2" d="M337.81,20.73c0.41,1,.78,2,1.21,3l1.06-3h0.81L339,25.47a1.4,1.4,0,0,1-1.83,1l0.07-.67a0.79,0.79,0,0,0,.83-0.1,4.73,4.73,0,0,0,.51-1.12L337,20.73h0.85" transform="translate(-3.55 -3.55)"/><path class="cls-2" d="M344.86,24.63a1,1,0,0,1-1.12-1.2V21.35H343V20.73h0.74v-1.1h0.75v1.1h1v0.62h-1v2c0,0.44.13,0.64,0.54,0.65a1.09,1.09,0,0,0,.45-0.1l0,0.62a1.94,1.94,0,0,1-.65.11" transform="translate(-3.55 -3.55)"/><path class="cls-2" d="M346.31,24.57c0-1.28,0-2.61,0-3.84H347c0,0.16,0,.48,0,0.65h0a1.3,1.3,0,0,1,1.47-.72l0,0.7a1.1,1.1,0,0,0-1.43,1.19v2h-0.76" transform="translate(-3.55 -3.55)"/><path class="cls-2" d="M350.41,24.06a1.09,1.09,0,0,0,1.11-1.33c-0.83,0-1.9,0-1.9.73a0.65,0.65,0,0,0,.79.6m-1.56-.58c0-1.24,1.4-1.26,2.67-1.3a0.83,0.83,0,0,0-.95-0.95,1.6,1.6,0,0,0-1.09.45l-0.4-.49a2.26,2.26,0,0,1,1.57-.58,1.42,1.42,0,0,1,1.6,1.51,23.92,23.92,0,0,0,.06,2.44h-0.69a2.56,2.56,0,0,1-.06-0.55h0a1.47,1.47,0,0,1-1.29.65A1.19,1.19,0,0,1,348.85,23.48Z" transform="translate(-3.55 -3.55)"/><path class="cls-2" d="M353.52,24.57c0-1.28,0-2.61,0-3.84h0.72c0,0.16,0,.45,0,0.63h0a1.34,1.34,0,0,1,1.25-.74,1.36,1.36,0,0,1,1.43,1.56v2.38h-0.76V22.43c0-.68-0.19-1.17-0.87-1.17a1.11,1.11,0,0,0-1,1.26v2h-0.76" transform="translate(-3.55 -3.55)"/><path class="cls-2" d="M358.1,22.25c-0.5-1.26.95-2,2.14-1.47a1.3,1.3,0,0,1,.6.47l-0.53.45a1,1,0,0,0-.89-0.48,0.58,0.58,0,0,0-.71.5c0,0.59.92,0.51,1.39,0.73a1.08,1.08,0,0,1,.78,1c0.06,1.56-2.45,1.51-3.08.55l0.54-.46a1.24,1.24,0,0,0,1,.53,0.62,0.62,0,0,0,.76-0.56c0-.73-1.27-0.51-1.76-0.95a0.84,0.84,0,0,1-.26-0.3" transform="translate(-3.55 -3.55)"/><path class="cls-2" d="M362.23,23.55a0.53,0.53,0,0,1,.54.53,0.54,0.54,0,0,1-1.09,0,0.54,0.54,0,0,1,.54-0.53" transform="translate(-3.55 -3.55)"/><path class="cls-2" d="M367.29,19c-0.83,0-.66.93-0.68,1.73h0.89v0.62h-0.89v3.22h-0.76V21.35h-0.76V20.73h0.76v-0.8a1.42,1.42,0,0,1,1.91-1.52l-0.09.66a1.35,1.35,0,0,0-.38-0.06" transform="translate(-3.55 -3.55)"/><path class="cls-2" d="M368.59,18.85a0.5,0.5,0,0,1,.51.49,0.51,0.51,0,1,1-.51-0.49M369,24.57h-0.76V20.73H369v3.84Z" transform="translate(-3.55 -3.55)"/><polyline class="cls-2" points="367.53 21.02 366.77 21.02 366.77 17.95 366.77 14.89 367.53 14.89 367.53 17.95 367.53 21.02"/><path class="cls-2" d="M374.14,20.62c1.3,0,1.9.87,1.84,2.25h-3A1.2,1.2,0,0,0,374.18,24a1.28,1.28,0,0,0,1.12-.58l0.53,0.43a1.92,1.92,0,0,1-1.65.79,1.86,1.86,0,0,1-2-2,1.86,1.86,0,0,1,2-2m1.08,1.68a1.07,1.07,0,0,0-1.54-1,1.12,1.12,0,0,0-.75,1h2.28Z" transform="translate(-3.55 -3.55)"/><rect class="cls-3" x="432.45" y="0.45" width="85.5" height="34.2" rx="2.25" ry="2.25"/><rect class="cls-1" x="432.45" y="0.45" width="85.5" height="34.2" rx="2.25" ry="2.25"/><rect class="cls-3" x="436.95" y="2.25" width="85.5" height="34.2" rx="2.25" ry="2.25"/><rect class="cls-1" x="436.95" y="2.25" width="85.5" height="34.2" rx="2.25" ry="2.25"/><path class="cls-2" d="M451,22.44a2.08,2.08,0,0,1-2.23,2.27,2.06,2.06,0,0,1-2.23-2.27V18.83h0.8v3.56a1.43,1.43,0,1,0,2.85,0V18.83H451v3.61" transform="translate(-3.55 -3.55)"/><path class="cls-2" d="M452.19,22.25c-0.5-1.26.95-2,2.14-1.47a1.3,1.3,0,0,1,.6.47l-0.53.45a1,1,0,0,0-.89-0.48,0.58,0.58,0,0,0-.71.5c0,0.59.92,0.51,1.39,0.73a1.08,1.08,0,0,1,.78,1c0.06,1.56-2.45,1.51-3.08.55l0.54-.46a1.24,1.24,0,0,0,1,.53,0.62,0.62,0,0,0,.76-0.56c0-.73-1.27-0.51-1.76-0.95a0.84,0.84,0,0,1-.26-0.3" transform="translate(-3.55 -3.55)"/><path class="cls-2" d="M457.65,20.62c1.3,0,1.9.87,1.84,2.25h-3A1.2,1.2,0,0,0,457.69,24a1.28,1.28,0,0,0,1.12-.58l0.53,0.43a1.92,1.92,0,0,1-1.65.79,1.86,1.86,0,0,1-2-2,1.86,1.86,0,0,1,2-2m1.08,1.68a1.07,1.07,0,0,0-1.54-1,1.12,1.12,0,0,0-.75,1h2.28Z" transform="translate(-3.55 -3.55)"/><path class="cls-2" d="M460.56,24.57c0-1.28,0-2.61,0-3.84h0.72c0,0.16,0,.48,0,0.65h0a1.3,1.3,0,0,1,1.47-.72l0,0.7a1.1,1.1,0,0,0-1.43,1.19v2h-0.76" transform="translate(-3.55 -3.55)"/><line class="cls-1" x1="483.16" y1="96.75" x2="483.16" y2="36.72"/><rect class="cls-2" x="482.71" y="96.75" width="0.9" height="0.45"/><polygon class="cls-2" points="485.28 43.11 481.1 43.11 483.17 36.72 485.28 43.11"/><path class="cls-2" d="M485.27,46.21h2.93l-1.49-4.5Zm4.14,0.9H484L486.35,40h0.76Z" transform="translate(-3.55 -3.55)"/><path class="cls-2" d="M493.75,66.7a1.78,1.78,0,0,0,1.54-.76l0.64,0.44a2.57,2.57,0,0,1-2.19,1,2.87,2.87,0,0,1-2.79-1.8,3.44,3.44,0,0,1,0-2.45,3,3,0,0,1,3.42-1.73,2.23,2.23,0,0,1,1.47.83l-0.63.49a1.73,1.73,0,0,0-1.43-.67,2.1,2.1,0,0,0-2.18,2.3,2.06,2.06,0,0,0,2.15,2.31" transform="translate(-3.55 -3.55)"/><path class="cls-2" d="M497.84,66.77a1.09,1.09,0,0,0,1.11-1.33c-0.83,0-1.9,0-1.9.73a0.65,0.65,0,0,0,.79.6m-1.56-.58c0-1.24,1.4-1.26,2.67-1.3a0.83,0.83,0,0,0-.95-0.95,1.6,1.6,0,0,0-1.09.45l-0.4-.49a2.26,2.26,0,0,1,1.57-.58,1.42,1.42,0,0,1,1.6,1.51,23.93,23.93,0,0,0,.06,2.44H499a2.55,2.55,0,0,1-.06-0.55h0a1.47,1.47,0,0,1-1.29.65A1.19,1.19,0,0,1,496.28,66.18Z" transform="translate(-3.55 -3.55)"/><path class="cls-2" d="M500.81,65c-0.5-1.26.95-2,2.14-1.47a1.3,1.3,0,0,1,.6.47L503,64.4a1,1,0,0,0-.89-0.48,0.58,0.58,0,0,0-.71.5c0,0.59.92,0.51,1.39,0.73a1.08,1.08,0,0,1,.78,1c0.06,1.56-2.45,1.51-3.08.55l0.54-.46a1.24,1.24,0,0,0,1,.53,0.62,0.62,0,0,0,.76-0.56c0-.73-1.27-0.51-1.76-0.95a0.84,0.84,0,0,1-.26-0.3" transform="translate(-3.55 -3.55)"/><path class="cls-2" d="M506.36,64a1.12,1.12,0,0,0-1,1.26v2h-0.76V61.15h0.76c0,0.95,0,1.94,0,2.87a1.35,1.35,0,0,1,1.21-.69A1.37,1.37,0,0,1,508,64.89v2.38h-0.76V65.15c0-.67-0.19-1.17-0.87-1.17" transform="translate(-3.55 -3.55)"/><path class="cls-2" d="M511.27,67.27c0-1.28,0-2.61,0-3.84H512c0,0.16,0,.48,0,0.65h0a1.3,1.3,0,0,1,1.47-.72l0,0.7A1.1,1.1,0,0,0,512,65.25v2h-0.76" transform="translate(-3.55 -3.55)"/><path class="cls-2" d="M515.79,63.33c1.3,0,1.9.87,1.84,2.25h-3a1.2,1.2,0,0,0,1.25,1.17,1.28,1.28,0,0,0,1.12-.58l0.53,0.43a1.92,1.92,0,0,1-1.65.79,2,2,0,0,1,0-4M516.86,65a1.07,1.07,0,0,0-1.54-1,1.12,1.12,0,0,0-.75,1h2.28Z" transform="translate(-3.55 -3.55)"/><path class="cls-2" d="M520.5,64a1.36,1.36,0,0,0,0,2.71,1.35,1.35,0,0,0,0-2.71m2,3.12a1.92,1.92,0,0,1-2.12,2.14,2.81,2.81,0,0,1-1.88-.7l0.49-.59a2,2,0,0,0,1.4.62c1.1,0,1.47-.77,1.34-1.91a1.56,1.56,0,0,1-1.35.66,2,2,0,0,1,0-4,1.63,1.63,0,0,1,1.4.72V63.43h0.74v3.64Z" transform="translate(-3.55 -3.55)"/><path class="cls-2" d="M524.2,61.55a0.5,0.5,0,0,1,.51.49,0.51,0.51,0,1,1-.51-0.49m0.38,5.72h-0.76V63.43h0.76v3.84Z" transform="translate(-3.55 -3.55)"/><path class="cls-2" d="M525.77,65c-0.5-1.26.95-2,2.14-1.47a1.3,1.3,0,0,1,.6.47L528,64.4a1,1,0,0,0-.89-0.48,0.58,0.58,0,0,0-.71.5c0,0.59.92,0.51,1.39,0.73a1.08,1.08,0,0,1,.78,1c0.06,1.56-2.45,1.51-3.08.55l0.54-.46a1.24,1.24,0,0,0,1,.53,0.62,0.62,0,0,0,.76-0.56c0-.73-1.27-0.51-1.76-0.95a0.84,0.84,0,0,1-.26-0.3" transform="translate(-3.55 -3.55)"/><path class="cls-2" d="M530.73,67.33a1,1,0,0,1-1.12-1.2V64.05h-0.74V63.43h0.74v-1.1h0.75v1.1h1v0.62h-1v2c0,0.44.13,0.64,0.54,0.65a1.09,1.09,0,0,0,.45-0.1l0,0.62a1.94,1.94,0,0,1-.65.11" transform="translate(-3.55 -3.55)"/><path class="cls-2" d="M533.91,63.33c1.3,0,1.9.87,1.84,2.25h-3a1.2,1.2,0,0,0,1.25,1.17,1.28,1.28,0,0,0,1.12-.58l0.53,0.43a1.92,1.92,0,0,1-1.65.79,2,2,0,0,1,0-4M535,65a1.07,1.07,0,0,0-1.54-1,1.12,1.12,0,0,0-.75,1H535Z" transform="translate(-3.55 -3.55)"/><path class="cls-2" d="M536.81,67.27c0-1.28,0-2.61,0-3.84h0.72c0,0.16,0,.48,0,0.65h0a1.3,1.3,0,0,1,1.47-.72l0,0.7a1.1,1.1,0,0,0-1.43,1.19v2h-0.76" transform="translate(-3.55 -3.55)"/><path class="cls-2" d="M491,78.29c0-1.28,0-2.61,0-3.84h0.72c0,0.16,0,.48,0,0.65h0a1.3,1.3,0,0,1,1.47-.72l0,0.7a1.1,1.1,0,0,0-1.43,1.19v2H491" transform="translate(-3.55 -3.55)"/><path class="cls-2" d="M495.49,74.35c1.3,0,1.9.87,1.84,2.25h-3a1.2,1.2,0,0,0,1.25,1.17,1.28,1.28,0,0,0,1.12-.58l0.53,0.43a1.92,1.92,0,0,1-1.65.79,2,2,0,0,1,0-4M496.57,76A1.07,1.07,0,0,0,495,75a1.12,1.12,0,0,0-.75,1h2.28Z" transform="translate(-3.55 -3.55)"/><path class="cls-2" d="M498.15,76.38a1.88,1.88,0,0,1,2-2,1.82,1.82,0,0,1,1.44.63l-0.55.45a1.05,1.05,0,0,0-.88-0.44,1.39,1.39,0,0,0,0,2.77,1.1,1.1,0,0,0,.92-0.42l0.51,0.46a1.77,1.77,0,0,1-1.43.6,1.9,1.9,0,0,1-2.07-2" transform="translate(-3.55 -3.55)"/><path class="cls-2" d="M504.13,74.35c1.3,0,1.9.87,1.84,2.25h-3a1.2,1.2,0,0,0,1.25,1.17,1.28,1.28,0,0,0,1.12-.58l0.53,0.43a1.92,1.92,0,0,1-1.65.79,2,2,0,0,1,0-4M505.21,76a1.07,1.07,0,0,0-1.54-1,1.12,1.12,0,0,0-.75,1h2.28Z" transform="translate(-3.55 -3.55)"/><path class="cls-2" d="M507.43,72.58a0.5,0.5,0,0,1,.51.49,0.51,0.51,0,1,1-.51-0.49m0.38,5.72H507V74.46h0.76v3.84Z" transform="translate(-3.55 -3.55)"/><path class="cls-2" d="M511.15,77.76a1.39,1.39,0,0,0,0-2.78,1.39,1.39,0,0,0,0,2.78m0.13,0.64a1.59,1.59,0,0,1-1.35-.68h0v2.52h-0.76V74.46h0.75v0.6h0a1.54,1.54,0,0,1,1.39-.7A2,2,0,0,1,511.28,78.4Z" transform="translate(-3.55 -3.55)"/><path class="cls-2" d="M515.5,78.36a1,1,0,0,1-1.12-1.2V75.08h-0.74V74.46h0.74v-1.1h0.75v1.1h1v0.62h-1v2c0,0.44.13,0.64,0.54,0.65a1.09,1.09,0,0,0,.45-0.1l0,0.62a1.94,1.94,0,0,1-.65.11" transform="translate(-3.55 -3.55)"/><line class="cls-1" x1="471.91" y1="36.72" x2="471.91" y2="96.75"/><rect class="cls-2" x="471.46" y="36.45" width="0.9" height="0.27"/><polygon class="cls-2" points="471.92 96.75 469.85 90.31 474.03 90.31 471.92 96.75"/><path class="cls-2" d="M474,94.32l1.44,4.5,1.49-4.5H474Zm1.76,6.43h-0.63l-2.39-7.33h5.4Z" transform="translate(-3.55 -3.55)"/><path class="cls-2" d="M429.33,66.7a1.78,1.78,0,0,0,1.54-.76l0.64,0.44a2.57,2.57,0,0,1-2.19,1,2.87,2.87,0,0,1-2.79-1.8,3.44,3.44,0,0,1,0-2.45,3,3,0,0,1,3.42-1.73,2.23,2.23,0,0,1,1.47.83l-0.63.49a1.73,1.73,0,0,0-1.43-.67,2.1,2.1,0,0,0-2.18,2.3,2.06,2.06,0,0,0,2.15,2.31" transform="translate(-3.55 -3.55)"/><path class="cls-2" d="M433.42,66.77a1.09,1.09,0,0,0,1.11-1.33c-0.83,0-1.9,0-1.9.73a0.65,0.65,0,0,0,.79.6m-1.56-.58c0-1.24,1.4-1.26,2.67-1.3a0.83,0.83,0,0,0-.95-0.95,1.6,1.6,0,0,0-1.09.45l-0.4-.49a2.26,2.26,0,0,1,1.57-.58,1.42,1.42,0,0,1,1.6,1.51,23.92,23.92,0,0,0,.06,2.44h-0.69a2.56,2.56,0,0,1-.06-0.55h0a1.47,1.47,0,0,1-1.29.65A1.19,1.19,0,0,1,431.86,66.18Z" transform="translate(-3.55 -3.55)"/><path class="cls-2" d="M436.4,65c-0.5-1.26.95-2,2.14-1.47a1.3,1.3,0,0,1,.6.47l-0.53.45a1,1,0,0,0-.89-0.48,0.58,0.58,0,0,0-.71.5c0,0.59.92,0.51,1.39,0.73a1.08,1.08,0,0,1,.78,1c0.06,1.56-2.45,1.51-3.08.55l0.54-.46a1.24,1.24,0,0,0,1,.53,0.62,0.62,0,0,0,.76-0.56c0-.73-1.27-0.51-1.76-0.95a0.84,0.84,0,0,1-.26-0.3" transform="translate(-3.55 -3.55)"/><path class="cls-2" d="M441.94,64a1.12,1.12,0,0,0-1,1.26v2h-0.76V61.15h0.76c0,0.95,0,1.94,0,2.87a1.35,1.35,0,0,1,1.21-.69,1.37,1.37,0,0,1,1.43,1.56v2.38h-0.76V65.15c0-.67-0.19-1.17-0.87-1.17" transform="translate(-3.55 -3.55)"/><polyline class="cls-2" points="441.58 64.8 440.93 64.8 441.49 62.77 442.25 62.77"/><path class="cls-2" d="M448.46,65.35a1.88,1.88,0,0,1,2-2A1.82,1.82,0,0,1,452,64l-0.55.45a1.05,1.05,0,0,0-.88-0.44,1.39,1.39,0,0,0,0,2.77,1.1,1.1,0,0,0,.92-0.42L452,66.78a1.77,1.77,0,0,1-1.43.6,1.9,1.9,0,0,1-2.07-2" transform="translate(-3.55 -3.55)"/><path class="cls-2" d="M454.53,64a1.12,1.12,0,0,0-1,1.26v2h-0.76V61.15h0.76c0,0.95,0,1.94,0,2.87a1.35,1.35,0,0,1,1.21-.69,1.37,1.37,0,0,1,1.43,1.56v2.38H455.4V65.15c0-.67-0.19-1.17-0.87-1.17" transform="translate(-3.55 -3.55)"/><path class="cls-2" d="M459.18,63.33c1.3,0,1.9.87,1.84,2.25h-3a1.2,1.2,0,0,0,1.25,1.17,1.28,1.28,0,0,0,1.12-.58l0.53,0.43a1.92,1.92,0,0,1-1.65.79,2,2,0,0,1,0-4M460.26,65a1.07,1.07,0,0,0-1.54-1,1.12,1.12,0,0,0-.75,1h2.28Z" transform="translate(-3.55 -3.55)"/><path class="cls-2" d="M461.84,65.35a1.88,1.88,0,0,1,2-2,1.82,1.82,0,0,1,1.44.63l-0.55.45A1.05,1.05,0,0,0,463.9,64a1.39,1.39,0,0,0,0,2.77,1.1,1.1,0,0,0,.92-0.42l0.51,0.46a1.77,1.77,0,0,1-1.43.6,1.9,1.9,0,0,1-2.07-2" transform="translate(-3.55 -3.55)"/><polyline class="cls-2" points="463.32 61.55 463.34 61.55 464.95 59.88 465.98 59.88 464.18 61.62 466.13 63.72 465.08 63.72 463.34 61.73 463.32 61.73 463.32 62.72 463.32 63.72 462.56 63.72 462.56 60.66 462.56 57.6 463.32 57.6 463.32 59.57 463.32 61.55"/><polyline class="cls-2" points="467.08 64.8 466.43 64.8 466.99 62.77 467.75 62.77"/><path class="cls-2" d="M426.37,77.76a1.39,1.39,0,1,0-1.28-1.39,1.24,1.24,0,0,0,1.28,1.39m0-3.41a2,2,0,1,1-2.07,2A1.9,1.9,0,0,1,426.37,74.35Z" transform="translate(-3.55 -3.55)"/><path class="cls-2" d="M429.5,78.29c0-1.28,0-2.61,0-3.84h0.72c0,0.16,0,.48,0,0.65h0a1.3,1.3,0,0,1,1.47-.72l0,0.7a1.1,1.1,0,0,0-1.43,1.19v2H429.5" transform="translate(-3.55 -3.55)"/><path class="cls-2" d="M436.26,75a1.39,1.39,0,0,0,0,2.78,1.39,1.39,0,0,0,0-2.78m-0.14-.63a1.7,1.7,0,0,1,1.39.68V72.17h0.76v6.12h-0.74a3.73,3.73,0,0,0,0-.61,1.6,1.6,0,0,1-1.39.71,1.84,1.84,0,0,1-1.94-2A1.86,1.86,0,0,1,436.12,74.35Z" transform="translate(-3.55 -3.55)"/><path class="cls-2" d="M441.33,74.35c1.3,0,1.9.87,1.84,2.25h-3a1.2,1.2,0,0,0,1.25,1.17,1.28,1.28,0,0,0,1.12-.58L443,77.61a1.92,1.92,0,0,1-1.65.79,2,2,0,0,1,0-4M442.41,76a1.07,1.07,0,0,0-1.54-1,1.12,1.12,0,0,0-.75,1h2.28Z" transform="translate(-3.55 -3.55)"/><path class="cls-2" d="M446.26,77.76a1.39,1.39,0,0,0,0-2.78,1.39,1.39,0,0,0,0,2.78m0.13,0.64a1.62,1.62,0,0,1-1.39-.71h0v0.61h-0.74V72.17H445V75h0a1.6,1.6,0,0,1,1.37-.68A2,2,0,0,1,446.39,78.4Z" transform="translate(-3.55 -3.55)"/><path class="cls-2" d="M449.78,72.58a0.5,0.5,0,0,1,.51.49,0.51,0.51,0,1,1-.51-0.49m0.38,5.72H449.4V74.46h0.76v3.84Z" transform="translate(-3.55 -3.55)"/><path class="cls-2" d="M452.71,78.36a1,1,0,0,1-1.12-1.2V75.08h-0.74V74.46h0.74v-1.1h0.75v1.1h1v0.62h-1v2c0,0.44.13,0.64,0.54,0.65a1.09,1.09,0,0,0,.45-0.1l0,0.62a1.94,1.94,0,0,1-.65.11" transform="translate(-3.55 -3.55)"/><path class="cls-2" d="M455.89,76.38a1.88,1.88,0,0,1,2-2,1.82,1.82,0,0,1,1.44.63l-0.55.45a1.05,1.05,0,0,0-.88-0.44,1.39,1.39,0,0,0,0,2.77,1.1,1.1,0,0,0,.92-0.42l0.51,0.46a1.77,1.77,0,0,1-1.43.6,1.9,1.9,0,0,1-2.07-2" transform="translate(-3.55 -3.55)"/><path class="cls-2" d="M461.42,77.79a1.09,1.09,0,0,0,1.11-1.33c-0.83,0-1.9,0-1.9.73a0.65,0.65,0,0,0,.79.6m-1.56-.58c0-1.24,1.4-1.26,2.67-1.3a0.83,0.83,0,0,0-.95-0.95,1.6,1.6,0,0,0-1.09.45l-0.4-.49a2.26,2.26,0,0,1,1.57-.58,1.42,1.42,0,0,1,1.6,1.51,23.92,23.92,0,0,0,.06,2.44h-0.69a2.56,2.56,0,0,1-.06-0.55h0a1.47,1.47,0,0,1-1.29.65A1.19,1.19,0,0,1,459.86,77.21Z" transform="translate(-3.55 -3.55)"/><path class="cls-2" d="M464.53,78.29c0-1.28,0-2.61,0-3.84h0.72c0,0.16,0,.48,0,0.65h0a1.3,1.3,0,0,1,1.47-.72l0,0.7a1.1,1.1,0,0,0-1.43,1.19v2h-0.76" transform="translate(-3.55 -3.55)"/><path class="cls-2" d="M469.13,75a1.39,1.39,0,0,0,0,2.78,1.39,1.39,0,0,0,0-2.78M469,74.35a1.7,1.7,0,0,1,1.39.68V72.17h0.76v6.12H470.4a3.73,3.73,0,0,0,0-.61,1.6,1.6,0,0,1-1.39.71,1.84,1.84,0,0,1-1.94-2A1.86,1.86,0,0,1,469,74.35Z" transform="translate(-3.55 -3.55)"/></svg>